G04*
G04 #@! TF.GenerationSoftware,Altium Limited,Altium Designer,19.1.9 (167)*
G04*
G04 Layer_Color=8421504*
%FSLAX44Y44*%
%MOMM*%
G71*
G01*
G75*
%ADD17R,1.0000X1.0000*%
G04:AMPARAMS|DCode=18|XSize=0.6mm|YSize=0.7mm|CornerRadius=0.075mm|HoleSize=0mm|Usage=FLASHONLY|Rotation=0.000|XOffset=0mm|YOffset=0mm|HoleType=Round|Shape=RoundedRectangle|*
%AMROUNDEDRECTD18*
21,1,0.6000,0.5500,0,0,0.0*
21,1,0.4500,0.7000,0,0,0.0*
1,1,0.1500,0.2250,-0.2750*
1,1,0.1500,-0.2250,-0.2750*
1,1,0.1500,-0.2250,0.2750*
1,1,0.1500,0.2250,0.2750*
%
%ADD18ROUNDEDRECTD18*%
%ADD19R,1.4000X1.2000*%
%ADD20R,1.2000X1.4000*%
%ADD21R,1.9000X1.2000*%
%ADD22R,1.5000X1.3000*%
G04:AMPARAMS|DCode=23|XSize=2.45mm|YSize=2.55mm|CornerRadius=0.245mm|HoleSize=0mm|Usage=FLASHONLY|Rotation=90.000|XOffset=0mm|YOffset=0mm|HoleType=Round|Shape=RoundedRectangle|*
%AMROUNDEDRECTD23*
21,1,2.4500,2.0600,0,0,90.0*
21,1,1.9600,2.5500,0,0,90.0*
1,1,0.4900,1.0300,0.9800*
1,1,0.4900,1.0300,-0.9800*
1,1,0.4900,-1.0300,-0.9800*
1,1,0.4900,-1.0300,0.9800*
%
%ADD23ROUNDEDRECTD23*%
%ADD24R,1.3000X1.5000*%
D17*
X738000Y1006000D02*
D03*
Y990000D02*
D03*
X941000Y1006000D02*
D03*
Y990000D02*
D03*
D18*
X436500Y971000D02*
D03*
X411500D02*
D03*
X149500Y970000D02*
D03*
X124500D02*
D03*
X436500Y832000D02*
D03*
X411500D02*
D03*
X149500D02*
D03*
X124500D02*
D03*
X434500Y695000D02*
D03*
X409500D02*
D03*
X149500D02*
D03*
X124500D02*
D03*
D19*
X1635000Y159000D02*
D03*
Y141000D02*
D03*
X1585000Y159000D02*
D03*
Y141000D02*
D03*
X1675000Y121000D02*
D03*
Y139000D02*
D03*
X910000Y159000D02*
D03*
Y141000D02*
D03*
X860000Y159000D02*
D03*
Y141000D02*
D03*
X952000Y118000D02*
D03*
Y136000D02*
D03*
X689000Y159000D02*
D03*
Y141000D02*
D03*
X639000Y159000D02*
D03*
Y141000D02*
D03*
X729000Y118000D02*
D03*
Y136000D02*
D03*
X1165000Y159000D02*
D03*
Y141000D02*
D03*
X1115000Y159000D02*
D03*
Y141000D02*
D03*
X1205000Y118000D02*
D03*
Y136000D02*
D03*
X1384000Y159000D02*
D03*
Y141000D02*
D03*
X1334000Y159000D02*
D03*
Y141000D02*
D03*
X1424000Y118000D02*
D03*
Y136000D02*
D03*
D20*
X1781000Y210000D02*
D03*
X1763000D02*
D03*
X453000Y1250000D02*
D03*
X435000D02*
D03*
X145000Y1251000D02*
D03*
X127000D02*
D03*
X453000Y1231000D02*
D03*
X435000D02*
D03*
X145000D02*
D03*
X127000D02*
D03*
X390000Y1485000D02*
D03*
X408000D02*
D03*
X56000D02*
D03*
X74000D02*
D03*
X408000Y1463000D02*
D03*
X390000D02*
D03*
X73000D02*
D03*
X55000D02*
D03*
X350000Y1485000D02*
D03*
X368000D02*
D03*
X96000D02*
D03*
X114000D02*
D03*
X368000Y1463000D02*
D03*
X350000D02*
D03*
X113000D02*
D03*
X95000D02*
D03*
X511000Y1415000D02*
D03*
X529000D02*
D03*
X216000D02*
D03*
X234000D02*
D03*
X511000Y1440000D02*
D03*
X529000D02*
D03*
X216000D02*
D03*
X234000D02*
D03*
X309000Y1485000D02*
D03*
X327000D02*
D03*
X136000D02*
D03*
X154000D02*
D03*
X327000Y1463000D02*
D03*
X309000D02*
D03*
X154000D02*
D03*
X136000D02*
D03*
D21*
X530000Y1461500D02*
D03*
Y1492500D02*
D03*
X235000Y1461500D02*
D03*
Y1492500D02*
D03*
X338000Y1079500D02*
D03*
Y1048500D02*
D03*
X28000Y1080500D02*
D03*
Y1049500D02*
D03*
X474000Y1079500D02*
D03*
Y1048500D02*
D03*
X165000Y1079500D02*
D03*
Y1048500D02*
D03*
X414000Y1079500D02*
D03*
Y1048500D02*
D03*
X104000Y1079500D02*
D03*
Y1048500D02*
D03*
X548000Y1075500D02*
D03*
Y1044500D02*
D03*
X239000Y1075500D02*
D03*
Y1044500D02*
D03*
D22*
X497000Y1485500D02*
D03*
Y1468500D02*
D03*
X202000Y1485500D02*
D03*
Y1468500D02*
D03*
X501000Y1052500D02*
D03*
Y1069500D02*
D03*
X192000Y1052500D02*
D03*
Y1069500D02*
D03*
X363000Y1053500D02*
D03*
Y1070500D02*
D03*
X54000Y1052500D02*
D03*
Y1069500D02*
D03*
X523000Y1053500D02*
D03*
Y1070500D02*
D03*
X217000Y1052500D02*
D03*
Y1069500D02*
D03*
X387000Y1053500D02*
D03*
Y1070500D02*
D03*
X78000Y1052500D02*
D03*
Y1069500D02*
D03*
X767000Y904500D02*
D03*
Y921500D02*
D03*
X744000Y904500D02*
D03*
Y921500D02*
D03*
X721000Y904500D02*
D03*
Y921500D02*
D03*
X698000Y904500D02*
D03*
Y921500D02*
D03*
X716000Y1006500D02*
D03*
Y989500D02*
D03*
X761000Y1006500D02*
D03*
Y989500D02*
D03*
X971000Y904500D02*
D03*
Y921500D02*
D03*
X948000Y904500D02*
D03*
Y921500D02*
D03*
X925000Y904500D02*
D03*
Y921500D02*
D03*
X902000Y904500D02*
D03*
Y921500D02*
D03*
X919000Y1006500D02*
D03*
Y989500D02*
D03*
X963000Y1006500D02*
D03*
Y989500D02*
D03*
D23*
X505250Y1357000D02*
D03*
X444750D02*
D03*
X223250Y1356000D02*
D03*
X162750D02*
D03*
X391250Y1357000D02*
D03*
X330750D02*
D03*
X107250D02*
D03*
X46750D02*
D03*
D24*
X470500Y1192000D02*
D03*
X453500D02*
D03*
X159500Y1193000D02*
D03*
X142500D02*
D03*
X452500Y1163000D02*
D03*
X435500D02*
D03*
X142500D02*
D03*
X125500D02*
D03*
X763500Y967000D02*
D03*
X780500D02*
D03*
X712500D02*
D03*
X695500D02*
D03*
X966500D02*
D03*
X983500D02*
D03*
X914500D02*
D03*
X897500D02*
D03*
X780500Y943000D02*
D03*
X763500D02*
D03*
X695500D02*
D03*
X712500D02*
D03*
X983500D02*
D03*
X966500D02*
D03*
X897500Y944000D02*
D03*
X914500D02*
D03*
M02*
