M48
;Layer_Color=9474304
;FILE_FORMAT=4:4
METRIC,LZ
;TYPE=PLATED
T7F00S00C1.5000
;TYPE=NON_PLATED
%
G90
G05
T07
G00X006015Y002495
M15
G01Y002605
M16
G00X007265Y002495
M15
G01Y002605
M16
G00X008215Y002495
M15
G01Y002605
M16
G00X009465Y002495
M15
G01Y002605
M16
G00X010765Y002495
M15
G01Y002605
M16
G00X012015Y002495
M15
G01Y002605
M16
G00X012965Y002495
M15
G01Y002605
M16
G00X014215Y002495
M15
G01Y002605
M16
G00X015465Y002495
M15
G01Y002605
M16
G00X016715Y002495
M15
G01Y002605
M16
G00X004245Y00575
M15
G01X004135
M16
G00X001415Y00575
M15
G01X001305
M16
G00X004245Y01329
M15
G01X004135
M16
G00X001415Y01329
M15
G01X001305
M16
M17
M30
