G04*
G04 #@! TF.GenerationSoftware,Altium Limited,Altium Designer,19.1.9 (167)*
G04*
G04 Layer_Color=16711935*
%FSLAX44Y44*%
%MOMM*%
G71*
G01*
G75*
%ADD27R,1.5500X1.3500*%
%ADD28R,1.3500X1.5500*%
%ADD29R,2.0500X1.3500*%
%ADD30R,1.6500X1.4500*%
%ADD32R,1.4500X1.6500*%
%ADD33R,1.8500X1.8500*%
%ADD34C,1.8500*%
G04:AMPARAMS|DCode=35|XSize=2.65mm|YSize=3.75mm|CornerRadius=0.7mm|HoleSize=0mm|Usage=FLASHONLY|Rotation=90.000|XOffset=0mm|YOffset=0mm|HoleType=Round|Shape=RoundedRectangle|*
%AMROUNDEDRECTD35*
21,1,2.6500,2.3500,0,0,90.0*
21,1,1.2500,3.7500,0,0,90.0*
1,1,1.4000,1.1750,0.6250*
1,1,1.4000,1.1750,-0.6250*
1,1,1.4000,-1.1750,-0.6250*
1,1,1.4000,-1.1750,0.6250*
%
%ADD35ROUNDEDRECTD35*%
%ADD36C,1.6500*%
%ADD37C,0.1500*%
%ADD38C,2.6500*%
%ADD39C,1.7500*%
%ADD40R,1.7500X1.7500*%
%ADD41R,1.8500X1.8500*%
%ADD42R,2.6500X3.7500*%
%ADD43C,1.9500*%
%ADD44C,1.0000*%
%ADD45R,1.6500X1.6500*%
%ADD46C,2.9500*%
%ADD47C,2.1500*%
%ADD82R,0.7500X1.6500*%
%ADD83R,1.5500X2.0900*%
%ADD84R,0.7500X2.0900*%
%ADD85R,1.1500X0.8500*%
%ADD86R,0.8500X1.1500*%
%ADD87R,1.6000X0.7500*%
%ADD88R,1.9500X1.2000*%
%ADD89R,2.3000X0.9500*%
%ADD90R,1.6500X0.7500*%
%ADD91R,2.1500X3.7500*%
%ADD92R,2.1500X1.4500*%
%ADD93R,1.5500X0.3500*%
%ADD94R,0.3500X1.5500*%
G04:AMPARAMS|DCode=95|XSize=2.45mm|YSize=1.95mm|CornerRadius=0.3mm|HoleSize=0mm|Usage=FLASHONLY|Rotation=0.000|XOffset=0mm|YOffset=0mm|HoleType=Round|Shape=RoundedRectangle|*
%AMROUNDEDRECTD95*
21,1,2.4500,1.3500,0,0,0.0*
21,1,1.8500,1.9500,0,0,0.0*
1,1,0.6000,0.9250,-0.6750*
1,1,0.6000,-0.9250,-0.6750*
1,1,0.6000,-0.9250,0.6750*
1,1,0.6000,0.9250,0.6750*
%
%ADD95ROUNDEDRECTD95*%
%ADD96R,2.4500X2.4500*%
%ADD97R,0.7500X1.6500*%
D27*
X1839000Y934000D02*
D03*
Y916000D02*
D03*
X458000Y1225000D02*
D03*
Y1243000D02*
D03*
X151000Y1225000D02*
D03*
Y1243000D02*
D03*
X479000Y1225000D02*
D03*
Y1243000D02*
D03*
X173000Y1225000D02*
D03*
Y1243000D02*
D03*
X437000Y1225000D02*
D03*
Y1243000D02*
D03*
X129000Y1225000D02*
D03*
Y1243000D02*
D03*
X416000Y1225000D02*
D03*
Y1243000D02*
D03*
X106000Y1225000D02*
D03*
Y1243000D02*
D03*
X418000Y1118000D02*
D03*
Y1136000D02*
D03*
X107000Y1118000D02*
D03*
Y1136000D02*
D03*
X470000Y1118000D02*
D03*
Y1136000D02*
D03*
X162000Y1118000D02*
D03*
Y1136000D02*
D03*
X394000Y1168000D02*
D03*
Y1186000D02*
D03*
X85000Y1168000D02*
D03*
Y1186000D02*
D03*
X494000Y1168000D02*
D03*
Y1186000D02*
D03*
X188000Y1168000D02*
D03*
Y1186000D02*
D03*
X1574000Y296000D02*
D03*
Y278000D02*
D03*
X850000Y299000D02*
D03*
Y281000D02*
D03*
X629000Y299000D02*
D03*
Y281000D02*
D03*
X1104000Y299000D02*
D03*
Y281000D02*
D03*
X1324000Y299000D02*
D03*
Y281000D02*
D03*
X509000Y974000D02*
D03*
Y956000D02*
D03*
X225000Y974000D02*
D03*
Y956000D02*
D03*
X359000Y974000D02*
D03*
Y956000D02*
D03*
X75000Y974000D02*
D03*
Y956000D02*
D03*
X509000Y936000D02*
D03*
Y918000D02*
D03*
X225000Y936000D02*
D03*
Y918000D02*
D03*
X359000Y936000D02*
D03*
Y918000D02*
D03*
X75000Y936000D02*
D03*
Y918000D02*
D03*
X509000Y799000D02*
D03*
Y781000D02*
D03*
X225000Y799000D02*
D03*
Y781000D02*
D03*
X362000Y799000D02*
D03*
Y781000D02*
D03*
X75000Y799000D02*
D03*
Y781000D02*
D03*
X509000Y661000D02*
D03*
Y643000D02*
D03*
X225000Y661000D02*
D03*
Y643000D02*
D03*
X359000Y661000D02*
D03*
Y643000D02*
D03*
X75000Y661000D02*
D03*
Y643000D02*
D03*
X1069000Y886000D02*
D03*
Y904000D02*
D03*
X1045000Y886000D02*
D03*
Y904000D02*
D03*
D28*
X1759000Y637000D02*
D03*
X1741000D02*
D03*
X1799000D02*
D03*
X1781000D02*
D03*
X1827000Y259000D02*
D03*
X1809000D02*
D03*
D29*
X333000Y502500D02*
D03*
Y533500D02*
D03*
X45000Y502500D02*
D03*
Y533500D02*
D03*
X333000Y452500D02*
D03*
Y483500D02*
D03*
X45000Y452500D02*
D03*
Y483500D02*
D03*
X333000Y402500D02*
D03*
Y433500D02*
D03*
X45000Y402500D02*
D03*
Y433500D02*
D03*
X333000Y352500D02*
D03*
Y383500D02*
D03*
X45000Y352500D02*
D03*
Y383500D02*
D03*
X333000Y300500D02*
D03*
Y331500D02*
D03*
X45000Y300500D02*
D03*
Y331500D02*
D03*
X485000Y502500D02*
D03*
Y533500D02*
D03*
X197000Y502500D02*
D03*
Y533500D02*
D03*
X485000Y454500D02*
D03*
Y485500D02*
D03*
X197000Y454500D02*
D03*
Y485500D02*
D03*
X485000Y402500D02*
D03*
Y433500D02*
D03*
X197000Y402500D02*
D03*
Y433500D02*
D03*
X485000Y353500D02*
D03*
Y384500D02*
D03*
X197000Y353500D02*
D03*
Y384500D02*
D03*
X485000Y302500D02*
D03*
Y333500D02*
D03*
X197000Y302500D02*
D03*
Y333500D02*
D03*
X1152000Y726500D02*
D03*
Y757500D02*
D03*
D30*
X1597000Y278500D02*
D03*
Y295500D02*
D03*
X1642000Y295500D02*
D03*
Y278500D02*
D03*
X1620000Y295500D02*
D03*
Y278500D02*
D03*
X1622000Y71500D02*
D03*
Y88500D02*
D03*
X872000Y281500D02*
D03*
Y298500D02*
D03*
X917000Y298500D02*
D03*
Y281500D02*
D03*
X894000Y298500D02*
D03*
Y281500D02*
D03*
X897000Y71500D02*
D03*
Y88500D02*
D03*
X652000Y281500D02*
D03*
Y298500D02*
D03*
X697000Y298500D02*
D03*
Y281500D02*
D03*
X674000Y297500D02*
D03*
Y280500D02*
D03*
X677000Y71500D02*
D03*
Y88500D02*
D03*
X1127000Y281500D02*
D03*
Y298500D02*
D03*
X1172000Y298500D02*
D03*
Y281500D02*
D03*
X1150000Y298500D02*
D03*
Y281500D02*
D03*
X1152000Y71500D02*
D03*
Y88500D02*
D03*
X1347000Y281500D02*
D03*
Y298500D02*
D03*
X1392000Y298500D02*
D03*
Y281500D02*
D03*
X1370000Y298500D02*
D03*
Y281500D02*
D03*
X1372000Y71500D02*
D03*
Y88500D02*
D03*
X1724000Y958500D02*
D03*
Y941500D02*
D03*
X1754000Y958500D02*
D03*
Y941500D02*
D03*
X444000Y1105500D02*
D03*
Y1122500D02*
D03*
X135000Y1105500D02*
D03*
Y1122500D02*
D03*
X484000Y973500D02*
D03*
Y956500D02*
D03*
X200000Y973500D02*
D03*
Y956500D02*
D03*
X334000Y973500D02*
D03*
Y956500D02*
D03*
X50000Y973500D02*
D03*
Y956500D02*
D03*
X484000Y935500D02*
D03*
Y918500D02*
D03*
X200000Y935500D02*
D03*
Y918500D02*
D03*
X334000Y935500D02*
D03*
Y918500D02*
D03*
X50000Y935500D02*
D03*
Y918500D02*
D03*
X484000Y798500D02*
D03*
Y781500D02*
D03*
X200000Y798500D02*
D03*
Y781500D02*
D03*
X337000Y798500D02*
D03*
Y781500D02*
D03*
X50000Y798500D02*
D03*
Y781500D02*
D03*
X484000Y660500D02*
D03*
Y643500D02*
D03*
X200000Y660500D02*
D03*
Y643500D02*
D03*
X334000Y660500D02*
D03*
Y643500D02*
D03*
X50000Y660500D02*
D03*
Y643500D02*
D03*
D32*
X724500Y1048000D02*
D03*
X707500D02*
D03*
X923500D02*
D03*
X906500D02*
D03*
X760500D02*
D03*
X777500D02*
D03*
X958500D02*
D03*
X975500D02*
D03*
X1827500Y157000D02*
D03*
X1810500D02*
D03*
X1276500Y735000D02*
D03*
X1293500D02*
D03*
X1276500Y777000D02*
D03*
X1293500D02*
D03*
X1127500Y755000D02*
D03*
X1110500D02*
D03*
X1315500Y735000D02*
D03*
X1332500D02*
D03*
X1315500Y777000D02*
D03*
X1332500D02*
D03*
X729500Y1028000D02*
D03*
X746500D02*
D03*
X932500D02*
D03*
X949500D02*
D03*
D33*
X1079300Y857700D02*
D03*
X644900Y423000D02*
D03*
Y651600D02*
D03*
X1780900Y183100D02*
D03*
X1830000Y295000D02*
D03*
D34*
X1079300Y832300D02*
D03*
X1053900Y857700D02*
D03*
Y832300D02*
D03*
X1028500Y857700D02*
D03*
Y832300D02*
D03*
X1003100Y857700D02*
D03*
Y832300D02*
D03*
X977700Y857700D02*
D03*
Y832300D02*
D03*
X952300Y857700D02*
D03*
Y832300D02*
D03*
X926900Y857700D02*
D03*
Y832300D02*
D03*
X901500Y857700D02*
D03*
Y832300D02*
D03*
X876100Y857700D02*
D03*
Y832300D02*
D03*
X850700Y857700D02*
D03*
Y832300D02*
D03*
X825300Y857700D02*
D03*
Y832300D02*
D03*
X799900Y857700D02*
D03*
Y832300D02*
D03*
X774500Y857700D02*
D03*
Y832300D02*
D03*
X749100Y857700D02*
D03*
Y832300D02*
D03*
X723700Y857700D02*
D03*
Y832300D02*
D03*
X698300Y857700D02*
D03*
Y832300D02*
D03*
X672900Y857700D02*
D03*
Y832300D02*
D03*
X647500Y857700D02*
D03*
Y832300D02*
D03*
X622100Y857700D02*
D03*
Y832300D02*
D03*
X596700Y857700D02*
D03*
Y832300D02*
D03*
X1320900Y41900D02*
D03*
X1346300D02*
D03*
X1371700D02*
D03*
X1397100D02*
D03*
X1320900Y118100D02*
D03*
X1346300D02*
D03*
X1371700D02*
D03*
X975100Y448400D02*
D03*
Y423000D02*
D03*
X949700Y448400D02*
D03*
Y423000D02*
D03*
X924300Y448400D02*
D03*
Y423000D02*
D03*
X898900Y448400D02*
D03*
Y423000D02*
D03*
X873500Y448400D02*
D03*
Y423000D02*
D03*
X848100Y448400D02*
D03*
Y423000D02*
D03*
X822700Y448400D02*
D03*
Y423000D02*
D03*
X797300Y448400D02*
D03*
Y423000D02*
D03*
X771900Y448400D02*
D03*
Y423000D02*
D03*
X746500Y448400D02*
D03*
Y423000D02*
D03*
X721100Y448400D02*
D03*
Y423000D02*
D03*
X695700Y448400D02*
D03*
Y423000D02*
D03*
X670300Y448400D02*
D03*
Y423000D02*
D03*
X644900Y448400D02*
D03*
X975100Y677000D02*
D03*
Y651600D02*
D03*
X949700Y677000D02*
D03*
Y651600D02*
D03*
X924300Y677000D02*
D03*
Y651600D02*
D03*
X898900Y677000D02*
D03*
Y651600D02*
D03*
X873500Y677000D02*
D03*
Y651600D02*
D03*
X848100Y677000D02*
D03*
Y651600D02*
D03*
X822700Y677000D02*
D03*
Y651600D02*
D03*
X797300Y677000D02*
D03*
Y651600D02*
D03*
X771900Y677000D02*
D03*
Y651600D02*
D03*
X746500Y677000D02*
D03*
Y651600D02*
D03*
X721100Y677000D02*
D03*
Y651600D02*
D03*
X695700Y677000D02*
D03*
Y651600D02*
D03*
X670300Y677000D02*
D03*
Y651600D02*
D03*
X644900Y677000D02*
D03*
X1857100Y106900D02*
D03*
Y132300D02*
D03*
Y157700D02*
D03*
Y183100D02*
D03*
X1780900Y106900D02*
D03*
Y132300D02*
D03*
Y157700D02*
D03*
X1571900Y41900D02*
D03*
X1597300D02*
D03*
X1622700D02*
D03*
X1648100D02*
D03*
X1571900Y118100D02*
D03*
X1597300D02*
D03*
X1622700D02*
D03*
X1804600Y295000D02*
D03*
X846900Y41900D02*
D03*
X872300D02*
D03*
X897700D02*
D03*
X923100D02*
D03*
X846900Y118100D02*
D03*
X872300D02*
D03*
X897700D02*
D03*
X625900Y41900D02*
D03*
X651300D02*
D03*
X676700D02*
D03*
X702100D02*
D03*
X625900Y118100D02*
D03*
X651300D02*
D03*
X676700D02*
D03*
X1100900Y41900D02*
D03*
X1126300D02*
D03*
X1151700D02*
D03*
X1177100D02*
D03*
X1100900Y118100D02*
D03*
X1126300D02*
D03*
X1151700D02*
D03*
D35*
X136000Y575000D02*
D03*
X419000D02*
D03*
X136000Y1329000D02*
D03*
X419000D02*
D03*
D36*
X1630000Y552500D02*
D03*
Y575000D02*
D03*
X1830000Y686800D02*
D03*
Y661400D02*
D03*
Y636000D02*
D03*
Y610600D02*
D03*
D37*
X1850000Y50000D02*
D03*
X50000D02*
D03*
Y1550000D02*
D03*
X1850000D02*
D03*
X1875000Y764000D02*
D03*
X1675000D02*
D03*
Y514000D02*
D03*
X1875000D02*
D03*
X1392500Y1567000D02*
D03*
Y847000D02*
D03*
X1740000Y411000D02*
D03*
X171000Y1560000D02*
D03*
X1740000D02*
D03*
X542500Y1567000D02*
D03*
D38*
X1049000Y550000D02*
D03*
X1304500Y455500D02*
D03*
Y644500D02*
D03*
D39*
X1330500Y756000D02*
D03*
X1305100D02*
D03*
X1279700D02*
D03*
X1228900D02*
D03*
D40*
X1203500D02*
D03*
D41*
X1397100Y118100D02*
D03*
X1648100D02*
D03*
X923100D02*
D03*
X702100D02*
D03*
X1177100D02*
D03*
D42*
X1421500Y255000D02*
D03*
X1296500D02*
D03*
X1201500D02*
D03*
X1076500D02*
D03*
X946500D02*
D03*
X821500D02*
D03*
X726500D02*
D03*
X601500D02*
D03*
X1671500D02*
D03*
X1546500D02*
D03*
D43*
X1384000Y325000D02*
D03*
X1334000D02*
D03*
X1384000Y180000D02*
D03*
X1359000D02*
D03*
X1334000D02*
D03*
X1164000Y325000D02*
D03*
X1114000D02*
D03*
X1164000Y180000D02*
D03*
X1139000D02*
D03*
X1114000D02*
D03*
X909000Y325000D02*
D03*
X859000D02*
D03*
X909000Y180000D02*
D03*
X884000D02*
D03*
X859000D02*
D03*
X689000Y325000D02*
D03*
X639000D02*
D03*
X689000Y180000D02*
D03*
X664000D02*
D03*
X639000D02*
D03*
X1634000Y325000D02*
D03*
X1584000D02*
D03*
X1634000Y180000D02*
D03*
X1609000D02*
D03*
X1584000D02*
D03*
D44*
X1882000Y958000D02*
D03*
Y928000D02*
D03*
D45*
X1830000Y585200D02*
D03*
D46*
X384700Y110700D02*
D03*
X453300D02*
D03*
Y179300D02*
D03*
X384700D02*
D03*
X100700Y110700D02*
D03*
X169300D02*
D03*
Y179300D02*
D03*
X100700D02*
D03*
D47*
X419000Y145000D02*
D03*
X135000D02*
D03*
D82*
X1838500Y960500D02*
D03*
X1819500D02*
D03*
X1829000Y979500D02*
D03*
X387500Y1484500D02*
D03*
X406500D02*
D03*
X397000Y1465500D02*
D03*
X52500Y1484500D02*
D03*
X71500D02*
D03*
X62000Y1465500D02*
D03*
X347500Y1484500D02*
D03*
X366500D02*
D03*
X357000Y1465500D02*
D03*
X92500Y1484500D02*
D03*
X111500D02*
D03*
X102000Y1465500D02*
D03*
X307500Y1484500D02*
D03*
X326500D02*
D03*
X317000Y1465500D02*
D03*
X132500Y1484500D02*
D03*
X151500D02*
D03*
X142000Y1465500D02*
D03*
D83*
X1111000Y783000D02*
D03*
X1147000D02*
D03*
D84*
X1129000D02*
D03*
D85*
X360500Y559000D02*
D03*
X383500Y549500D02*
D03*
Y568500D02*
D03*
X75500Y559000D02*
D03*
X98500Y549500D02*
D03*
Y568500D02*
D03*
X480500Y560000D02*
D03*
X457500Y569500D02*
D03*
Y550500D02*
D03*
X196500Y560000D02*
D03*
X173500Y569500D02*
D03*
Y550500D02*
D03*
D86*
X1893500Y980000D02*
D03*
X1870500D02*
D03*
X1893500Y906000D02*
D03*
X1870500D02*
D03*
D87*
X1860750Y964000D02*
D03*
Y934000D02*
D03*
Y919000D02*
D03*
D88*
X360000Y531750D02*
D03*
Y506250D02*
D03*
X72000Y531750D02*
D03*
Y506250D02*
D03*
X361000Y481750D02*
D03*
Y456250D02*
D03*
X73000Y481750D02*
D03*
Y456250D02*
D03*
X361000Y431750D02*
D03*
Y406250D02*
D03*
X73000Y431750D02*
D03*
Y406250D02*
D03*
X361000Y381750D02*
D03*
Y356250D02*
D03*
X73000Y380750D02*
D03*
Y355250D02*
D03*
X360000Y328750D02*
D03*
Y303250D02*
D03*
X72000Y328750D02*
D03*
Y303250D02*
D03*
X513000Y531750D02*
D03*
Y506250D02*
D03*
X225000Y531750D02*
D03*
Y506250D02*
D03*
X512000Y483750D02*
D03*
Y458250D02*
D03*
X224000Y482750D02*
D03*
Y457250D02*
D03*
X512000Y431750D02*
D03*
Y406250D02*
D03*
X224000Y431750D02*
D03*
Y406250D02*
D03*
X512000Y382750D02*
D03*
Y357250D02*
D03*
X224000Y381750D02*
D03*
Y356250D02*
D03*
X513000Y331750D02*
D03*
Y306250D02*
D03*
X225000Y330750D02*
D03*
Y305250D02*
D03*
D89*
X456750Y895000D02*
D03*
X393250D02*
D03*
X456750Y917000D02*
D03*
X393250D02*
D03*
X456750Y939000D02*
D03*
X393250D02*
D03*
X456750Y971000D02*
D03*
X393250D02*
D03*
X168750Y894000D02*
D03*
X105250D02*
D03*
X168750Y916000D02*
D03*
X105250D02*
D03*
X168750Y938000D02*
D03*
X105250D02*
D03*
X168750Y970000D02*
D03*
X105250D02*
D03*
X456750Y757000D02*
D03*
X393250D02*
D03*
X456750Y779000D02*
D03*
X393250D02*
D03*
X456750Y801000D02*
D03*
X393250D02*
D03*
X456750Y833000D02*
D03*
X393250D02*
D03*
X168750Y757000D02*
D03*
X105250D02*
D03*
X168750Y779000D02*
D03*
X105250D02*
D03*
X168750Y801000D02*
D03*
X105250D02*
D03*
X168750Y833000D02*
D03*
X105250D02*
D03*
X453750Y619000D02*
D03*
X390250D02*
D03*
X453750Y641000D02*
D03*
X390250D02*
D03*
X453750Y663000D02*
D03*
X390250D02*
D03*
X453750Y695000D02*
D03*
X390250D02*
D03*
X168750Y619000D02*
D03*
X105250D02*
D03*
X168750Y641000D02*
D03*
X105250D02*
D03*
X168750Y663000D02*
D03*
X105250D02*
D03*
X168750Y695000D02*
D03*
X105250D02*
D03*
D90*
X470500Y1196050D02*
D03*
X417500D02*
D03*
X470500Y1183350D02*
D03*
X417500D02*
D03*
X470500Y1170650D02*
D03*
X417500D02*
D03*
X470500Y1157950D02*
D03*
X417500D02*
D03*
X161500Y1196050D02*
D03*
X108500D02*
D03*
X161500Y1183350D02*
D03*
X108500D02*
D03*
X161500Y1170650D02*
D03*
X108500D02*
D03*
X161500Y1157950D02*
D03*
X108500D02*
D03*
D91*
X487500Y1465000D02*
D03*
X192500D02*
D03*
D92*
X552500Y1487900D02*
D03*
Y1465000D02*
D03*
Y1442100D02*
D03*
X257500Y1487900D02*
D03*
Y1465000D02*
D03*
Y1442100D02*
D03*
D93*
X781000Y983500D02*
D03*
Y978500D02*
D03*
Y973500D02*
D03*
Y968500D02*
D03*
Y963500D02*
D03*
Y958500D02*
D03*
Y953500D02*
D03*
Y948500D02*
D03*
Y943500D02*
D03*
Y938500D02*
D03*
Y933500D02*
D03*
Y928500D02*
D03*
X695000D02*
D03*
Y933500D02*
D03*
Y938500D02*
D03*
Y943500D02*
D03*
Y948500D02*
D03*
Y953500D02*
D03*
Y958500D02*
D03*
Y963500D02*
D03*
Y968500D02*
D03*
Y973500D02*
D03*
Y978500D02*
D03*
Y983500D02*
D03*
X984000D02*
D03*
Y978500D02*
D03*
Y973500D02*
D03*
Y968500D02*
D03*
Y963500D02*
D03*
Y958500D02*
D03*
Y953500D02*
D03*
Y948500D02*
D03*
Y943500D02*
D03*
Y938500D02*
D03*
Y933500D02*
D03*
Y928500D02*
D03*
X898000D02*
D03*
Y933500D02*
D03*
Y938500D02*
D03*
Y943500D02*
D03*
Y948500D02*
D03*
Y953500D02*
D03*
Y958500D02*
D03*
Y963500D02*
D03*
Y968500D02*
D03*
Y973500D02*
D03*
Y978500D02*
D03*
Y983500D02*
D03*
D94*
X765500Y913000D02*
D03*
X760500D02*
D03*
X755500D02*
D03*
X750500D02*
D03*
X745500D02*
D03*
X740500D02*
D03*
X735500D02*
D03*
X730500D02*
D03*
X725500D02*
D03*
X720500D02*
D03*
X715500D02*
D03*
X710500D02*
D03*
Y999000D02*
D03*
X715500D02*
D03*
X720500D02*
D03*
X725500D02*
D03*
X730500D02*
D03*
X735500D02*
D03*
X740500D02*
D03*
X745500D02*
D03*
X750500D02*
D03*
X755500D02*
D03*
X760500D02*
D03*
X765500D02*
D03*
X968500Y913000D02*
D03*
X963500D02*
D03*
X958500D02*
D03*
X953500D02*
D03*
X948500D02*
D03*
X943500D02*
D03*
X938500D02*
D03*
X933500D02*
D03*
X928500D02*
D03*
X923500D02*
D03*
X918500D02*
D03*
X913500D02*
D03*
Y999000D02*
D03*
X918500D02*
D03*
X923500D02*
D03*
X928500D02*
D03*
X933500D02*
D03*
X938500D02*
D03*
X943500D02*
D03*
X948500D02*
D03*
X953500D02*
D03*
X958500D02*
D03*
X963500D02*
D03*
X968500D02*
D03*
D95*
X1788000Y935500D02*
D03*
Y964500D02*
D03*
D96*
X376000Y1062000D02*
D03*
X66000D02*
D03*
X513000D02*
D03*
X204000D02*
D03*
D97*
X356950Y1088500D02*
D03*
Y1035500D02*
D03*
X369650Y1088500D02*
D03*
Y1035500D02*
D03*
X382350Y1088500D02*
D03*
Y1035500D02*
D03*
X395050Y1088500D02*
D03*
Y1035500D02*
D03*
X46950Y1088500D02*
D03*
Y1035500D02*
D03*
X59650Y1088500D02*
D03*
Y1035500D02*
D03*
X72350Y1088500D02*
D03*
Y1035500D02*
D03*
X85050Y1088500D02*
D03*
Y1035500D02*
D03*
X493950Y1088500D02*
D03*
Y1035500D02*
D03*
X506650Y1088500D02*
D03*
Y1035500D02*
D03*
X519350Y1088500D02*
D03*
Y1035500D02*
D03*
X532050Y1088500D02*
D03*
Y1035500D02*
D03*
X184950Y1088500D02*
D03*
Y1035500D02*
D03*
X197650Y1088500D02*
D03*
Y1035500D02*
D03*
X210350Y1088500D02*
D03*
Y1035500D02*
D03*
X223050Y1088500D02*
D03*
Y1035500D02*
D03*
M02*
