G04*
G04 #@! TF.GenerationSoftware,Altium Limited,Altium Designer,19.1.9 (167)*
G04*
G04 Layer_Physical_Order=1*
G04 Layer_Color=255*
%FSLAX44Y44*%
%MOMM*%
G71*
G01*
G75*
%ADD12C,0.2000*%
%ADD15C,0.5000*%
%ADD17R,1.0000X1.0000*%
G04:AMPARAMS|DCode=18|XSize=0.6mm|YSize=0.7mm|CornerRadius=0.075mm|HoleSize=0mm|Usage=FLASHONLY|Rotation=0.000|XOffset=0mm|YOffset=0mm|HoleType=Round|Shape=RoundedRectangle|*
%AMROUNDEDRECTD18*
21,1,0.6000,0.5500,0,0,0.0*
21,1,0.4500,0.7000,0,0,0.0*
1,1,0.1500,0.2250,-0.2750*
1,1,0.1500,-0.2250,-0.2750*
1,1,0.1500,-0.2250,0.2750*
1,1,0.1500,0.2250,0.2750*
%
%ADD18ROUNDEDRECTD18*%
%ADD19R,1.4000X1.2000*%
%ADD20R,1.2000X1.4000*%
%ADD21R,1.9000X1.2000*%
%ADD22R,1.5000X1.3000*%
G04:AMPARAMS|DCode=23|XSize=2.45mm|YSize=2.55mm|CornerRadius=0.245mm|HoleSize=0mm|Usage=FLASHONLY|Rotation=90.000|XOffset=0mm|YOffset=0mm|HoleType=Round|Shape=RoundedRectangle|*
%AMROUNDEDRECTD23*
21,1,2.4500,2.0600,0,0,90.0*
21,1,1.9600,2.5500,0,0,90.0*
1,1,0.4900,1.0300,0.9800*
1,1,0.4900,1.0300,-0.9800*
1,1,0.4900,-1.0300,-0.9800*
1,1,0.4900,-1.0300,0.9800*
%
%ADD23ROUNDEDRECTD23*%
%ADD24R,1.3000X1.5000*%
%ADD48C,1.0000*%
%ADD49R,1.7000X1.7000*%
%ADD50C,1.7000*%
G04:AMPARAMS|DCode=51|XSize=2.5mm|YSize=3.6mm|CornerRadius=0.625mm|HoleSize=0mm|Usage=FLASHONLY|Rotation=90.000|XOffset=0mm|YOffset=0mm|HoleType=Round|Shape=RoundedRectangle|*
%AMROUNDEDRECTD51*
21,1,2.5000,2.3500,0,0,90.0*
21,1,1.2500,3.6000,0,0,90.0*
1,1,1.2500,1.1750,0.6250*
1,1,1.2500,1.1750,-0.6250*
1,1,1.2500,-1.1750,-0.6250*
1,1,1.2500,-1.1750,0.6250*
%
%ADD51ROUNDEDRECTD51*%
%ADD52C,1.5000*%
%ADD53C,2.5000*%
%ADD54C,1.6000*%
%ADD55R,1.6000X1.6000*%
%ADD56R,1.7000X1.7000*%
%ADD57R,2.5000X3.6000*%
%ADD58C,1.8000*%
%ADD59C,0.8500*%
%ADD60R,1.5000X1.5000*%
%ADD61C,2.8000*%
%ADD62C,2.0000*%
%ADD63C,0.6000*%
G36*
X1814892Y1550000D02*
X1815324Y1544508D01*
X1816610Y1539151D01*
X1818718Y1534061D01*
X1821597Y1529364D01*
X1825175Y1525175D01*
X1829364Y1521597D01*
X1834061Y1518718D01*
X1839151Y1516610D01*
X1844508Y1515324D01*
X1850000Y1514892D01*
X1855492Y1515324D01*
X1860849Y1516610D01*
X1865939Y1518718D01*
X1870636Y1521597D01*
X1874825Y1525175D01*
X1878403Y1529364D01*
X1881282Y1534061D01*
X1883390Y1539151D01*
X1884676Y1544508D01*
X1885000Y1548627D01*
X1890000Y1548431D01*
X1890000Y966613D01*
X1886847Y964765D01*
X1885000Y964107D01*
X1883772Y964615D01*
X1882000Y964849D01*
X1880228Y964615D01*
X1878576Y963931D01*
X1877157Y962843D01*
X1876069Y961424D01*
X1875385Y959772D01*
X1875151Y958000D01*
X1875385Y956227D01*
X1876069Y954576D01*
X1877157Y953157D01*
X1878576Y952069D01*
X1880228Y951385D01*
X1882000Y951151D01*
X1883772Y951385D01*
X1885000Y951893D01*
X1886847Y951235D01*
X1890000Y949387D01*
Y936613D01*
X1886847Y934765D01*
X1885000Y934107D01*
X1883772Y934615D01*
X1882000Y934849D01*
X1880228Y934615D01*
X1878576Y933931D01*
X1877157Y932843D01*
X1876069Y931424D01*
X1875385Y929772D01*
X1875151Y928000D01*
X1875385Y926227D01*
X1876069Y924576D01*
X1877157Y923157D01*
X1878576Y922069D01*
X1880228Y921385D01*
X1882000Y921151D01*
X1883772Y921385D01*
X1885000Y921893D01*
X1886847Y921235D01*
X1890000Y919387D01*
X1890000Y800164D01*
X1889532Y799851D01*
X1885000Y797594D01*
X1880492Y798676D01*
X1875000Y799108D01*
X1869508Y798676D01*
X1864151Y797390D01*
X1859061Y795282D01*
X1854364Y792403D01*
X1850175Y788825D01*
X1846597Y784636D01*
X1843718Y779939D01*
X1841610Y774849D01*
X1840324Y769492D01*
X1839892Y764000D01*
X1840324Y758508D01*
X1841610Y753151D01*
X1843718Y748061D01*
X1846597Y743364D01*
X1850175Y739175D01*
X1854364Y735597D01*
X1859061Y732718D01*
X1864151Y730610D01*
X1869508Y729324D01*
X1875000Y728892D01*
X1880492Y729324D01*
X1885000Y730406D01*
X1889532Y728149D01*
X1890000Y727837D01*
X1890000Y550163D01*
X1889532Y549851D01*
X1885000Y547594D01*
X1880492Y548676D01*
X1875000Y549108D01*
X1869508Y548676D01*
X1864151Y547390D01*
X1859061Y545282D01*
X1854364Y542403D01*
X1850175Y538825D01*
X1846597Y534636D01*
X1843718Y529939D01*
X1841610Y524849D01*
X1840324Y519492D01*
X1839892Y514000D01*
X1840324Y508508D01*
X1841610Y503151D01*
X1843718Y498061D01*
X1846597Y493364D01*
X1850175Y489175D01*
X1854364Y485597D01*
X1859061Y482718D01*
X1864151Y480610D01*
X1869508Y479324D01*
X1875000Y478892D01*
X1880492Y479324D01*
X1885000Y480406D01*
X1889532Y478149D01*
X1890000Y477836D01*
X1890000Y51572D01*
X1885000Y51375D01*
X1884676Y55492D01*
X1883390Y60849D01*
X1881282Y65939D01*
X1878403Y70636D01*
X1874825Y74825D01*
X1870636Y78403D01*
X1865939Y81282D01*
X1860849Y83390D01*
X1855492Y84676D01*
X1850000Y85108D01*
X1844508Y84676D01*
X1839151Y83390D01*
X1834061Y81282D01*
X1829364Y78403D01*
X1825175Y74825D01*
X1821597Y70636D01*
X1818718Y65939D01*
X1816610Y60849D01*
X1815324Y55492D01*
X1814892Y50000D01*
X1815285Y45000D01*
X1814920Y43237D01*
X1812368Y40000D01*
X1663463D01*
X1661797Y41900D01*
X1661330Y45445D01*
X1659962Y48749D01*
X1657785Y51585D01*
X1654949Y53762D01*
X1651645Y55130D01*
X1651275Y55179D01*
Y41900D01*
X1644925D01*
Y55179D01*
X1644555Y55130D01*
X1641251Y53762D01*
X1638415Y51585D01*
X1632385D01*
X1629549Y53762D01*
X1626245Y55130D01*
X1625875Y55179D01*
Y41900D01*
X1619525D01*
Y55179D01*
X1619155Y55130D01*
X1615851Y53762D01*
X1613015Y51585D01*
X1606985D01*
X1604149Y53762D01*
X1600845Y55130D01*
X1600475Y55179D01*
Y41900D01*
X1594125D01*
Y55179D01*
X1593755Y55130D01*
X1590451Y53762D01*
X1587615Y51585D01*
X1581585D01*
X1578749Y53762D01*
X1575445Y55130D01*
X1575075Y55179D01*
Y41900D01*
X1568725D01*
Y55179D01*
X1568355Y55130D01*
X1565051Y53762D01*
X1562215Y51585D01*
X1560038Y48749D01*
X1558670Y45445D01*
X1558203Y41900D01*
X1556537Y40000D01*
X1412463D01*
X1410797Y41900D01*
X1410330Y45445D01*
X1408962Y48749D01*
X1406785Y51585D01*
X1403949Y53762D01*
X1400645Y55130D01*
X1400275Y55179D01*
Y41900D01*
X1393925D01*
Y55179D01*
X1393555Y55130D01*
X1390251Y53762D01*
X1387415Y51585D01*
X1381385D01*
X1378549Y53762D01*
X1375245Y55130D01*
X1374875Y55179D01*
Y41900D01*
X1368525D01*
Y55179D01*
X1368155Y55130D01*
X1364851Y53762D01*
X1362015Y51585D01*
X1355985D01*
X1353149Y53762D01*
X1349845Y55130D01*
X1349475Y55179D01*
Y41900D01*
X1343125D01*
Y55179D01*
X1342755Y55130D01*
X1339451Y53762D01*
X1336615Y51585D01*
X1330585D01*
X1327749Y53762D01*
X1324445Y55130D01*
X1324075Y55179D01*
Y41900D01*
X1317725D01*
Y55179D01*
X1317355Y55130D01*
X1314051Y53762D01*
X1311215Y51585D01*
X1309038Y48749D01*
X1307670Y45445D01*
X1307203Y41900D01*
X1305537Y40000D01*
X1192463D01*
X1190797Y41900D01*
X1190330Y45445D01*
X1188962Y48749D01*
X1186785Y51585D01*
X1183949Y53762D01*
X1180645Y55130D01*
X1180275Y55179D01*
Y41900D01*
X1173925D01*
Y55179D01*
X1173555Y55130D01*
X1170251Y53762D01*
X1167415Y51585D01*
X1161385D01*
X1158549Y53762D01*
X1155245Y55130D01*
X1154875Y55179D01*
Y41900D01*
X1148525D01*
Y55179D01*
X1148155Y55130D01*
X1144851Y53762D01*
X1142015Y51585D01*
X1135985D01*
X1133149Y53762D01*
X1129845Y55130D01*
X1129475Y55179D01*
Y41900D01*
X1123125D01*
Y55179D01*
X1122755Y55130D01*
X1119451Y53762D01*
X1116615Y51585D01*
X1110585D01*
X1107749Y53762D01*
X1104445Y55130D01*
X1104075Y55179D01*
Y41900D01*
X1097725D01*
Y55179D01*
X1097355Y55130D01*
X1094051Y53762D01*
X1091215Y51585D01*
X1089038Y48749D01*
X1087670Y45445D01*
X1087203Y41900D01*
X1085537Y40000D01*
X938463D01*
X936797Y41900D01*
X936330Y45445D01*
X934962Y48749D01*
X932785Y51585D01*
X929949Y53762D01*
X926645Y55130D01*
X926275Y55179D01*
Y41900D01*
X919925D01*
Y55179D01*
X919555Y55130D01*
X916251Y53762D01*
X913415Y51585D01*
X907385D01*
X904549Y53762D01*
X901245Y55130D01*
X900875Y55179D01*
Y41900D01*
X894525D01*
Y55179D01*
X894155Y55130D01*
X890851Y53762D01*
X888015Y51585D01*
X881985D01*
X879149Y53762D01*
X875845Y55130D01*
X875475Y55179D01*
Y41900D01*
X869125D01*
Y55179D01*
X868755Y55130D01*
X865451Y53762D01*
X862615Y51585D01*
X856585D01*
X853749Y53762D01*
X850445Y55130D01*
X850075Y55179D01*
Y41900D01*
X843725D01*
Y55179D01*
X843355Y55130D01*
X840051Y53762D01*
X837215Y51585D01*
X835038Y48749D01*
X833670Y45445D01*
X833203Y41900D01*
X831537Y40000D01*
X717463D01*
X715797Y41900D01*
X715330Y45445D01*
X713962Y48749D01*
X711785Y51585D01*
X708949Y53762D01*
X705645Y55130D01*
X705275Y55179D01*
Y41900D01*
X698925D01*
Y55179D01*
X698555Y55130D01*
X695251Y53762D01*
X692415Y51585D01*
X686385D01*
X683549Y53762D01*
X680245Y55130D01*
X679875Y55179D01*
Y41900D01*
X673525D01*
Y55179D01*
X673155Y55130D01*
X669851Y53762D01*
X667015Y51585D01*
X660985D01*
X658149Y53762D01*
X654845Y55130D01*
X654475Y55179D01*
Y41900D01*
X648125D01*
Y55179D01*
X647755Y55130D01*
X644451Y53762D01*
X641615Y51585D01*
X635585D01*
X632749Y53762D01*
X629445Y55130D01*
X629075Y55179D01*
Y41900D01*
X622725D01*
Y55179D01*
X622355Y55130D01*
X619051Y53762D01*
X616215Y51585D01*
X615000Y50002D01*
X610000Y51527D01*
Y115985D01*
X615000Y116313D01*
X615144Y115218D01*
X616257Y112532D01*
X618026Y110226D01*
X620332Y108457D01*
X623018Y107344D01*
X625900Y106965D01*
X628782Y107344D01*
X631468Y108457D01*
X633774Y110226D01*
X635543Y112532D01*
X635925Y113453D01*
X641275D01*
X641657Y112532D01*
X643426Y110226D01*
X645732Y108457D01*
X648418Y107344D01*
X651300Y106965D01*
X654182Y107344D01*
X656868Y108457D01*
X659174Y110226D01*
X660943Y112532D01*
X661325Y113453D01*
X666675D01*
X667057Y112532D01*
X668826Y110226D01*
X671132Y108457D01*
X673818Y107344D01*
X676700Y106965D01*
X679582Y107344D01*
X682268Y108457D01*
X684574Y110226D01*
X686060Y112163D01*
X686608Y112177D01*
X691060Y109118D01*
Y107060D01*
X713140D01*
Y114491D01*
X719460D01*
Y109460D01*
X738540D01*
Y122460D01*
X738540Y126540D01*
X738971Y131361D01*
X750000D01*
X751966Y131752D01*
X753634Y132866D01*
X756628Y135861D01*
X845728D01*
X846587Y134101D01*
X844094Y129010D01*
X843657Y128706D01*
X841332Y127743D01*
X839026Y125974D01*
X837257Y123668D01*
X836144Y120982D01*
X835765Y118100D01*
X836144Y115218D01*
X837257Y112532D01*
X839026Y110226D01*
X841332Y108457D01*
X844018Y107344D01*
X846900Y106965D01*
X849782Y107344D01*
X852468Y108457D01*
X854774Y110226D01*
X856543Y112532D01*
X856925Y113453D01*
X862275D01*
X862657Y112532D01*
X864426Y110226D01*
X866732Y108457D01*
X869418Y107344D01*
X872300Y106965D01*
X875182Y107344D01*
X877868Y108457D01*
X880174Y110226D01*
X881943Y112532D01*
X882325Y113453D01*
X887675D01*
X888057Y112532D01*
X889826Y110226D01*
X892132Y108457D01*
X894818Y107344D01*
X897700Y106965D01*
X900582Y107344D01*
X903268Y108457D01*
X905574Y110226D01*
X907060Y112163D01*
X907608Y112177D01*
X912060Y109118D01*
Y107060D01*
X934140D01*
Y114491D01*
X942460D01*
Y109460D01*
X961540D01*
Y122460D01*
X961540Y126540D01*
X961971Y131361D01*
X975000D01*
X976966Y131752D01*
X978634Y132866D01*
X980629Y134861D01*
X1100245D01*
X1100589Y134101D01*
X1098140Y129104D01*
X1097560Y128666D01*
X1095332Y127743D01*
X1093026Y125974D01*
X1091257Y123668D01*
X1090144Y120982D01*
X1089765Y118100D01*
X1090144Y115218D01*
X1091257Y112532D01*
X1093026Y110226D01*
X1095332Y108457D01*
X1098018Y107344D01*
X1100900Y106965D01*
X1103782Y107344D01*
X1106468Y108457D01*
X1108774Y110226D01*
X1110543Y112532D01*
X1110925Y113453D01*
X1116275D01*
X1116657Y112532D01*
X1118426Y110226D01*
X1120732Y108457D01*
X1123418Y107344D01*
X1126300Y106965D01*
X1129182Y107344D01*
X1131868Y108457D01*
X1134174Y110226D01*
X1135943Y112532D01*
X1136325Y113453D01*
X1141675D01*
X1142057Y112532D01*
X1143826Y110226D01*
X1146132Y108457D01*
X1148818Y107344D01*
X1151700Y106965D01*
X1154582Y107344D01*
X1157268Y108457D01*
X1159574Y110226D01*
X1161060Y112163D01*
X1161608Y112177D01*
X1166060Y109118D01*
Y107060D01*
X1188140D01*
Y113891D01*
X1195460D01*
Y109460D01*
X1214540D01*
Y122460D01*
X1214540Y126540D01*
X1214971Y131361D01*
X1229000D01*
X1230966Y131752D01*
X1232634Y132866D01*
X1235629Y135861D01*
X1319728D01*
X1320587Y134101D01*
X1318094Y129010D01*
X1317657Y128706D01*
X1315332Y127743D01*
X1313026Y125974D01*
X1311257Y123668D01*
X1310144Y120982D01*
X1309765Y118100D01*
X1310144Y115218D01*
X1311257Y112532D01*
X1313026Y110226D01*
X1315332Y108457D01*
X1318018Y107344D01*
X1320900Y106965D01*
X1323782Y107344D01*
X1326468Y108457D01*
X1328774Y110226D01*
X1330543Y112532D01*
X1330925Y113453D01*
X1336275D01*
X1336657Y112532D01*
X1338426Y110226D01*
X1340732Y108457D01*
X1343418Y107344D01*
X1346300Y106965D01*
X1349182Y107344D01*
X1351868Y108457D01*
X1354174Y110226D01*
X1355943Y112532D01*
X1356325Y113453D01*
X1361675D01*
X1362057Y112532D01*
X1363826Y110226D01*
X1366132Y108457D01*
X1368818Y107344D01*
X1371700Y106965D01*
X1374582Y107344D01*
X1377268Y108457D01*
X1379574Y110226D01*
X1381060Y112163D01*
X1381608Y112177D01*
X1386060Y109118D01*
Y107060D01*
X1408140D01*
Y114491D01*
X1414460D01*
Y109460D01*
X1433540D01*
Y122460D01*
X1433540Y126540D01*
X1433971Y131361D01*
X1447500D01*
X1449467Y131752D01*
X1451134Y132866D01*
X1454129Y135861D01*
X1570728D01*
X1571587Y134101D01*
X1569094Y129010D01*
X1568657Y128706D01*
X1566332Y127743D01*
X1564026Y125974D01*
X1562257Y123668D01*
X1561144Y120982D01*
X1560765Y118100D01*
X1561144Y115218D01*
X1562257Y112532D01*
X1564026Y110226D01*
X1566332Y108457D01*
X1569018Y107344D01*
X1571900Y106965D01*
X1574782Y107344D01*
X1577468Y108457D01*
X1579774Y110226D01*
X1581543Y112532D01*
X1581925Y113453D01*
X1587275D01*
X1587657Y112532D01*
X1589426Y110226D01*
X1591732Y108457D01*
X1594418Y107344D01*
X1597300Y106965D01*
X1600182Y107344D01*
X1602868Y108457D01*
X1605174Y110226D01*
X1606943Y112532D01*
X1607325Y113453D01*
X1612675D01*
X1613057Y112532D01*
X1614826Y110226D01*
X1617132Y108457D01*
X1619818Y107344D01*
X1622700Y106965D01*
X1625582Y107344D01*
X1628268Y108457D01*
X1630574Y110226D01*
X1632060Y112163D01*
X1632608Y112177D01*
X1637060Y109118D01*
Y107060D01*
X1659140D01*
Y116391D01*
X1665460D01*
Y112460D01*
X1684540D01*
Y125460D01*
X1684540Y129540D01*
X1686178Y133861D01*
X1693500D01*
X1695467Y134253D01*
X1697134Y135366D01*
X1762227Y200460D01*
X1771540Y200460D01*
X1778891Y200460D01*
Y194140D01*
X1769860D01*
Y172060D01*
X1771918D01*
X1774977Y167608D01*
X1774963Y167060D01*
X1773026Y165574D01*
X1771257Y163268D01*
X1770144Y160582D01*
X1769765Y157700D01*
X1770144Y154818D01*
X1771257Y152132D01*
X1773026Y149826D01*
X1775332Y148057D01*
X1776253Y147675D01*
Y142325D01*
X1775332Y141943D01*
X1773026Y140174D01*
X1771257Y137868D01*
X1770144Y135182D01*
X1769765Y132300D01*
X1770144Y129418D01*
X1771257Y126732D01*
X1773026Y124426D01*
X1775332Y122657D01*
X1776253Y122275D01*
Y116925D01*
X1775332Y116543D01*
X1773026Y114774D01*
X1771257Y112468D01*
X1770144Y109782D01*
X1769765Y106900D01*
X1770144Y104018D01*
X1771257Y101332D01*
X1773026Y99026D01*
X1775332Y97257D01*
X1778018Y96144D01*
X1780900Y95765D01*
X1783782Y96144D01*
X1786468Y97257D01*
X1788774Y99026D01*
X1790543Y101332D01*
X1791656Y104018D01*
X1792035Y106900D01*
X1791656Y109782D01*
X1790543Y112468D01*
X1788774Y114774D01*
X1786468Y116543D01*
X1785547Y116925D01*
Y122275D01*
X1786468Y122657D01*
X1788774Y124426D01*
X1790543Y126732D01*
X1791656Y129418D01*
X1792035Y132300D01*
X1791656Y135182D01*
X1790543Y137868D01*
X1788774Y140174D01*
X1786468Y141943D01*
X1785547Y142325D01*
Y147675D01*
X1786468Y148057D01*
X1788774Y149826D01*
X1790543Y152132D01*
X1791656Y154818D01*
X1792035Y157700D01*
X1791656Y160582D01*
X1790543Y163268D01*
X1788774Y165574D01*
X1786837Y167060D01*
X1786823Y167608D01*
X1789882Y172060D01*
X1791940D01*
Y194140D01*
X1786109D01*
Y200460D01*
X1789540D01*
Y219540D01*
X1776540D01*
X1772460Y219540D01*
X1768639Y222386D01*
Y326500D01*
X1768248Y328466D01*
X1767134Y330134D01*
X1722183Y375084D01*
X1725015Y379323D01*
X1729151Y377610D01*
X1734508Y376324D01*
X1740000Y375892D01*
X1745492Y376324D01*
X1750849Y377610D01*
X1755939Y379718D01*
X1760636Y382597D01*
X1764825Y386175D01*
X1768403Y390364D01*
X1771282Y395061D01*
X1773390Y400151D01*
X1774676Y405508D01*
X1775108Y411000D01*
X1774676Y416492D01*
X1773390Y421849D01*
X1771282Y426939D01*
X1768403Y431636D01*
X1764825Y435825D01*
X1760636Y439403D01*
X1755939Y442282D01*
X1750849Y444390D01*
X1745492Y445676D01*
X1740000Y446108D01*
X1734508Y445676D01*
X1729151Y444390D01*
X1724061Y442282D01*
X1719364Y439403D01*
X1715175Y435825D01*
X1711597Y431636D01*
X1708718Y426939D01*
X1706610Y421849D01*
X1705324Y416492D01*
X1704892Y411000D01*
X1705324Y405508D01*
X1706610Y400151D01*
X1708323Y396015D01*
X1704084Y393183D01*
X1341110Y756157D01*
X1340769Y758752D01*
X1339707Y761316D01*
X1338017Y763517D01*
X1335815Y765207D01*
X1333251Y766269D01*
X1330500Y766631D01*
X1327749Y766269D01*
X1325184Y765207D01*
X1322983Y763517D01*
X1322056Y762310D01*
X1318129Y762166D01*
X1316525Y762597D01*
X1314429Y765329D01*
X1311696Y767425D01*
X1308515Y768743D01*
X1308275Y768775D01*
Y756000D01*
Y743225D01*
X1308515Y743257D01*
X1311696Y744575D01*
X1314429Y746671D01*
X1316525Y749404D01*
X1318129Y749834D01*
X1322056Y749690D01*
X1322983Y748483D01*
X1325184Y746793D01*
X1327749Y745731D01*
X1330500Y745369D01*
X1333251Y745731D01*
X1335815Y746793D01*
X1335886Y746847D01*
X1758361Y324371D01*
Y219540D01*
X1754460D01*
Y207227D01*
X1691371Y144139D01*
X1684540D01*
Y147540D01*
X1665460D01*
Y146139D01*
X1646179D01*
X1644540Y150460D01*
X1644540Y154540D01*
Y167540D01*
X1644540D01*
X1642991Y171898D01*
X1642822Y172540D01*
X1644080Y174180D01*
X1645243Y176987D01*
X1645640Y180000D01*
X1645243Y183013D01*
X1644080Y185820D01*
X1642230Y188230D01*
X1639820Y190080D01*
X1637013Y191243D01*
X1634000Y191639D01*
X1630988Y191243D01*
X1628180Y190080D01*
X1626129Y188506D01*
X1625340Y188277D01*
X1619951Y188857D01*
X1619042Y190042D01*
X1616101Y192299D01*
X1612676Y193718D01*
X1612175Y193783D01*
Y180000D01*
Y166217D01*
X1612676Y166282D01*
X1616101Y167701D01*
X1619042Y169958D01*
X1622419Y169486D01*
X1624171Y169042D01*
X1625460Y166707D01*
Y154540D01*
X1625460Y150460D01*
X1623821Y146139D01*
X1596179D01*
X1594540Y150460D01*
X1594540Y154540D01*
Y166492D01*
X1594913Y167016D01*
X1595452Y167408D01*
X1600667Y168647D01*
X1601899Y167701D01*
X1605324Y166282D01*
X1605825Y166217D01*
Y180000D01*
Y193783D01*
X1605324Y193718D01*
X1601899Y192299D01*
X1598958Y190042D01*
X1598049Y188857D01*
X1592660Y188277D01*
X1591871Y188506D01*
X1589820Y190080D01*
X1587012Y191243D01*
X1584000Y191639D01*
X1580988Y191243D01*
X1578180Y190080D01*
X1575770Y188230D01*
X1573920Y185820D01*
X1572757Y183013D01*
X1572361Y180000D01*
X1572757Y176987D01*
X1573920Y174180D01*
X1575246Y172451D01*
X1575460Y167540D01*
X1575460Y167540D01*
Y154540D01*
X1575460Y150460D01*
X1573821Y146139D01*
X1452000D01*
X1450034Y145748D01*
X1448366Y144634D01*
X1445372Y141639D01*
X1433540D01*
Y144540D01*
X1414460D01*
Y141639D01*
X1406129D01*
X1403134Y144634D01*
X1401467Y145748D01*
X1399500Y146139D01*
X1395179D01*
X1393540Y150460D01*
X1393540Y154540D01*
Y167540D01*
X1393540D01*
X1392822Y172540D01*
X1394080Y174180D01*
X1395243Y176987D01*
X1395640Y180000D01*
X1395243Y183013D01*
X1394080Y185820D01*
X1392230Y188230D01*
X1389820Y190080D01*
X1387012Y191243D01*
X1384000Y191639D01*
X1380988Y191243D01*
X1378180Y190080D01*
X1376129Y188506D01*
X1375340Y188277D01*
X1369951Y188857D01*
X1369042Y190042D01*
X1366101Y192299D01*
X1362676Y193718D01*
X1362175Y193783D01*
Y180000D01*
Y166217D01*
X1362676Y166282D01*
X1366101Y167701D01*
X1367913Y169092D01*
X1372352Y168430D01*
X1373696Y167810D01*
X1374460Y166600D01*
Y154540D01*
X1374460Y150460D01*
X1372821Y146139D01*
X1345179D01*
X1343540Y150460D01*
X1343540Y154540D01*
Y166600D01*
X1344304Y167810D01*
X1345648Y168430D01*
X1350087Y169092D01*
X1351899Y167701D01*
X1355324Y166282D01*
X1355825Y166217D01*
Y180000D01*
Y193783D01*
X1355324Y193718D01*
X1351899Y192299D01*
X1348958Y190042D01*
X1348049Y188857D01*
X1342660Y188277D01*
X1341871Y188506D01*
X1339820Y190080D01*
X1337012Y191243D01*
X1334000Y191639D01*
X1330988Y191243D01*
X1328180Y190080D01*
X1325770Y188230D01*
X1323920Y185820D01*
X1322757Y183013D01*
X1322360Y180000D01*
X1322757Y176987D01*
X1323920Y174180D01*
X1325179Y172540D01*
X1324460Y167540D01*
X1324460Y167540D01*
Y154540D01*
X1324460Y150460D01*
X1322821Y146139D01*
X1233500D01*
X1231534Y145748D01*
X1229866Y144634D01*
X1226871Y141639D01*
X1214540D01*
Y144540D01*
X1195460D01*
Y143889D01*
X1174540D01*
X1174540Y149540D01*
X1174540Y154540D01*
Y167540D01*
X1174540D01*
X1172991Y171898D01*
X1172822Y172540D01*
X1174080Y174180D01*
X1175243Y176987D01*
X1175640Y180000D01*
X1175243Y183013D01*
X1174080Y185820D01*
X1172230Y188230D01*
X1169820Y190080D01*
X1167013Y191243D01*
X1164000Y191639D01*
X1160987Y191243D01*
X1158180Y190080D01*
X1156129Y188506D01*
X1155340Y188277D01*
X1149951Y188857D01*
X1149042Y190042D01*
X1146101Y192299D01*
X1142676Y193718D01*
X1142175Y193783D01*
Y180000D01*
Y166217D01*
X1142676Y166282D01*
X1146101Y167701D01*
X1149042Y169958D01*
X1152419Y169486D01*
X1154171Y169042D01*
X1155460Y166707D01*
Y154540D01*
X1155460Y150460D01*
X1153821Y146139D01*
X1126179D01*
X1124540Y150460D01*
X1124540Y154540D01*
Y166492D01*
X1124913Y167016D01*
X1125452Y167408D01*
X1130667Y168647D01*
X1131899Y167701D01*
X1135324Y166282D01*
X1135825Y166217D01*
Y180000D01*
Y193783D01*
X1135324Y193718D01*
X1131899Y192299D01*
X1128958Y190042D01*
X1128049Y188857D01*
X1122660Y188277D01*
X1121871Y188506D01*
X1119820Y190080D01*
X1117012Y191243D01*
X1114000Y191639D01*
X1110987Y191243D01*
X1108180Y190080D01*
X1105770Y188230D01*
X1103920Y185820D01*
X1102757Y183013D01*
X1102361Y180000D01*
X1102757Y176987D01*
X1103920Y174180D01*
X1105246Y172451D01*
X1105460Y167540D01*
X1105460Y167540D01*
Y154540D01*
X1105460Y150460D01*
X1105460Y145139D01*
X978500D01*
X976534Y144748D01*
X974866Y143634D01*
X972871Y141639D01*
X961540D01*
Y144540D01*
X942460D01*
Y141639D01*
X931129D01*
X928134Y144634D01*
X926467Y145748D01*
X924500Y146139D01*
X921179D01*
X919540Y150460D01*
X919540Y154540D01*
Y167540D01*
X919540D01*
X917991Y171898D01*
X917822Y172540D01*
X919080Y174180D01*
X920243Y176987D01*
X920640Y180000D01*
X920243Y183013D01*
X919080Y185820D01*
X917230Y188230D01*
X914820Y190080D01*
X912013Y191243D01*
X909000Y191639D01*
X905987Y191243D01*
X903180Y190080D01*
X901129Y188506D01*
X900340Y188277D01*
X894951Y188857D01*
X894042Y190042D01*
X891101Y192299D01*
X887676Y193718D01*
X887175Y193783D01*
Y180000D01*
Y166217D01*
X887676Y166282D01*
X891101Y167701D01*
X894042Y169958D01*
X897419Y169486D01*
X899171Y169042D01*
X900460Y166707D01*
Y154540D01*
X900460Y150460D01*
X898821Y146139D01*
X871179D01*
X869540Y150460D01*
X869540Y154540D01*
Y166492D01*
X869913Y167016D01*
X870452Y167408D01*
X875667Y168647D01*
X876899Y167701D01*
X880324Y166282D01*
X880825Y166217D01*
Y180000D01*
Y193783D01*
X880324Y193718D01*
X876899Y192299D01*
X873958Y190042D01*
X873049Y188857D01*
X867660Y188277D01*
X866871Y188506D01*
X864820Y190080D01*
X862013Y191243D01*
X859000Y191639D01*
X855987Y191243D01*
X853180Y190080D01*
X850770Y188230D01*
X848920Y185820D01*
X847757Y183013D01*
X847361Y180000D01*
X847757Y176987D01*
X848920Y174180D01*
X850246Y172451D01*
X850460Y167540D01*
X850460Y167540D01*
Y154540D01*
X850460Y150460D01*
X848821Y146139D01*
X754500D01*
X752533Y145748D01*
X750866Y144634D01*
X747871Y141639D01*
X738540D01*
Y144540D01*
X719460D01*
X716966Y145748D01*
X715000Y146139D01*
X700179D01*
X698540Y150460D01*
X698540Y154540D01*
Y167540D01*
X698540D01*
X697822Y172540D01*
X699080Y174180D01*
X700243Y176987D01*
X700639Y180000D01*
X700243Y183013D01*
X699080Y185820D01*
X697230Y188230D01*
X694820Y190080D01*
X692012Y191243D01*
X689000Y191639D01*
X685987Y191243D01*
X683180Y190080D01*
X681129Y188506D01*
X680340Y188277D01*
X674951Y188857D01*
X674042Y190042D01*
X671101Y192299D01*
X667676Y193718D01*
X667175Y193783D01*
Y180000D01*
Y166217D01*
X667676Y166282D01*
X671101Y167701D01*
X672913Y169092D01*
X677352Y168430D01*
X678696Y167810D01*
X679460Y166600D01*
Y154540D01*
X679460Y150460D01*
X677822Y146139D01*
X650179D01*
X648540Y150460D01*
X648540Y154540D01*
Y166600D01*
X649304Y167810D01*
X650648Y168430D01*
X655087Y169092D01*
X656899Y167701D01*
X660324Y166282D01*
X660825Y166217D01*
Y180000D01*
Y193783D01*
X660324Y193718D01*
X656899Y192299D01*
X653958Y190042D01*
X653049Y188857D01*
X647660Y188277D01*
X646871Y188506D01*
X644820Y190080D01*
X642012Y191243D01*
X639000Y191639D01*
X635988Y191243D01*
X633180Y190080D01*
X630770Y188230D01*
X628920Y185820D01*
X627757Y183013D01*
X627360Y180000D01*
X627757Y176987D01*
X628920Y174180D01*
X630178Y172540D01*
X629460Y167540D01*
X629460Y167540D01*
Y154540D01*
X629460Y150460D01*
X628207Y147156D01*
X623187Y146581D01*
X615139Y154628D01*
Y202871D01*
X629265Y216998D01*
X630000Y216852D01*
X632162Y217281D01*
X632281Y217361D01*
X847719D01*
X847838Y217281D01*
X850000Y216852D01*
X852162Y217281D01*
X852281Y217361D01*
X1102719D01*
X1102838Y217281D01*
X1105000Y216852D01*
X1107162Y217281D01*
X1107281Y217361D01*
X1322719D01*
X1322838Y217281D01*
X1325000Y216852D01*
X1327162Y217281D01*
X1327281Y217361D01*
X1572719D01*
X1572838Y217281D01*
X1575000Y216852D01*
X1577162Y217281D01*
X1578994Y218506D01*
X1580219Y220338D01*
X1580648Y222500D01*
X1580219Y224662D01*
X1578994Y226494D01*
X1577162Y227719D01*
X1575000Y228148D01*
X1572838Y227719D01*
X1572719Y227639D01*
X1327281D01*
X1327162Y227719D01*
X1325000Y228148D01*
X1322838Y227719D01*
X1322719Y227639D01*
X1107281D01*
X1107162Y227719D01*
X1105000Y228148D01*
X1102838Y227719D01*
X1102719Y227639D01*
X852281D01*
X852162Y227719D01*
X850000Y228148D01*
X847838Y227719D01*
X847719Y227639D01*
X632281D01*
X632162Y227719D01*
X630000Y228148D01*
X627838Y227719D01*
X627719Y227639D01*
X627500D01*
X625533Y227248D01*
X623866Y226134D01*
X614619Y216887D01*
X610000Y218800D01*
Y234460D01*
X616540D01*
Y275540D01*
X610000D01*
X610000Y818165D01*
X615000Y820631D01*
X615251Y820438D01*
X618555Y819070D01*
X618925Y819021D01*
Y832300D01*
X625275D01*
Y819021D01*
X625645Y819070D01*
X628949Y820438D01*
X631785Y822615D01*
X633373Y824683D01*
X634023Y824980D01*
X636293Y825250D01*
X639187Y824999D01*
X639626Y824426D01*
X641932Y822657D01*
X644618Y821544D01*
X647500Y821165D01*
X650382Y821544D01*
X653068Y822657D01*
X655374Y824426D01*
X657143Y826732D01*
X657525Y827653D01*
X662875D01*
X663257Y826732D01*
X665026Y824426D01*
X667332Y822657D01*
X670018Y821544D01*
X672900Y821165D01*
X675782Y821544D01*
X678468Y822657D01*
X680774Y824426D01*
X682543Y826732D01*
X682925Y827653D01*
X688275D01*
X688657Y826732D01*
X690426Y824426D01*
X692732Y822657D01*
X695418Y821544D01*
X698300Y821165D01*
X701182Y821544D01*
X703868Y822657D01*
X706174Y824426D01*
X707943Y826732D01*
X708325Y827653D01*
X713675D01*
X714057Y826732D01*
X715826Y824426D01*
X718132Y822657D01*
X720818Y821544D01*
X723700Y821165D01*
X726582Y821544D01*
X729268Y822657D01*
X731574Y824426D01*
X733343Y826732D01*
X733725Y827653D01*
X739075D01*
X739457Y826732D01*
X741226Y824426D01*
X743532Y822657D01*
X746218Y821544D01*
X749100Y821165D01*
X751982Y821544D01*
X754668Y822657D01*
X756974Y824426D01*
X758743Y826732D01*
X759125Y827653D01*
X764475D01*
X764857Y826732D01*
X766626Y824426D01*
X768932Y822657D01*
X771618Y821544D01*
X774500Y821165D01*
X777382Y821544D01*
X780068Y822657D01*
X782374Y824426D01*
X784143Y826732D01*
X784525Y827653D01*
X789875D01*
X790257Y826732D01*
X792026Y824426D01*
X794332Y822657D01*
X797018Y821544D01*
X799900Y821165D01*
X802782Y821544D01*
X805468Y822657D01*
X807774Y824426D01*
X809543Y826732D01*
X809925Y827653D01*
X815275D01*
X815657Y826732D01*
X817426Y824426D01*
X819732Y822657D01*
X822418Y821544D01*
X825300Y821165D01*
X828182Y821544D01*
X830868Y822657D01*
X833174Y824426D01*
X834943Y826732D01*
X835325Y827653D01*
X840675D01*
X841057Y826732D01*
X842826Y824426D01*
X845132Y822657D01*
X847818Y821544D01*
X850700Y821165D01*
X853582Y821544D01*
X856268Y822657D01*
X858574Y824426D01*
X860343Y826732D01*
X860725Y827653D01*
X866075D01*
X866457Y826732D01*
X868226Y824426D01*
X870532Y822657D01*
X873218Y821544D01*
X876100Y821165D01*
X878982Y821544D01*
X881668Y822657D01*
X883974Y824426D01*
X885743Y826732D01*
X886125Y827653D01*
X891475D01*
X891857Y826732D01*
X893626Y824426D01*
X895932Y822657D01*
X898618Y821544D01*
X901500Y821165D01*
X904382Y821544D01*
X907068Y822657D01*
X909374Y824426D01*
X911143Y826732D01*
X911525Y827653D01*
X916875D01*
X917257Y826732D01*
X919026Y824426D01*
X921332Y822657D01*
X924018Y821544D01*
X926900Y821165D01*
X929782Y821544D01*
X932468Y822657D01*
X934774Y824426D01*
X936543Y826732D01*
X936925Y827653D01*
X942275D01*
X942657Y826732D01*
X944426Y824426D01*
X946732Y822657D01*
X949418Y821544D01*
X952300Y821165D01*
X955182Y821544D01*
X957868Y822657D01*
X960174Y824426D01*
X961943Y826732D01*
X962325Y827653D01*
X967675D01*
X968057Y826732D01*
X969826Y824426D01*
X972132Y822657D01*
X973979Y821891D01*
X975373Y819080D01*
X975988Y816347D01*
X974627Y814609D01*
X831000D01*
X829619Y814335D01*
X828448Y813552D01*
X701421Y686526D01*
X701268Y686643D01*
X698582Y687756D01*
X695700Y688135D01*
X692818Y687756D01*
X690132Y686643D01*
X687826Y684874D01*
X686057Y682568D01*
X685675Y681647D01*
X680325D01*
X679943Y682568D01*
X678174Y684874D01*
X675868Y686643D01*
X673182Y687756D01*
X670300Y688135D01*
X667418Y687756D01*
X664732Y686643D01*
X662426Y684874D01*
X660657Y682568D01*
X660275Y681647D01*
X654925D01*
X654543Y682568D01*
X652774Y684874D01*
X650468Y686643D01*
X647782Y687756D01*
X644900Y688135D01*
X642018Y687756D01*
X639332Y686643D01*
X637026Y684874D01*
X635257Y682568D01*
X634144Y679882D01*
X633765Y677000D01*
X634144Y674118D01*
X635257Y671432D01*
X637026Y669126D01*
X638963Y667640D01*
X638977Y667092D01*
X635918Y662640D01*
X633860D01*
Y640560D01*
X655940D01*
Y642618D01*
X660392Y645677D01*
X660940Y645663D01*
X662426Y643726D01*
X664732Y641957D01*
X667418Y640844D01*
X670300Y640465D01*
X673182Y640844D01*
X675868Y641957D01*
X678174Y643726D01*
X679943Y646032D01*
X680325Y646953D01*
X685675D01*
X686057Y646032D01*
X687826Y643726D01*
X690132Y641957D01*
X692818Y640844D01*
X695700Y640465D01*
X698582Y640844D01*
X701268Y641957D01*
X703574Y643726D01*
X705343Y646032D01*
X705725Y646953D01*
X711075D01*
X711457Y646032D01*
X713226Y643726D01*
X715532Y641957D01*
X718218Y640844D01*
X721100Y640465D01*
X723982Y640844D01*
X726668Y641957D01*
X728974Y643726D01*
X730743Y646032D01*
X731125Y646953D01*
X736475D01*
X736857Y646032D01*
X738626Y643726D01*
X740932Y641957D01*
X743618Y640844D01*
X746500Y640465D01*
X749382Y640844D01*
X752068Y641957D01*
X754374Y643726D01*
X756143Y646032D01*
X756525Y646953D01*
X761875D01*
X762257Y646032D01*
X764026Y643726D01*
X766332Y641957D01*
X769018Y640844D01*
X771900Y640465D01*
X774782Y640844D01*
X777468Y641957D01*
X779774Y643726D01*
X781543Y646032D01*
X781925Y646953D01*
X787275D01*
X787657Y646032D01*
X789426Y643726D01*
X791732Y641957D01*
X794418Y640844D01*
X797300Y640465D01*
X800182Y640844D01*
X802868Y641957D01*
X805174Y643726D01*
X806943Y646032D01*
X807325Y646953D01*
X812675D01*
X813057Y646032D01*
X814826Y643726D01*
X817132Y641957D01*
X819818Y640844D01*
X822700Y640465D01*
X825582Y640844D01*
X828268Y641957D01*
X830574Y643726D01*
X832343Y646032D01*
X832725Y646953D01*
X838075D01*
X838457Y646032D01*
X840226Y643726D01*
X842532Y641957D01*
X845218Y640844D01*
X848100Y640465D01*
X850982Y640844D01*
X852391Y641428D01*
X856036Y639765D01*
X857391Y638511D01*
Y528826D01*
X785524Y456960D01*
X779774Y456274D01*
X777468Y458043D01*
X774782Y459156D01*
X771900Y459535D01*
X769018Y459156D01*
X766332Y458043D01*
X764026Y456274D01*
X762257Y453968D01*
X761875Y453047D01*
X756525D01*
X756143Y453968D01*
X754374Y456274D01*
X752068Y458043D01*
X749382Y459156D01*
X746500Y459535D01*
X743618Y459156D01*
X740932Y458043D01*
X738626Y456274D01*
X736857Y453968D01*
X736475Y453047D01*
X731125D01*
X730743Y453968D01*
X728974Y456274D01*
X726668Y458043D01*
X723982Y459156D01*
X721100Y459535D01*
X718218Y459156D01*
X715532Y458043D01*
X713226Y456274D01*
X711457Y453968D01*
X711075Y453047D01*
X705725D01*
X705343Y453968D01*
X703574Y456274D01*
X701268Y458043D01*
X698582Y459156D01*
X695700Y459535D01*
X692818Y459156D01*
X690132Y458043D01*
X687826Y456274D01*
X686057Y453968D01*
X685675Y453047D01*
X680325D01*
X679943Y453968D01*
X678174Y456274D01*
X675868Y458043D01*
X673182Y459156D01*
X670300Y459535D01*
X667418Y459156D01*
X664732Y458043D01*
X662426Y456274D01*
X660657Y453968D01*
X660275Y453047D01*
X654925D01*
X654543Y453968D01*
X652774Y456274D01*
X650468Y458043D01*
X647782Y459156D01*
X644900Y459535D01*
X642018Y459156D01*
X639332Y458043D01*
X637026Y456274D01*
X635257Y453968D01*
X634144Y451282D01*
X633765Y448400D01*
X634144Y445518D01*
X635257Y442832D01*
X637026Y440526D01*
X638963Y439040D01*
X638977Y438492D01*
X635918Y434040D01*
X633860D01*
Y411960D01*
X655940D01*
Y414018D01*
X660392Y417077D01*
X660940Y417063D01*
X662426Y415126D01*
X664732Y413357D01*
X667418Y412244D01*
X670300Y411865D01*
X673182Y412244D01*
X675868Y413357D01*
X678174Y415126D01*
X679943Y417432D01*
X680325Y418353D01*
X685675D01*
X686057Y417432D01*
X687826Y415126D01*
X690132Y413357D01*
X692818Y412244D01*
X695700Y411865D01*
X698582Y412244D01*
X701268Y413357D01*
X703574Y415126D01*
X705343Y417432D01*
X705725Y418353D01*
X711075D01*
X711457Y417432D01*
X713226Y415126D01*
X715532Y413357D01*
X718218Y412244D01*
X721100Y411865D01*
X723982Y412244D01*
X726668Y413357D01*
X728974Y415126D01*
X730743Y417432D01*
X731125Y418353D01*
X736475D01*
X736857Y417432D01*
X738626Y415126D01*
X740932Y413357D01*
X743618Y412244D01*
X746500Y411865D01*
X749382Y412244D01*
X752068Y413357D01*
X754374Y415126D01*
X756143Y417432D01*
X756525Y418353D01*
X761875D01*
X762257Y417432D01*
X764026Y415126D01*
X766332Y413357D01*
X769018Y412244D01*
X771900Y411865D01*
X774782Y412244D01*
X776391Y412910D01*
X779712Y411473D01*
X781391Y410065D01*
Y332495D01*
X771454Y322558D01*
X771000Y322649D01*
X768838Y322219D01*
X767006Y320994D01*
X765781Y319162D01*
X765351Y317000D01*
X765781Y314838D01*
X767006Y313006D01*
X768838Y311781D01*
X771000Y311352D01*
X773162Y311781D01*
X773927Y312293D01*
X775007Y313006D01*
X778993D01*
X780073Y312293D01*
X780838Y311781D01*
X783000Y311352D01*
X785162Y311781D01*
X786994Y313006D01*
X788219Y314838D01*
X788649Y317000D01*
X788558Y317454D01*
X813552Y342448D01*
X814335Y343619D01*
X814609Y345000D01*
Y409250D01*
X814703Y409403D01*
X819609Y412331D01*
X819818Y412244D01*
X822700Y411865D01*
X825582Y412244D01*
X828268Y413357D01*
X830574Y415126D01*
X832343Y417432D01*
X832725Y418353D01*
X838075D01*
X838457Y417432D01*
X840226Y415126D01*
X842532Y413357D01*
X845218Y412244D01*
X848100Y411865D01*
X850982Y412244D01*
X853668Y413357D01*
X855974Y415126D01*
X857743Y417432D01*
X858125Y418353D01*
X863475D01*
X863857Y417432D01*
X865626Y415126D01*
X867932Y413357D01*
X870618Y412244D01*
X873500Y411865D01*
X876382Y412244D01*
X877391Y412662D01*
X881524Y410583D01*
X882391Y409604D01*
Y409000D01*
X882665Y407619D01*
X883448Y406448D01*
X946448Y343448D01*
X947619Y342665D01*
X949000Y342391D01*
X1156126D01*
X1157121Y337391D01*
X1156899Y337299D01*
X1153958Y335042D01*
X1151701Y332101D01*
X1150282Y328676D01*
X1150217Y328175D01*
X1177784D01*
X1177718Y328676D01*
X1176299Y332101D01*
X1174042Y335042D01*
X1171101Y337299D01*
X1170879Y337391D01*
X1171874Y342391D01*
X1198505D01*
X1235442Y305454D01*
X1235351Y305000D01*
X1235781Y302838D01*
X1237006Y301006D01*
X1238838Y299781D01*
X1241000Y299352D01*
X1243162Y299781D01*
X1244994Y301006D01*
X1245725Y302100D01*
X1246028Y302249D01*
X1248500Y302555D01*
X1251194Y302221D01*
X1252006Y301006D01*
X1253838Y299781D01*
X1256000Y299352D01*
X1258162Y299781D01*
X1259994Y301006D01*
X1261219Y302838D01*
X1261648Y305000D01*
X1261219Y307162D01*
X1259994Y308994D01*
X1258162Y310219D01*
X1256000Y310648D01*
X1254712Y310392D01*
X1207552Y357552D01*
X1206381Y358335D01*
X1205000Y358609D01*
X969495D01*
X920825Y407279D01*
X923161Y412015D01*
X924300Y411865D01*
X927182Y412244D01*
X929868Y413357D01*
X932174Y415126D01*
X933943Y417432D01*
X934325Y418353D01*
X939675D01*
X940057Y417432D01*
X941826Y415126D01*
X944132Y413357D01*
X946818Y412244D01*
X949700Y411865D01*
X952582Y412244D01*
X955268Y413357D01*
X957574Y415126D01*
X958013Y415699D01*
X960907Y415950D01*
X963177Y415680D01*
X963827Y415383D01*
X965415Y413315D01*
X968251Y411138D01*
X971555Y409770D01*
X971925Y409721D01*
Y423000D01*
X975100D01*
Y426175D01*
X988379D01*
X988330Y426545D01*
X986962Y429849D01*
X984785Y432685D01*
X982717Y434273D01*
X982420Y434923D01*
X982150Y437193D01*
X982401Y440087D01*
X982974Y440526D01*
X984743Y442832D01*
X985856Y445518D01*
X986235Y448400D01*
X985856Y451282D01*
X984743Y453968D01*
X982974Y456274D01*
X980668Y458043D01*
X977982Y459156D01*
X975100Y459535D01*
X972218Y459156D01*
X969532Y458043D01*
X967226Y456274D01*
X965457Y453968D01*
X965075Y453047D01*
X959725D01*
X959343Y453968D01*
X957574Y456274D01*
X955268Y458043D01*
X952582Y459156D01*
X949700Y459535D01*
X946818Y459156D01*
X944132Y458043D01*
X941826Y456274D01*
X940057Y453968D01*
X939675Y453047D01*
X934325D01*
X933943Y453968D01*
X932174Y456274D01*
X929868Y458043D01*
X927182Y459156D01*
X924300Y459535D01*
X921418Y459156D01*
X920365Y458720D01*
X917410Y458521D01*
X914552Y459552D01*
X901609Y472495D01*
Y635820D01*
X902391Y636282D01*
X907391Y633430D01*
Y582000D01*
X907665Y580619D01*
X908448Y579448D01*
X1089448Y398448D01*
X1090619Y397665D01*
X1092000Y397391D01*
X1595505D01*
X1703442Y289454D01*
X1703351Y289000D01*
X1703781Y286838D01*
X1705006Y285006D01*
X1706838Y283781D01*
X1709000Y283351D01*
X1711162Y283781D01*
X1712994Y285006D01*
X1714218Y286838D01*
X1714402Y286996D01*
X1719383Y288877D01*
X1721671Y287396D01*
X1721781Y286838D01*
X1723006Y285006D01*
X1724838Y283781D01*
X1727000Y283351D01*
X1729162Y283781D01*
X1730994Y285006D01*
X1732219Y286838D01*
X1732648Y289000D01*
X1732219Y291162D01*
X1730994Y292994D01*
X1729162Y294219D01*
X1727000Y294648D01*
X1726546Y294558D01*
X1606552Y414552D01*
X1605381Y415335D01*
X1604000Y415609D01*
X1099495D01*
X927909Y587195D01*
Y598567D01*
X928198Y598684D01*
X932909Y599399D01*
X933506Y598506D01*
X935338Y597281D01*
X937500Y596852D01*
X939662Y597281D01*
X941494Y598506D01*
X941751Y598891D01*
X1460749D01*
X1461006Y598506D01*
X1462838Y597281D01*
X1465000Y596852D01*
X1467162Y597281D01*
X1468994Y598506D01*
X1470219Y600338D01*
X1470648Y602500D01*
X1470219Y604662D01*
X1468994Y606494D01*
X1467162Y607719D01*
X1465000Y608148D01*
X1462838Y607719D01*
X1461006Y606494D01*
X1460749Y606109D01*
X941751D01*
X941494Y606494D01*
X939662Y607719D01*
X937500Y608148D01*
X935338Y607719D01*
X933506Y606494D01*
X932909Y605601D01*
X928198Y606316D01*
X927909Y606433D01*
Y641145D01*
X929868Y641957D01*
X932174Y643726D01*
X933943Y646032D01*
X934325Y646953D01*
X939675D01*
X940057Y646032D01*
X941826Y643726D01*
X944132Y641957D01*
X946818Y640844D01*
X949700Y640465D01*
X952582Y640844D01*
X955268Y641957D01*
X957574Y643726D01*
X959343Y646032D01*
X959725Y646953D01*
X965075D01*
X965457Y646032D01*
X967226Y643726D01*
X969532Y641957D01*
X972218Y640844D01*
X975100Y640465D01*
X977982Y640844D01*
X980668Y641957D01*
X982974Y643726D01*
X984743Y646032D01*
X985856Y648718D01*
X986235Y651600D01*
X985856Y654482D01*
X984743Y657168D01*
X982974Y659474D01*
X982401Y659913D01*
X982150Y662807D01*
X982420Y665077D01*
X982717Y665727D01*
X984785Y667315D01*
X986962Y670151D01*
X988330Y673455D01*
X988379Y673825D01*
X975100D01*
Y677000D01*
X971925D01*
Y690279D01*
X971555Y690230D01*
X968251Y688862D01*
X965415Y686685D01*
X963827Y684617D01*
X963177Y684320D01*
X960907Y684050D01*
X958013Y684301D01*
X957574Y684874D01*
X955268Y686643D01*
X952582Y687756D01*
X949700Y688135D01*
X946818Y687756D01*
X944132Y686643D01*
X941826Y684874D01*
X940057Y682568D01*
X939675Y681647D01*
X934325D01*
X933943Y682568D01*
X932174Y684874D01*
X929868Y686643D01*
X927182Y687756D01*
X924300Y688135D01*
X921418Y687756D01*
X918732Y686643D01*
X916426Y684874D01*
X914657Y682568D01*
X914275Y681647D01*
X908925D01*
X908543Y682568D01*
X906774Y684874D01*
X904468Y686643D01*
X901782Y687756D01*
X898900Y688135D01*
X896018Y687756D01*
X893332Y686643D01*
X891026Y684874D01*
X889257Y682568D01*
X888875Y681647D01*
X883525D01*
X883143Y682568D01*
X881374Y684874D01*
X879068Y686643D01*
X876382Y687756D01*
X873500Y688135D01*
X870618Y687756D01*
X867932Y686643D01*
X865626Y684874D01*
X863857Y682568D01*
X863475Y681647D01*
X858125D01*
X857743Y682568D01*
X855974Y684874D01*
X853668Y686643D01*
X850982Y687756D01*
X848100Y688135D01*
X845218Y687756D01*
X842532Y686643D01*
X840226Y684874D01*
X838457Y682568D01*
X838075Y681647D01*
X832725D01*
X832343Y682568D01*
X830574Y684874D01*
X828268Y686643D01*
X825582Y687756D01*
X822700Y688135D01*
X819818Y687756D01*
X817132Y686643D01*
X814826Y684874D01*
X813057Y682568D01*
X812675Y681647D01*
X807325D01*
X806943Y682568D01*
X805174Y684874D01*
X802868Y686643D01*
X800182Y687756D01*
X797300Y688135D01*
X794418Y687756D01*
X791732Y686643D01*
X789426Y684874D01*
X787657Y682568D01*
X787275Y681647D01*
X781925D01*
X781543Y682568D01*
X779774Y684874D01*
X777468Y686643D01*
X774782Y687756D01*
X771900Y688135D01*
X769018Y687756D01*
X764342Y690437D01*
X764164Y691140D01*
X764441Y694337D01*
X852495Y782391D01*
X1012000D01*
X1013381Y782665D01*
X1014552Y783448D01*
X1045682Y814578D01*
X1046465Y815749D01*
X1046739Y817130D01*
Y817905D01*
X1050304Y820937D01*
X1051739Y821449D01*
X1053900Y821165D01*
X1056782Y821544D01*
X1059468Y822657D01*
X1061774Y824426D01*
X1062213Y824999D01*
X1065107Y825250D01*
X1067377Y824980D01*
X1068027Y824683D01*
X1069615Y822615D01*
X1072451Y820438D01*
X1075755Y819070D01*
X1076125Y819021D01*
Y832300D01*
X1082475D01*
Y819021D01*
X1082845Y819070D01*
X1083861Y819491D01*
X1088861Y816618D01*
Y741128D01*
X1020979Y673247D01*
X1020838Y673219D01*
X1019006Y671994D01*
X1017782Y670162D01*
X1017352Y668000D01*
X1017782Y665838D01*
X1019006Y664006D01*
X1020838Y662782D01*
X1023000Y662352D01*
X1025162Y662782D01*
X1026994Y664006D01*
X1028219Y665838D01*
X1028247Y665979D01*
X1097634Y735366D01*
X1098748Y737033D01*
X1099139Y739000D01*
Y791843D01*
X1103758Y793757D01*
X1111892Y785622D01*
X1113467Y784414D01*
X1114227Y784099D01*
X1115302Y783654D01*
X1117270Y783395D01*
X1253850D01*
X1271355Y765890D01*
Y762438D01*
X1270493Y761316D01*
X1269431Y758752D01*
X1269069Y756000D01*
X1269431Y753249D01*
X1270493Y750685D01*
X1272183Y748483D01*
X1274385Y746793D01*
X1276948Y745731D01*
X1279700Y745369D01*
X1282451Y745731D01*
X1285016Y746793D01*
X1287217Y748483D01*
X1288144Y749690D01*
X1292072Y749834D01*
X1293675Y749404D01*
X1295771Y746671D01*
X1298504Y744575D01*
X1301685Y743257D01*
X1301925Y743225D01*
Y756000D01*
Y768775D01*
X1301685Y768743D01*
X1298504Y767425D01*
X1295771Y765329D01*
X1293675Y762597D01*
X1292072Y762166D01*
X1288144Y762310D01*
X1287217Y763517D01*
X1286565Y764018D01*
Y769040D01*
X1286306Y771009D01*
X1285546Y772843D01*
X1284337Y774418D01*
X1262378Y796378D01*
X1260803Y797586D01*
X1258968Y798346D01*
X1257000Y798605D01*
X1120420D01*
X1111664Y807361D01*
X1111747Y812361D01*
X1341250D01*
X1343217Y812752D01*
X1344884Y813866D01*
X1345998Y815534D01*
X1346389Y817500D01*
Y867500D01*
X1345998Y869466D01*
X1344884Y871134D01*
X1343217Y872248D01*
X1341250Y872639D01*
X1111605D01*
Y1057000D01*
X1111346Y1058968D01*
X1110901Y1060043D01*
X1110586Y1060803D01*
X1109378Y1062378D01*
X835378Y1336378D01*
X833802Y1337586D01*
X831968Y1338346D01*
X830000Y1338605D01*
X565150D01*
X544878Y1358878D01*
X543303Y1360086D01*
X541469Y1360846D01*
X539500Y1361105D01*
X520638D01*
Y1366800D01*
X520251Y1368747D01*
X519148Y1370398D01*
X517497Y1371501D01*
X515550Y1371888D01*
X494950D01*
X493003Y1371501D01*
X491353Y1370398D01*
X490250Y1368747D01*
X489862Y1366800D01*
Y1365638D01*
X486000Y1361649D01*
X483838Y1361219D01*
X482006Y1359994D01*
X480781Y1358162D01*
X480351Y1356000D01*
X480781Y1353838D01*
X482006Y1352006D01*
X483838Y1350781D01*
X486000Y1350352D01*
X487761Y1348915D01*
X490001Y1346470D01*
X490014Y1346440D01*
X490250Y1345253D01*
X491353Y1343602D01*
X493003Y1342500D01*
X494950Y1342112D01*
X514637D01*
X514753Y1341533D01*
X515866Y1339866D01*
X524861Y1330871D01*
Y1248129D01*
X478773Y1202040D01*
X465080D01*
Y1204580D01*
X453350D01*
X450678Y1209580D01*
X451553Y1210891D01*
X469999D01*
X470256Y1210506D01*
X472088Y1209281D01*
X474250Y1208851D01*
X476412Y1209281D01*
X478244Y1210506D01*
X479469Y1212338D01*
X479898Y1214500D01*
X479469Y1216662D01*
X478244Y1218494D01*
X476412Y1219719D01*
X474250Y1220148D01*
X472088Y1219719D01*
X470256Y1218494D01*
X469999Y1218109D01*
X465152D01*
X461540Y1221460D01*
Y1228391D01*
X487001D01*
X488383Y1228665D01*
X489554Y1229448D01*
X491713Y1231607D01*
X493000Y1231351D01*
X495162Y1231781D01*
X496994Y1233006D01*
X498219Y1234838D01*
X498648Y1237000D01*
X498219Y1239162D01*
X496994Y1240994D01*
X495162Y1242218D01*
X493000Y1242648D01*
X490838Y1242218D01*
X489006Y1240994D01*
X487781Y1239162D01*
X487464Y1237567D01*
X485506Y1235609D01*
X461540D01*
Y1240460D01*
Y1259540D01*
X446080D01*
Y1262080D01*
X438175D01*
Y1250000D01*
X435000D01*
Y1246825D01*
X423920D01*
Y1237920D01*
X426460D01*
Y1221460D01*
X429391D01*
Y1194000D01*
X429665Y1192619D01*
X430448Y1191448D01*
X431443Y1190452D01*
X431642Y1188521D01*
X430253Y1186823D01*
X424223Y1186544D01*
X342139Y1268628D01*
Y1342329D01*
X342997Y1342500D01*
X344648Y1343602D01*
X345751Y1345253D01*
X346138Y1347200D01*
Y1354870D01*
X371129Y1379861D01*
X543000D01*
X544967Y1380252D01*
X546634Y1381366D01*
X572634Y1407366D01*
X573748Y1409034D01*
X574139Y1411000D01*
Y1485719D01*
X574219Y1485838D01*
X574649Y1488000D01*
X574219Y1490162D01*
X572994Y1491994D01*
X571162Y1493219D01*
X571021Y1493247D01*
X543634Y1520634D01*
X541967Y1521748D01*
X540000Y1522139D01*
X305000D01*
X303034Y1521748D01*
X301366Y1520634D01*
X275000Y1494267D01*
X255634Y1513634D01*
X253967Y1514748D01*
X252000Y1515139D01*
X69667D01*
X68257Y1520139D01*
X70636Y1521597D01*
X74825Y1525175D01*
X78403Y1529364D01*
X81282Y1534061D01*
X83390Y1539151D01*
X84676Y1544508D01*
X85108Y1550000D01*
X137406Y1550000D01*
X137610Y1549151D01*
X139718Y1544061D01*
X142597Y1539364D01*
X146175Y1535175D01*
X150364Y1531597D01*
X155061Y1528718D01*
X160151Y1526610D01*
X165508Y1525324D01*
X171000Y1524892D01*
X176492Y1525324D01*
X181849Y1526610D01*
X186939Y1528718D01*
X191636Y1531597D01*
X195825Y1535175D01*
X199403Y1539364D01*
X202282Y1544061D01*
X204390Y1549151D01*
X204594Y1550000D01*
X511869Y1550000D01*
X514097Y1546364D01*
X517675Y1542175D01*
X521864Y1538597D01*
X526561Y1535718D01*
X531651Y1533610D01*
X537008Y1532324D01*
X542500Y1531892D01*
X547992Y1532324D01*
X553349Y1533610D01*
X558439Y1535718D01*
X563136Y1538597D01*
X567325Y1542175D01*
X570903Y1546364D01*
X573131Y1550000D01*
X640000Y1550000D01*
Y1350000D01*
X1380000D01*
Y1529100D01*
X1385000Y1532806D01*
X1387008Y1532324D01*
X1392500Y1531892D01*
X1397992Y1532324D01*
X1403349Y1533610D01*
X1408439Y1535718D01*
X1413136Y1538597D01*
X1417325Y1542175D01*
X1420903Y1546364D01*
X1423132Y1550000D01*
X1706406Y1550000D01*
X1706610Y1549151D01*
X1708718Y1544061D01*
X1711597Y1539364D01*
X1715175Y1535175D01*
X1719364Y1531597D01*
X1724061Y1528718D01*
X1729151Y1526610D01*
X1734508Y1525324D01*
X1740000Y1524892D01*
X1745492Y1525324D01*
X1750849Y1526610D01*
X1755939Y1528718D01*
X1760636Y1531597D01*
X1764825Y1535175D01*
X1768403Y1539364D01*
X1771282Y1544061D01*
X1773390Y1549151D01*
X1773594Y1550001D01*
X1814891Y1550001D01*
X1814892Y1550000D01*
D02*
G37*
G36*
X541153Y1508580D02*
X539082Y1503580D01*
X533175D01*
Y1495675D01*
X544580D01*
Y1498082D01*
X549580Y1500153D01*
X563753Y1485979D01*
X563781Y1485838D01*
X563861Y1485719D01*
Y1413129D01*
X540872Y1390139D01*
X369000D01*
X367034Y1389748D01*
X365366Y1388634D01*
X346908Y1370175D01*
X344648Y1370398D01*
X342997Y1371501D01*
X341050Y1371888D01*
X320450D01*
X318503Y1371501D01*
X316852Y1370398D01*
X315020Y1368857D01*
X310799Y1369489D01*
X310000Y1369648D01*
X305794Y1373132D01*
X305609Y1373485D01*
Y1408505D01*
X331495Y1434391D01*
X393749D01*
X394006Y1434006D01*
X395838Y1432782D01*
X398000Y1432352D01*
X400162Y1432782D01*
X401994Y1434006D01*
X403218Y1435838D01*
X403648Y1438000D01*
X407953Y1441391D01*
X426662D01*
X428043Y1441665D01*
X429214Y1442448D01*
X433157Y1446391D01*
X444749D01*
X445006Y1446006D01*
X446838Y1444781D01*
X449000Y1444352D01*
X451162Y1444781D01*
X452994Y1446006D01*
X454218Y1447838D01*
X455000Y1451351D01*
X457162Y1451781D01*
X458994Y1453006D01*
X460219Y1454838D01*
X460709Y1457043D01*
X463162Y1458781D01*
X464994Y1460006D01*
X466218Y1461838D01*
X466648Y1464000D01*
X466218Y1466162D01*
X465083Y1467861D01*
X465238Y1468687D01*
X466710Y1472861D01*
X480872D01*
X486960Y1466773D01*
Y1459460D01*
X495273D01*
X499753Y1454979D01*
X499781Y1454838D01*
X500518Y1453736D01*
X502460Y1449540D01*
X502460Y1447147D01*
Y1431028D01*
X499920Y1427080D01*
X499920Y1427080D01*
X499920Y1427080D01*
Y1418175D01*
X511000D01*
Y1415000D01*
X514175D01*
Y1402920D01*
X522080D01*
Y1405460D01*
X537540D01*
Y1414361D01*
X542500D01*
X544467Y1414752D01*
X546134Y1415866D01*
X554021Y1423753D01*
X554162Y1423781D01*
X555994Y1425006D01*
X557219Y1426838D01*
X557649Y1429000D01*
X557219Y1431162D01*
X555994Y1432994D01*
X554162Y1434218D01*
X552000Y1434648D01*
X549838Y1434218D01*
X548006Y1432994D01*
X546781Y1431162D01*
X546753Y1431021D01*
X540372Y1424639D01*
X534139D01*
Y1430460D01*
X537540D01*
Y1449540D01*
X541123Y1452960D01*
X542040D01*
Y1470040D01*
X529227D01*
X526634Y1472634D01*
X524967Y1473748D01*
X523000Y1474139D01*
X509580D01*
Y1482325D01*
X497000D01*
Y1485500D01*
X493825D01*
Y1497080D01*
X484420D01*
Y1484304D01*
X483000Y1483139D01*
X419128D01*
X416634Y1485634D01*
X416634Y1485634D01*
X416540Y1485696D01*
Y1494540D01*
X407727D01*
X400634Y1501634D01*
X398967Y1502748D01*
X397000Y1503139D01*
X381000D01*
X379033Y1502748D01*
X377366Y1501634D01*
X370273Y1494540D01*
X367727D01*
X360634Y1501634D01*
X358967Y1502748D01*
X357000Y1503139D01*
X341000D01*
X339033Y1502748D01*
X337366Y1501634D01*
X330273Y1494540D01*
X318460D01*
Y1494540D01*
X317540D01*
Y1494540D01*
X300460D01*
X300460Y1494540D01*
X300460Y1494540D01*
X300371Y1494407D01*
X297853Y1490619D01*
X295838Y1490219D01*
X294006Y1488994D01*
X292781Y1487162D01*
X292351Y1485000D01*
X292781Y1482838D01*
X294006Y1481006D01*
X295838Y1479781D01*
X298000Y1479352D01*
X300460Y1475460D01*
X300460Y1472540D01*
X300460D01*
Y1453460D01*
X308972D01*
X309929Y1452631D01*
X312443Y1448460D01*
X312351Y1448000D01*
X312442Y1447546D01*
X285448Y1420552D01*
X284665Y1419381D01*
X284391Y1418000D01*
Y1377785D01*
X279391Y1375714D01*
X261552Y1393552D01*
X260381Y1394335D01*
X259000Y1394609D01*
X185495D01*
X148558Y1431546D01*
X148649Y1432000D01*
X148219Y1434162D01*
X146994Y1435994D01*
X145162Y1437219D01*
X144296Y1437391D01*
X144789Y1442391D01*
X161749D01*
X162006Y1442006D01*
X163838Y1440781D01*
X166000Y1440352D01*
X168162Y1440781D01*
X169994Y1442006D01*
X171219Y1443838D01*
X172000Y1446349D01*
X174161Y1446779D01*
X175994Y1448003D01*
X177218Y1449836D01*
X178000Y1453349D01*
X180161Y1453779D01*
X181994Y1455003D01*
X183218Y1456835D01*
X183648Y1458997D01*
X186633Y1463371D01*
X186960Y1463582D01*
X191960Y1462352D01*
Y1459460D01*
X200093D01*
X204352Y1456000D01*
X204781Y1453838D01*
X204995Y1453519D01*
X207460Y1449540D01*
X207460Y1446147D01*
Y1431028D01*
X204920Y1427080D01*
X204920Y1427080D01*
X204920Y1427080D01*
Y1418175D01*
X216000D01*
Y1415000D01*
X219175D01*
Y1402920D01*
X227080D01*
Y1405460D01*
X242540D01*
Y1409861D01*
X249000D01*
X250967Y1410253D01*
X252634Y1411366D01*
X261634Y1420366D01*
X262748Y1422034D01*
X262776Y1422176D01*
X263218Y1422838D01*
X263648Y1425000D01*
X263218Y1427162D01*
X261994Y1428994D01*
X260162Y1430219D01*
X258000Y1430648D01*
X255838Y1430219D01*
X254006Y1428994D01*
X252781Y1427162D01*
X252505Y1425772D01*
X247540Y1420807D01*
X242540Y1421752D01*
Y1424540D01*
X239139D01*
Y1430460D01*
X242540D01*
Y1449540D01*
X246123Y1452960D01*
X247040D01*
Y1470040D01*
X230727D01*
X228134Y1472634D01*
X226467Y1473748D01*
X224500Y1474139D01*
X214580D01*
Y1482325D01*
X202000D01*
X189420D01*
Y1474139D01*
X172129D01*
X162540Y1483727D01*
Y1494540D01*
X153727D01*
X148406Y1499861D01*
X150477Y1504861D01*
X215951D01*
X220420Y1503580D01*
X220420Y1499861D01*
Y1495675D01*
X235000D01*
X249580D01*
Y1498082D01*
X254580Y1500153D01*
X269753Y1484979D01*
X269781Y1484838D01*
X271006Y1483006D01*
X272838Y1481781D01*
X275000Y1481351D01*
X277162Y1481781D01*
X278994Y1483006D01*
X280219Y1484838D01*
X280247Y1484979D01*
X307129Y1511861D01*
X537872D01*
X541153Y1508580D01*
D02*
G37*
G36*
X263391Y1361505D02*
X263391Y1130409D01*
X258771Y1128496D01*
X189634Y1197634D01*
X187966Y1198748D01*
X186000Y1199139D01*
X184939D01*
X183025Y1203758D01*
X250634Y1271366D01*
X251748Y1273034D01*
X252139Y1275000D01*
Y1332000D01*
X251748Y1333967D01*
X250634Y1335634D01*
X242139Y1344128D01*
X243339Y1349499D01*
X243424Y1349611D01*
X245838Y1350781D01*
X248000Y1350352D01*
X250162Y1350781D01*
X251994Y1352006D01*
X253219Y1353838D01*
X253648Y1356000D01*
X253219Y1358162D01*
X251994Y1359994D01*
X250162Y1361219D01*
X248000Y1361649D01*
X245838Y1361219D01*
X245719Y1361139D01*
X238638D01*
Y1365800D01*
X238251Y1367747D01*
X237148Y1369398D01*
X235661Y1370391D01*
X235566Y1370838D01*
X236493Y1375391D01*
X249505D01*
X263391Y1361505D01*
D02*
G37*
G36*
X53929Y1452631D02*
X56443Y1448460D01*
X56351Y1448000D01*
X56781Y1445838D01*
X58006Y1444006D01*
X59838Y1442781D01*
X61431Y1442465D01*
X73448Y1430448D01*
X74619Y1429665D01*
X76000Y1429391D01*
X116505D01*
X167501Y1378395D01*
X165925Y1374591D01*
Y1359175D01*
X180645D01*
Y1365800D01*
X180386Y1367766D01*
X179627Y1369597D01*
X179019Y1370391D01*
X179796Y1373309D01*
X181134Y1375391D01*
X210007D01*
X210934Y1370838D01*
X210839Y1370391D01*
X209352Y1369398D01*
X208250Y1367747D01*
X207862Y1365800D01*
Y1346200D01*
X208250Y1344253D01*
X209352Y1342602D01*
X211003Y1341499D01*
X212950Y1341112D01*
X230620D01*
X233241Y1338491D01*
X241861Y1329872D01*
Y1277129D01*
X167773Y1203040D01*
X154080D01*
Y1205580D01*
X145675D01*
Y1193000D01*
X139325D01*
Y1205580D01*
X138589D01*
X136036Y1210580D01*
X137346Y1212391D01*
X159749D01*
X160006Y1212006D01*
X161838Y1210781D01*
X164000Y1210351D01*
X166162Y1210781D01*
X167994Y1212006D01*
X169219Y1213838D01*
X169648Y1216000D01*
X169219Y1218162D01*
X167994Y1219994D01*
X166162Y1221219D01*
X164000Y1221648D01*
X161838Y1221219D01*
X160006Y1219994D01*
X159749Y1219609D01*
X157773D01*
X153540Y1221460D01*
Y1227391D01*
X164000D01*
X165381Y1227665D01*
X166552Y1228448D01*
X228552Y1290448D01*
X229335Y1291619D01*
X229609Y1293000D01*
Y1316749D01*
X229994Y1317006D01*
X231219Y1318838D01*
X231649Y1321000D01*
X231219Y1323162D01*
X229994Y1324994D01*
X228162Y1326219D01*
X226000Y1326649D01*
X223838Y1326219D01*
X222006Y1324994D01*
X220781Y1323162D01*
X220352Y1321000D01*
X220781Y1318838D01*
X222006Y1317006D01*
X222391Y1316749D01*
Y1294495D01*
X162505Y1234609D01*
X153540D01*
Y1240540D01*
X153540Y1240540D01*
Y1241460D01*
X153540D01*
X153540Y1245540D01*
Y1260540D01*
X138080D01*
Y1263080D01*
X130175D01*
Y1251000D01*
X127000D01*
Y1247825D01*
X115920D01*
Y1238920D01*
X118460D01*
Y1221564D01*
X116178Y1219282D01*
X115395Y1218111D01*
X115121Y1216730D01*
Y1196270D01*
X115395Y1194889D01*
X116178Y1193718D01*
X118796Y1191099D01*
X118708Y1184585D01*
X117872Y1183827D01*
X116706Y1184062D01*
X82389Y1218378D01*
Y1322750D01*
X81998Y1324716D01*
X80884Y1326384D01*
X61794Y1345473D01*
X62138Y1347200D01*
Y1366800D01*
X61750Y1368747D01*
X60648Y1370398D01*
X58997Y1371501D01*
X58139Y1371671D01*
Y1397000D01*
X57748Y1398967D01*
X56634Y1400634D01*
X43139Y1414129D01*
Y1449836D01*
X46460Y1453460D01*
X52972D01*
X53929Y1452631D01*
D02*
G37*
G36*
X572861Y1114872D02*
Y1035129D01*
X562872Y1025139D01*
X507128D01*
X493807Y1038460D01*
X495878Y1043460D01*
X510420D01*
Y1041920D01*
X519825D01*
Y1053500D01*
X526175D01*
Y1041920D01*
X533420D01*
Y1033420D01*
X544825D01*
Y1044500D01*
Y1055580D01*
X535580D01*
Y1062117D01*
X535821Y1065187D01*
X539801Y1066960D01*
X560040D01*
Y1084040D01*
X545227D01*
X529085Y1100182D01*
X529148Y1100500D01*
X528719Y1102662D01*
X527494Y1104494D01*
X525662Y1105719D01*
X523500Y1106149D01*
X521338Y1105719D01*
X519506Y1104494D01*
X518281Y1102662D01*
X517851Y1100500D01*
X517906Y1100225D01*
X517861Y1100000D01*
Y1099000D01*
X518252Y1097033D01*
X519366Y1095366D01*
X530193Y1084540D01*
X528122Y1079540D01*
X521227D01*
X506133Y1094634D01*
X504466Y1095748D01*
X502500Y1096139D01*
X457000D01*
X455033Y1095748D01*
X453366Y1094634D01*
X452252Y1092967D01*
X452167Y1092539D01*
X445267Y1085639D01*
X426040D01*
Y1088040D01*
X422139D01*
Y1144371D01*
X430727Y1152960D01*
X440920D01*
Y1150420D01*
X449325D01*
Y1163000D01*
X452500D01*
Y1166175D01*
X464080D01*
Y1174562D01*
X464744Y1175006D01*
X465969Y1176838D01*
X466101Y1177502D01*
X467904Y1179305D01*
X469018Y1180972D01*
X469211Y1181944D01*
X469227Y1181960D01*
X479540D01*
Y1186861D01*
X500872D01*
X572861Y1114872D01*
D02*
G37*
G36*
X320450Y1342112D02*
X331861D01*
Y1266500D01*
X332252Y1264533D01*
X333366Y1262866D01*
X426460Y1169773D01*
Y1163227D01*
X413366Y1150134D01*
X412252Y1148466D01*
X411861Y1146500D01*
Y1094477D01*
X406861Y1092406D01*
X394633Y1104634D01*
X392966Y1105748D01*
X391000Y1106139D01*
X385281D01*
X385162Y1106219D01*
X383000Y1106648D01*
X380838Y1106219D01*
X379006Y1104994D01*
X377781Y1103162D01*
X377351Y1101000D01*
X377781Y1098838D01*
X379006Y1097006D01*
X380838Y1095781D01*
X383000Y1095351D01*
X385162Y1095781D01*
X385281Y1095861D01*
X388871D01*
X400070Y1084663D01*
X398081Y1079581D01*
X397040Y1079540D01*
Y1079540D01*
X376960D01*
X375580Y1082080D01*
X366175D01*
Y1070500D01*
X359825D01*
Y1082080D01*
X352580D01*
Y1090580D01*
X341175D01*
Y1079500D01*
Y1068420D01*
X350420D01*
Y1061883D01*
X350179Y1058813D01*
X346199Y1057040D01*
X325960D01*
Y1049840D01*
X321341Y1047927D01*
X315139Y1054128D01*
X315139Y1338734D01*
X316014Y1339714D01*
X320139Y1342174D01*
X320450Y1342112D01*
D02*
G37*
G36*
X25175Y1525175D02*
X29364Y1521597D01*
X34061Y1518718D01*
X39151Y1516610D01*
X44508Y1515324D01*
X46805Y1515143D01*
X48710Y1509978D01*
X34366Y1495634D01*
X33252Y1493967D01*
X32861Y1492000D01*
Y1412000D01*
X33252Y1410034D01*
X34366Y1408366D01*
X47861Y1394872D01*
Y1371888D01*
X36450D01*
X34503Y1371501D01*
X32852Y1370398D01*
X31750Y1368747D01*
X31362Y1366800D01*
Y1347200D01*
X31750Y1345253D01*
X32852Y1343602D01*
X34503Y1342500D01*
X36450Y1342112D01*
X50620D01*
X72111Y1320621D01*
Y1216250D01*
X72502Y1214283D01*
X73616Y1212616D01*
X116460Y1169773D01*
Y1152960D01*
X120861D01*
Y1103129D01*
X108366Y1090634D01*
X107252Y1088967D01*
X107068Y1088040D01*
X101227D01*
X84634Y1104634D01*
X82966Y1105748D01*
X81000Y1106139D01*
X75281D01*
X75162Y1106219D01*
X73000Y1106648D01*
X70838Y1106219D01*
X69006Y1104994D01*
X67781Y1103162D01*
X67351Y1101000D01*
X67781Y1098838D01*
X69006Y1097006D01*
X70838Y1095781D01*
X73000Y1095351D01*
X75162Y1095781D01*
X75281Y1095861D01*
X78871D01*
X89384Y1085349D01*
X88833Y1079068D01*
X88040Y1078540D01*
X67960D01*
X66580Y1081080D01*
X57175D01*
Y1069500D01*
X50825D01*
Y1081080D01*
X42580D01*
Y1091580D01*
X31175D01*
Y1080500D01*
Y1069420D01*
X41420D01*
Y1062468D01*
X40040Y1058040D01*
X36470Y1058040D01*
X25996D01*
X25500Y1058139D01*
X25003Y1058040D01*
X20000D01*
Y1069420D01*
X24825D01*
Y1080500D01*
Y1091580D01*
X20000D01*
X20000Y1523535D01*
X25000Y1525379D01*
X25175Y1525175D01*
D02*
G37*
G36*
X459420Y1078724D02*
Y1068420D01*
X470825D01*
Y1079500D01*
X477175D01*
Y1068420D01*
X488420D01*
Y1061054D01*
X486326Y1057523D01*
X483784Y1057040D01*
X461960D01*
Y1039960D01*
X474622D01*
X476693Y1034960D01*
X467872Y1026139D01*
X367128D01*
X356257Y1037010D01*
X356553Y1041729D01*
X356901Y1042659D01*
X359639Y1044460D01*
X373040D01*
X374420Y1041920D01*
X383825D01*
Y1053500D01*
X390175D01*
Y1041920D01*
X399420D01*
Y1037420D01*
X410825D01*
Y1048500D01*
Y1059580D01*
X399580D01*
Y1065080D01*
X403962Y1066251D01*
X403967Y1066252D01*
X404067Y1066319D01*
X405634Y1067366D01*
X409227Y1070960D01*
X426040D01*
Y1075361D01*
X447396D01*
X449362Y1075752D01*
X451029Y1076866D01*
X454801Y1080638D01*
X459420Y1078724D01*
D02*
G37*
G36*
X150420Y1090580D02*
Y1082675D01*
X165000D01*
Y1079500D01*
X168175D01*
Y1068420D01*
X179420D01*
Y1061054D01*
X177326Y1057523D01*
X174785Y1057040D01*
X152960D01*
Y1039960D01*
X164160D01*
X166073Y1035341D01*
X154872Y1024139D01*
X59128D01*
X45246Y1038021D01*
X45219Y1038161D01*
X45019Y1038460D01*
X47030Y1043242D01*
X47234Y1043460D01*
X64040D01*
X65420Y1040920D01*
X74825D01*
Y1052500D01*
X81175D01*
Y1040920D01*
X89420D01*
Y1037420D01*
X100825D01*
Y1048500D01*
Y1059580D01*
X95885D01*
X95251Y1060434D01*
X93634Y1065366D01*
X99227Y1070960D01*
X116040D01*
Y1076861D01*
X122000D01*
X123967Y1077252D01*
X125634Y1078366D01*
X138128Y1090861D01*
X145536D01*
X150420Y1090580D01*
D02*
G37*
G36*
X257091Y1115641D02*
Y1059126D01*
X253580Y1055580D01*
X242175D01*
Y1044500D01*
Y1033420D01*
X250267D01*
X253191Y1028420D01*
X252398Y1027012D01*
X195256D01*
X183807Y1038460D01*
X185632Y1042864D01*
X186747Y1043460D01*
X200472D01*
X204420Y1040920D01*
X204420Y1040920D01*
X213825D01*
Y1052500D01*
X220175D01*
Y1040920D01*
X224420D01*
Y1033420D01*
X235825D01*
Y1044500D01*
Y1055580D01*
X229580D01*
Y1064080D01*
X233387Y1066960D01*
X251040D01*
Y1084040D01*
X235334D01*
X215220Y1104154D01*
X215219Y1104162D01*
X213994Y1105994D01*
X212162Y1107219D01*
X210000Y1107648D01*
X207838Y1107219D01*
X206006Y1105994D01*
X204781Y1104162D01*
X204352Y1102000D01*
X204781Y1099838D01*
X206006Y1098006D01*
X207838Y1096781D01*
X208112Y1096727D01*
X218697Y1086142D01*
X216911Y1080857D01*
X214707Y1080561D01*
X195634Y1099634D01*
X193967Y1100748D01*
X192000Y1101139D01*
X136000D01*
X131753Y1103961D01*
X131139Y1104827D01*
Y1150420D01*
X139325D01*
Y1163000D01*
X142500D01*
Y1166175D01*
X154080D01*
Y1175580D01*
X156744Y1179477D01*
X160227Y1182960D01*
X168540D01*
Y1188861D01*
X183871D01*
X257091Y1115641D01*
D02*
G37*
G36*
X556622Y1325622D02*
X558198Y1324414D01*
X560032Y1323654D01*
X562000Y1323395D01*
X826850D01*
X1096395Y1053850D01*
Y854477D01*
X1091395Y851805D01*
X1090340Y852510D01*
Y868740D01*
X1068260D01*
Y866682D01*
X1063808Y863623D01*
X1063260Y863637D01*
X1061774Y865574D01*
X1059468Y867343D01*
X1056782Y868456D01*
X1053900Y868835D01*
X1051739Y868551D01*
X1050304Y869063D01*
X1046739Y872095D01*
Y881635D01*
X1080552Y915448D01*
X1081335Y916619D01*
X1081609Y918000D01*
Y1032000D01*
X1081335Y1033381D01*
X1080552Y1034552D01*
X804552Y1310552D01*
X803381Y1311335D01*
X802000Y1311609D01*
X752251D01*
X751994Y1311994D01*
X750162Y1313219D01*
X748000Y1313649D01*
X745838Y1313219D01*
X744006Y1311994D01*
X742781Y1310162D01*
X740741Y1307870D01*
X738000Y1307648D01*
X735838Y1307219D01*
X734006Y1305994D01*
X732781Y1304162D01*
X732778Y1304143D01*
X728596Y1301494D01*
X727512Y1301348D01*
X726000Y1301649D01*
X723838Y1301219D01*
X722006Y1299994D01*
X720781Y1298162D01*
X720778Y1298143D01*
X716596Y1295494D01*
X715512Y1295348D01*
X714000Y1295648D01*
X711838Y1295219D01*
X710006Y1293994D01*
X708781Y1292162D01*
X708720Y1291854D01*
X706294Y1289375D01*
X703544Y1288540D01*
X703000Y1288649D01*
X700838Y1288219D01*
X699006Y1286994D01*
X697781Y1285162D01*
X697603Y1284264D01*
X694103Y1281864D01*
X692585Y1281333D01*
X691000Y1281649D01*
X688838Y1281219D01*
X687006Y1279994D01*
X685781Y1278162D01*
X685351Y1276000D01*
X685781Y1273838D01*
X687006Y1272006D01*
X688838Y1270781D01*
X691000Y1270351D01*
X693162Y1270781D01*
X694994Y1272006D01*
X695251Y1272391D01*
X785505D01*
X1009210Y1048686D01*
X1009273Y1048513D01*
X1009036Y1043627D01*
X1008215Y1042609D01*
X951251D01*
X950994Y1042994D01*
X949162Y1044219D01*
X947000Y1044649D01*
X944838Y1044219D01*
X943006Y1042994D01*
X941781Y1041162D01*
X941351Y1039000D01*
X941781Y1036838D01*
X943006Y1035006D01*
X944838Y1033782D01*
X947000Y1033352D01*
X949162Y1033782D01*
X950994Y1035006D01*
X951251Y1035391D01*
X1008749D01*
X1009006Y1035006D01*
X1010838Y1033781D01*
X1013000Y1033352D01*
X1015162Y1033781D01*
X1016994Y1035006D01*
X1022513Y1035273D01*
X1022686Y1035210D01*
X1044391Y1013505D01*
Y934495D01*
X986508Y876612D01*
X985725Y875441D01*
X985451Y874060D01*
Y871693D01*
X980593Y868463D01*
X980451Y868473D01*
X977700Y868835D01*
X974818Y868456D01*
X972132Y867343D01*
X969826Y865574D01*
X968057Y863268D01*
X967675Y862347D01*
X962325D01*
X961943Y863268D01*
X960174Y865574D01*
X957868Y867343D01*
X955182Y868456D01*
X952300Y868835D01*
X949418Y868456D01*
X946732Y867343D01*
X944426Y865574D01*
X942657Y863268D01*
X942275Y862347D01*
X936925D01*
X936543Y863268D01*
X934774Y865574D01*
X932468Y867343D01*
X929782Y868456D01*
X926900Y868835D01*
X924018Y868456D01*
X921332Y867343D01*
X919026Y865574D01*
X917257Y863268D01*
X916875Y862347D01*
X911525D01*
X911143Y863268D01*
X909374Y865574D01*
X907068Y867343D01*
X904382Y868456D01*
X901500Y868835D01*
X898618Y868456D01*
X895932Y867343D01*
X893626Y865574D01*
X891857Y863268D01*
X891475Y862347D01*
X886125D01*
X885743Y863268D01*
X883974Y865574D01*
X881668Y867343D01*
X878982Y868456D01*
X876100Y868835D01*
X873218Y868456D01*
X870532Y867343D01*
X868226Y865574D01*
X866457Y863268D01*
X866075Y862347D01*
X860725D01*
X860343Y863268D01*
X858574Y865574D01*
X856268Y867343D01*
X853582Y868456D01*
X850700Y868835D01*
X847818Y868456D01*
X845132Y867343D01*
X842826Y865574D01*
X841057Y863268D01*
X840675Y862347D01*
X835325D01*
X834943Y863268D01*
X833174Y865574D01*
X830868Y867343D01*
X828182Y868456D01*
X825300Y868835D01*
X822418Y868456D01*
X819732Y867343D01*
X817426Y865574D01*
X815657Y863268D01*
X815275Y862347D01*
X809925D01*
X809543Y863268D01*
X807774Y865574D01*
X805468Y867343D01*
X802782Y868456D01*
X799900Y868835D01*
X797018Y868456D01*
X794332Y867343D01*
X792026Y865574D01*
X790257Y863268D01*
X789875Y862347D01*
X784525D01*
X784143Y863268D01*
X782374Y865574D01*
X780068Y867343D01*
X777382Y868456D01*
X774500Y868835D01*
X771618Y868456D01*
X768932Y867343D01*
X766626Y865574D01*
X764857Y863268D01*
X764475Y862347D01*
X759125D01*
X758743Y863268D01*
X756974Y865574D01*
X754668Y867343D01*
X751982Y868456D01*
X749100Y868835D01*
X746218Y868456D01*
X743532Y867343D01*
X741226Y865574D01*
X739457Y863268D01*
X739075Y862347D01*
X733725D01*
X733343Y863268D01*
X731574Y865574D01*
X729268Y867343D01*
X726582Y868456D01*
X723700Y868835D01*
X720818Y868456D01*
X718132Y867343D01*
X715826Y865574D01*
X714057Y863268D01*
X713675Y862347D01*
X708325D01*
X707943Y863268D01*
X706174Y865574D01*
X703868Y867343D01*
X701182Y868456D01*
X698300Y868835D01*
X695418Y868456D01*
X692732Y867343D01*
X690426Y865574D01*
X688657Y863268D01*
X688275Y862347D01*
X682925D01*
X682543Y863268D01*
X680774Y865574D01*
X678468Y867343D01*
X675782Y868456D01*
X672900Y868835D01*
X670018Y868456D01*
X667332Y867343D01*
X665026Y865574D01*
X663257Y863268D01*
X662875Y862347D01*
X657525D01*
X657143Y863268D01*
X655374Y865574D01*
X653068Y867343D01*
X650382Y868456D01*
X647500Y868835D01*
X644618Y868456D01*
X641932Y867343D01*
X639626Y865574D01*
X639187Y865001D01*
X636293Y864750D01*
X634023Y865020D01*
X633373Y865317D01*
X631785Y867385D01*
X628949Y869562D01*
X625645Y870930D01*
X625275Y870979D01*
Y857700D01*
X618925D01*
Y870979D01*
X618555Y870930D01*
X616609Y870125D01*
X612850Y871875D01*
X611609Y873070D01*
Y974000D01*
X611335Y975381D01*
X610552Y976552D01*
X610000Y977104D01*
Y1020000D01*
X578800D01*
X576887Y1024619D01*
X581634Y1029366D01*
X582748Y1031033D01*
X583139Y1033000D01*
Y1117000D01*
X582748Y1118967D01*
X581634Y1120634D01*
X506634Y1195634D01*
X504967Y1196748D01*
X503000Y1197139D01*
X494939D01*
X493025Y1201758D01*
X533634Y1242366D01*
X534748Y1244034D01*
X535139Y1246000D01*
Y1333000D01*
X534748Y1334966D01*
X533634Y1336634D01*
X529372Y1340895D01*
X531443Y1345895D01*
X536350D01*
X556622Y1325622D01*
D02*
G37*
%LPC*%
G36*
X401550Y1374395D02*
X394425D01*
Y1360175D01*
X409145D01*
Y1366800D01*
X408886Y1368766D01*
X408128Y1370598D01*
X406921Y1372171D01*
X405348Y1373377D01*
X403516Y1374136D01*
X401550Y1374395D01*
D02*
G37*
G36*
X388075D02*
X380950D01*
X378984Y1374136D01*
X377153Y1373377D01*
X375580Y1372171D01*
X374373Y1370598D01*
X373614Y1368766D01*
X373355Y1366800D01*
Y1360175D01*
X388075D01*
Y1374395D01*
D02*
G37*
G36*
X455050D02*
X447925D01*
Y1360175D01*
X462645D01*
Y1366800D01*
X462386Y1368766D01*
X461628Y1370598D01*
X460420Y1372171D01*
X458848Y1373377D01*
X457016Y1374136D01*
X455050Y1374395D01*
D02*
G37*
G36*
X441575D02*
X434450D01*
X432484Y1374136D01*
X430653Y1373377D01*
X429080Y1372171D01*
X427873Y1370598D01*
X427114Y1368766D01*
X426855Y1366800D01*
Y1360175D01*
X441575D01*
Y1374395D01*
D02*
G37*
G36*
X388075Y1353825D02*
X373355D01*
Y1347200D01*
X373614Y1345234D01*
X374373Y1343403D01*
X375580Y1341830D01*
X377153Y1340623D01*
X378984Y1339864D01*
X380950Y1339605D01*
X388075D01*
Y1353825D01*
D02*
G37*
G36*
X462645Y1353825D02*
X444750D01*
X426855D01*
Y1347200D01*
X426397Y1346678D01*
X422175D01*
Y1332175D01*
X442178D01*
Y1335250D01*
X446316Y1339605D01*
X455050D01*
X457016Y1339864D01*
X458848Y1340623D01*
X460420Y1341830D01*
X461628Y1343403D01*
X462386Y1345234D01*
X462645Y1347200D01*
Y1353825D01*
D02*
G37*
G36*
X409145Y1353825D02*
X394425D01*
Y1336720D01*
X395822Y1335250D01*
Y1332175D01*
X415825D01*
Y1346678D01*
X409603D01*
X409145Y1347200D01*
Y1353825D01*
D02*
G37*
G36*
X442178Y1325825D02*
X422175D01*
Y1311322D01*
X430750D01*
X433708Y1311712D01*
X436464Y1312853D01*
X438831Y1314669D01*
X440647Y1317036D01*
X441788Y1319792D01*
X442178Y1322750D01*
Y1325825D01*
D02*
G37*
G36*
X415825D02*
X395822D01*
Y1322750D01*
X396212Y1319792D01*
X397353Y1317036D01*
X399169Y1314669D01*
X401536Y1312853D01*
X404292Y1311712D01*
X407250Y1311322D01*
X415825D01*
Y1325825D01*
D02*
G37*
G36*
X431825Y1262080D02*
X423920D01*
Y1253175D01*
X431825D01*
Y1262080D01*
D02*
G37*
G36*
X1392500Y882108D02*
X1387008Y881676D01*
X1381651Y880390D01*
X1376561Y878282D01*
X1371864Y875403D01*
X1367675Y871825D01*
X1364097Y867636D01*
X1361218Y862939D01*
X1359110Y857849D01*
X1357824Y852492D01*
X1357392Y847000D01*
X1357824Y841508D01*
X1359110Y836151D01*
X1361218Y831061D01*
X1364097Y826364D01*
X1367675Y822175D01*
X1371864Y818597D01*
X1376561Y815718D01*
X1381651Y813610D01*
X1387008Y812324D01*
X1392500Y811892D01*
X1397992Y812324D01*
X1403349Y813610D01*
X1408439Y815718D01*
X1413136Y818597D01*
X1417325Y822175D01*
X1420903Y826364D01*
X1423782Y831061D01*
X1425890Y836151D01*
X1427176Y841508D01*
X1427608Y847000D01*
X1427176Y852492D01*
X1425890Y857849D01*
X1423782Y862939D01*
X1420903Y867636D01*
X1417325Y871825D01*
X1413136Y875403D01*
X1408439Y878282D01*
X1403349Y880390D01*
X1397992Y881676D01*
X1392500Y882108D01*
D02*
G37*
G36*
X1225725Y768775D02*
X1225485Y768743D01*
X1222304Y767425D01*
X1219571Y765329D01*
X1219040Y764636D01*
X1214040Y766334D01*
Y766540D01*
X1192960D01*
Y745460D01*
X1214040D01*
Y745666D01*
X1219040Y747364D01*
X1219571Y746671D01*
X1222304Y744575D01*
X1225485Y743257D01*
X1225725Y743225D01*
Y756000D01*
Y768775D01*
D02*
G37*
G36*
X1232075D02*
Y759175D01*
X1241675D01*
X1241643Y759415D01*
X1240325Y762596D01*
X1238229Y765329D01*
X1235496Y767425D01*
X1232315Y768743D01*
X1232075Y768775D01*
D02*
G37*
G36*
X1241675Y752825D02*
X1232075D01*
Y743225D01*
X1232315Y743257D01*
X1235496Y744575D01*
X1238229Y746671D01*
X1240325Y749404D01*
X1241643Y752585D01*
X1241675Y752825D01*
D02*
G37*
G36*
X1675000Y799108D02*
X1669508Y798676D01*
X1664151Y797390D01*
X1659061Y795282D01*
X1654364Y792403D01*
X1650175Y788825D01*
X1646597Y784636D01*
X1643718Y779939D01*
X1641610Y774849D01*
X1640324Y769492D01*
X1639892Y764000D01*
X1640324Y758508D01*
X1641610Y753151D01*
X1643718Y748061D01*
X1646597Y743364D01*
X1650175Y739175D01*
X1654364Y735597D01*
X1659061Y732718D01*
X1664151Y730610D01*
X1669508Y729324D01*
X1675000Y728892D01*
X1680492Y729324D01*
X1685849Y730610D01*
X1690939Y732718D01*
X1695636Y735597D01*
X1699825Y739175D01*
X1703403Y743364D01*
X1706282Y748061D01*
X1708390Y753151D01*
X1709676Y758508D01*
X1710108Y764000D01*
X1709676Y769492D01*
X1708390Y774849D01*
X1706282Y779939D01*
X1703403Y784636D01*
X1699825Y788825D01*
X1695636Y792403D01*
X1690939Y795282D01*
X1685849Y797390D01*
X1680492Y798676D01*
X1675000Y799108D01*
D02*
G37*
G36*
X1833175Y699071D02*
Y689975D01*
X1842271D01*
X1842256Y690084D01*
X1840989Y693144D01*
X1838972Y695772D01*
X1836344Y697789D01*
X1833284Y699056D01*
X1833175Y699071D01*
D02*
G37*
G36*
X1826825D02*
X1826716Y699056D01*
X1823656Y697789D01*
X1821028Y695772D01*
X1819011Y693144D01*
X1817744Y690084D01*
X1817729Y689975D01*
X1826825D01*
Y699071D01*
D02*
G37*
G36*
X978275Y690279D02*
Y680175D01*
X988379D01*
X988330Y680545D01*
X986962Y683849D01*
X984785Y686685D01*
X981949Y688862D01*
X978645Y690230D01*
X978275Y690279D01*
D02*
G37*
G36*
X1842271Y683625D02*
X1830000D01*
X1817729D01*
X1817744Y683516D01*
X1819011Y680456D01*
X1821028Y677828D01*
X1823656Y675811D01*
X1824573Y675431D01*
X1824863Y671232D01*
X1824682Y669974D01*
X1822839Y668561D01*
X1821230Y666463D01*
X1820218Y664021D01*
X1819873Y661400D01*
X1820218Y658779D01*
X1821230Y656337D01*
X1822839Y654239D01*
X1824937Y652630D01*
X1827379Y651618D01*
X1830000Y651273D01*
X1832621Y651618D01*
X1835063Y652630D01*
X1837161Y654239D01*
X1838770Y656337D01*
X1839782Y658779D01*
X1840127Y661400D01*
X1839782Y664021D01*
X1838770Y666463D01*
X1837161Y668561D01*
X1835318Y669974D01*
X1835137Y671232D01*
X1835427Y675431D01*
X1836344Y675811D01*
X1838972Y677828D01*
X1840989Y680456D01*
X1842256Y683516D01*
X1842271Y683625D01*
D02*
G37*
G36*
X1830000Y646127D02*
X1827379Y645782D01*
X1824937Y644770D01*
X1822839Y643161D01*
X1821230Y641063D01*
X1820218Y638621D01*
X1819873Y636000D01*
X1820218Y633379D01*
X1821230Y630937D01*
X1822839Y628839D01*
X1824937Y627230D01*
X1827379Y626218D01*
X1830000Y625873D01*
X1832621Y626218D01*
X1835063Y627230D01*
X1837161Y628839D01*
X1838770Y630937D01*
X1839782Y633379D01*
X1840127Y636000D01*
X1839782Y638621D01*
X1838770Y641063D01*
X1837161Y643161D01*
X1835063Y644770D01*
X1832621Y645782D01*
X1830000Y646127D01*
D02*
G37*
G36*
X1304500Y677101D02*
X1299400Y676699D01*
X1294426Y675505D01*
X1289700Y673547D01*
X1285338Y670874D01*
X1281448Y667552D01*
X1278126Y663662D01*
X1275453Y659300D01*
X1273495Y654574D01*
X1272301Y649600D01*
X1271899Y644500D01*
X1272301Y639400D01*
X1273495Y634426D01*
X1275453Y629700D01*
X1278126Y625338D01*
X1281448Y621448D01*
X1285338Y618126D01*
X1289700Y615453D01*
X1294426Y613495D01*
X1299400Y612301D01*
X1304500Y611899D01*
X1309600Y612301D01*
X1314574Y613495D01*
X1319300Y615453D01*
X1323662Y618126D01*
X1327552Y621448D01*
X1330874Y625338D01*
X1333547Y629700D01*
X1335505Y634426D01*
X1336699Y639400D01*
X1337101Y644500D01*
X1336699Y649600D01*
X1335505Y654574D01*
X1333547Y659300D01*
X1330874Y663662D01*
X1327552Y667552D01*
X1323662Y670874D01*
X1319300Y673547D01*
X1314574Y675505D01*
X1309600Y676699D01*
X1304500Y677101D01*
D02*
G37*
G36*
X1830000Y620727D02*
X1827379Y620382D01*
X1824937Y619370D01*
X1822839Y617761D01*
X1821230Y615663D01*
X1820218Y613221D01*
X1819873Y610600D01*
X1820218Y607979D01*
X1821230Y605537D01*
X1822839Y603439D01*
X1824937Y601830D01*
X1827379Y600818D01*
X1830000Y600473D01*
X1832621Y600818D01*
X1835063Y601830D01*
X1837161Y603439D01*
X1838770Y605537D01*
X1839782Y607979D01*
X1840127Y610600D01*
X1839782Y613221D01*
X1838770Y615663D01*
X1837161Y617761D01*
X1835063Y619370D01*
X1832621Y620382D01*
X1830000Y620727D01*
D02*
G37*
G36*
X1840040Y595240D02*
X1819960D01*
Y575160D01*
X1840040D01*
Y595240D01*
D02*
G37*
G36*
X1630000Y585127D02*
X1627379Y584782D01*
X1624937Y583770D01*
X1622839Y582161D01*
X1621230Y580063D01*
X1620218Y577621D01*
X1619873Y575000D01*
X1620218Y572379D01*
X1621230Y569937D01*
X1622839Y567839D01*
X1624554Y566524D01*
X1624901Y563750D01*
X1624554Y560976D01*
X1622839Y559661D01*
X1621230Y557563D01*
X1620218Y555121D01*
X1619873Y552500D01*
X1620218Y549879D01*
X1621230Y547437D01*
X1622839Y545339D01*
X1624937Y543730D01*
X1627379Y542718D01*
X1630000Y542373D01*
X1632621Y542718D01*
X1635063Y543730D01*
X1637161Y545339D01*
X1638770Y547437D01*
X1639782Y549879D01*
X1640127Y552500D01*
X1639782Y555121D01*
X1638770Y557563D01*
X1637161Y559661D01*
X1635446Y560976D01*
X1635099Y563750D01*
X1635446Y566524D01*
X1637161Y567839D01*
X1638770Y569937D01*
X1639782Y572379D01*
X1640127Y575000D01*
X1639782Y577621D01*
X1638770Y580063D01*
X1637161Y582161D01*
X1635063Y583770D01*
X1632621Y584782D01*
X1630000Y585127D01*
D02*
G37*
G36*
X1049000Y582601D02*
X1043900Y582199D01*
X1038926Y581005D01*
X1034200Y579047D01*
X1029838Y576374D01*
X1025948Y573052D01*
X1022626Y569162D01*
X1019953Y564800D01*
X1017995Y560074D01*
X1016801Y555100D01*
X1016400Y550000D01*
X1016801Y544900D01*
X1017995Y539926D01*
X1019953Y535200D01*
X1022626Y530838D01*
X1025948Y526948D01*
X1029838Y523626D01*
X1034200Y520953D01*
X1038926Y518995D01*
X1043900Y517801D01*
X1049000Y517399D01*
X1054100Y517801D01*
X1059074Y518995D01*
X1063800Y520953D01*
X1068162Y523626D01*
X1072052Y526948D01*
X1075374Y530838D01*
X1078047Y535200D01*
X1080005Y539926D01*
X1081199Y544900D01*
X1081600Y550000D01*
X1081199Y555100D01*
X1080005Y560074D01*
X1078047Y564800D01*
X1075374Y569162D01*
X1072052Y573052D01*
X1068162Y576374D01*
X1063800Y579047D01*
X1059074Y581005D01*
X1054100Y582199D01*
X1049000Y582601D01*
D02*
G37*
G36*
X1675000Y549108D02*
X1669508Y548676D01*
X1664151Y547390D01*
X1659061Y545282D01*
X1654364Y542403D01*
X1650175Y538825D01*
X1646597Y534636D01*
X1643718Y529939D01*
X1641610Y524849D01*
X1640324Y519492D01*
X1639892Y514000D01*
X1640324Y508508D01*
X1641610Y503151D01*
X1643718Y498061D01*
X1646597Y493364D01*
X1650175Y489175D01*
X1654364Y485597D01*
X1659061Y482718D01*
X1664151Y480610D01*
X1669508Y479324D01*
X1675000Y478892D01*
X1680492Y479324D01*
X1685849Y480610D01*
X1690939Y482718D01*
X1695636Y485597D01*
X1699825Y489175D01*
X1703403Y493364D01*
X1706282Y498061D01*
X1708390Y503151D01*
X1709676Y508508D01*
X1710108Y514000D01*
X1709676Y519492D01*
X1708390Y524849D01*
X1706282Y529939D01*
X1703403Y534636D01*
X1699825Y538825D01*
X1695636Y542403D01*
X1690939Y545282D01*
X1685849Y547390D01*
X1680492Y548676D01*
X1675000Y549108D01*
D02*
G37*
G36*
X1304500Y488101D02*
X1299400Y487699D01*
X1294426Y486505D01*
X1289700Y484547D01*
X1285338Y481874D01*
X1281448Y478552D01*
X1278126Y474662D01*
X1275453Y470300D01*
X1273495Y465574D01*
X1272301Y460600D01*
X1271899Y455500D01*
X1272301Y450400D01*
X1273495Y445426D01*
X1275453Y440700D01*
X1278126Y436338D01*
X1281448Y432448D01*
X1285338Y429126D01*
X1289700Y426453D01*
X1294426Y424495D01*
X1299400Y423301D01*
X1304500Y422900D01*
X1309600Y423301D01*
X1314574Y424495D01*
X1319300Y426453D01*
X1323662Y429126D01*
X1327552Y432448D01*
X1330874Y436338D01*
X1333547Y440700D01*
X1335505Y445426D01*
X1336699Y450400D01*
X1337101Y455500D01*
X1336699Y460600D01*
X1335505Y465574D01*
X1333547Y470300D01*
X1330874Y474662D01*
X1327552Y478552D01*
X1323662Y481874D01*
X1319300Y484547D01*
X1314574Y486505D01*
X1309600Y487699D01*
X1304500Y488101D01*
D02*
G37*
G36*
X988379Y419825D02*
X978275D01*
Y409721D01*
X978645Y409770D01*
X981949Y411138D01*
X984785Y413315D01*
X986962Y416151D01*
X988330Y419455D01*
X988379Y419825D01*
D02*
G37*
G36*
X1637175Y338783D02*
Y328175D01*
X1647784D01*
X1647718Y328676D01*
X1646299Y332101D01*
X1644042Y335042D01*
X1641101Y337299D01*
X1637676Y338718D01*
X1637175Y338783D01*
D02*
G37*
G36*
X1630825D02*
X1630324Y338718D01*
X1626899Y337299D01*
X1623958Y335042D01*
X1621701Y332101D01*
X1620282Y328676D01*
X1620217Y328175D01*
X1630825D01*
Y338783D01*
D02*
G37*
G36*
X1387175D02*
Y328175D01*
X1397784D01*
X1397718Y328676D01*
X1396299Y332101D01*
X1394042Y335042D01*
X1391101Y337299D01*
X1387676Y338718D01*
X1387175Y338783D01*
D02*
G37*
G36*
X1380825D02*
X1380324Y338718D01*
X1376899Y337299D01*
X1373958Y335042D01*
X1371701Y332101D01*
X1370282Y328676D01*
X1370217Y328175D01*
X1380825D01*
Y338783D01*
D02*
G37*
G36*
X912175D02*
Y328175D01*
X922784D01*
X922718Y328676D01*
X921299Y332101D01*
X919042Y335042D01*
X916101Y337299D01*
X912676Y338718D01*
X912175Y338783D01*
D02*
G37*
G36*
X905825D02*
X905324Y338718D01*
X901899Y337299D01*
X898958Y335042D01*
X896701Y332101D01*
X895282Y328676D01*
X895217Y328175D01*
X905825D01*
Y338783D01*
D02*
G37*
G36*
X692175D02*
Y328175D01*
X702784D01*
X702718Y328676D01*
X701299Y332101D01*
X699042Y335042D01*
X696101Y337299D01*
X692676Y338718D01*
X692175Y338783D01*
D02*
G37*
G36*
X685825D02*
X685324Y338718D01*
X681899Y337299D01*
X678958Y335042D01*
X676701Y332101D01*
X675282Y328676D01*
X675217Y328175D01*
X685825D01*
Y338783D01*
D02*
G37*
G36*
X1584000Y336640D02*
X1580988Y336243D01*
X1578180Y335080D01*
X1575770Y333230D01*
X1573920Y330820D01*
X1572757Y328013D01*
X1572361Y325000D01*
X1572757Y321987D01*
X1573920Y319180D01*
X1575770Y316770D01*
X1578180Y314920D01*
X1580988Y313757D01*
X1584000Y313361D01*
X1587012Y313757D01*
X1589820Y314920D01*
X1592230Y316770D01*
X1594080Y319180D01*
X1595243Y321987D01*
X1595640Y325000D01*
X1595243Y328013D01*
X1594080Y330820D01*
X1592230Y333230D01*
X1589820Y335080D01*
X1587012Y336243D01*
X1584000Y336640D01*
D02*
G37*
G36*
X1334000D02*
X1330988Y336243D01*
X1328180Y335080D01*
X1325770Y333230D01*
X1323920Y330820D01*
X1322757Y328013D01*
X1322360Y325000D01*
X1322757Y321987D01*
X1323920Y319180D01*
X1325770Y316770D01*
X1328180Y314920D01*
X1330988Y313757D01*
X1334000Y313361D01*
X1337012Y313757D01*
X1339820Y314920D01*
X1342230Y316770D01*
X1344080Y319180D01*
X1345243Y321987D01*
X1345639Y325000D01*
X1345243Y328013D01*
X1344080Y330820D01*
X1342230Y333230D01*
X1339820Y335080D01*
X1337012Y336243D01*
X1334000Y336640D01*
D02*
G37*
G36*
X1114000D02*
X1110987Y336243D01*
X1108180Y335080D01*
X1105770Y333230D01*
X1103920Y330820D01*
X1102757Y328013D01*
X1102361Y325000D01*
X1102757Y321987D01*
X1103920Y319180D01*
X1105770Y316770D01*
X1108180Y314920D01*
X1110987Y313757D01*
X1114000Y313361D01*
X1117012Y313757D01*
X1119820Y314920D01*
X1122230Y316770D01*
X1124080Y319180D01*
X1125243Y321987D01*
X1125640Y325000D01*
X1125243Y328013D01*
X1124080Y330820D01*
X1122230Y333230D01*
X1119820Y335080D01*
X1117012Y336243D01*
X1114000Y336640D01*
D02*
G37*
G36*
X859000D02*
X855987Y336243D01*
X853180Y335080D01*
X850770Y333230D01*
X848920Y330820D01*
X847757Y328013D01*
X847361Y325000D01*
X847757Y321987D01*
X848920Y319180D01*
X850770Y316770D01*
X853180Y314920D01*
X855987Y313757D01*
X859000Y313361D01*
X862013Y313757D01*
X864820Y314920D01*
X867230Y316770D01*
X869080Y319180D01*
X870243Y321987D01*
X870640Y325000D01*
X870243Y328013D01*
X869080Y330820D01*
X867230Y333230D01*
X864820Y335080D01*
X862013Y336243D01*
X859000Y336640D01*
D02*
G37*
G36*
X639000D02*
X635988Y336243D01*
X633180Y335080D01*
X630770Y333230D01*
X628920Y330820D01*
X627757Y328013D01*
X627360Y325000D01*
X627757Y321987D01*
X628920Y319180D01*
X630770Y316770D01*
X633180Y314920D01*
X635988Y313757D01*
X639000Y313361D01*
X642012Y313757D01*
X644820Y314920D01*
X647230Y316770D01*
X649080Y319180D01*
X650243Y321987D01*
X650639Y325000D01*
X650243Y328013D01*
X649080Y330820D01*
X647230Y333230D01*
X644820Y335080D01*
X642012Y336243D01*
X639000Y336640D01*
D02*
G37*
G36*
X1647784Y321825D02*
X1637175D01*
Y311217D01*
X1637676Y311282D01*
X1641101Y312701D01*
X1644042Y314958D01*
X1646299Y317899D01*
X1647718Y321324D01*
X1647784Y321825D01*
D02*
G37*
G36*
X1630825D02*
X1620217D01*
X1620282Y321324D01*
X1621701Y317899D01*
X1623958Y314958D01*
X1626899Y312701D01*
X1630324Y311282D01*
X1630825Y311217D01*
Y321825D01*
D02*
G37*
G36*
X1397784D02*
X1387175D01*
Y311217D01*
X1387676Y311282D01*
X1391101Y312701D01*
X1394042Y314958D01*
X1396299Y317899D01*
X1397718Y321324D01*
X1397784Y321825D01*
D02*
G37*
G36*
X1380825D02*
X1370217D01*
X1370282Y321324D01*
X1371701Y317899D01*
X1373958Y314958D01*
X1376899Y312701D01*
X1380324Y311282D01*
X1380825Y311217D01*
Y321825D01*
D02*
G37*
G36*
X1177784D02*
X1167175D01*
Y311217D01*
X1167676Y311282D01*
X1171101Y312701D01*
X1174042Y314958D01*
X1176299Y317899D01*
X1177718Y321324D01*
X1177784Y321825D01*
D02*
G37*
G36*
X1160825D02*
X1150217D01*
X1150282Y321324D01*
X1151701Y317899D01*
X1153958Y314958D01*
X1156899Y312701D01*
X1160324Y311282D01*
X1160825Y311217D01*
Y321825D01*
D02*
G37*
G36*
X922784D02*
X912175D01*
Y311217D01*
X912676Y311282D01*
X916101Y312701D01*
X919042Y314958D01*
X921299Y317899D01*
X922718Y321324D01*
X922784Y321825D01*
D02*
G37*
G36*
X905825D02*
X895217D01*
X895282Y321324D01*
X896701Y317899D01*
X898958Y314958D01*
X901899Y312701D01*
X905324Y311282D01*
X905825Y311217D01*
Y321825D01*
D02*
G37*
G36*
X702784D02*
X692175D01*
Y311217D01*
X692676Y311282D01*
X696101Y312701D01*
X699042Y314958D01*
X701299Y317899D01*
X702718Y321324D01*
X702784Y321825D01*
D02*
G37*
G36*
X685825D02*
X675217D01*
X675282Y321324D01*
X676701Y317899D01*
X678958Y314958D01*
X681899Y312701D01*
X685324Y311282D01*
X685825Y311217D01*
Y321825D01*
D02*
G37*
G36*
X1801425Y308279D02*
X1801055Y308230D01*
X1797751Y306862D01*
X1794915Y304685D01*
X1792738Y301849D01*
X1791370Y298545D01*
X1791321Y298175D01*
X1801425D01*
Y308279D01*
D02*
G37*
G36*
X1807775D02*
Y295000D01*
Y281721D01*
X1808145Y281770D01*
X1811449Y283138D01*
X1813960Y285065D01*
X1817050Y284514D01*
X1818960Y283960D01*
X1819548Y283960D01*
X1841040D01*
Y306040D01*
X1819548D01*
X1818960Y306040D01*
X1817050Y305486D01*
X1813960Y304935D01*
X1811449Y306862D01*
X1808145Y308230D01*
X1807775Y308279D01*
D02*
G37*
G36*
X1801425Y291825D02*
X1791321D01*
X1791370Y291455D01*
X1792738Y288151D01*
X1794915Y285315D01*
X1797751Y283138D01*
X1801055Y281770D01*
X1801425Y281721D01*
Y291825D01*
D02*
G37*
G36*
X1686540Y275540D02*
X1656460D01*
Y234460D01*
X1686540D01*
Y275540D01*
D02*
G37*
G36*
X1561540D02*
X1531460D01*
Y234460D01*
X1561540D01*
Y275540D01*
D02*
G37*
G36*
X1436540D02*
X1406460D01*
Y234460D01*
X1436540D01*
Y275540D01*
D02*
G37*
G36*
X1311540D02*
X1281460D01*
Y234460D01*
X1311540D01*
Y275540D01*
D02*
G37*
G36*
X1216540D02*
X1186460D01*
Y234460D01*
X1216540D01*
Y275540D01*
D02*
G37*
G36*
X1091540D02*
X1061460D01*
Y234460D01*
X1091540D01*
Y275540D01*
D02*
G37*
G36*
X961540D02*
X931460D01*
Y234460D01*
X961540D01*
Y275540D01*
D02*
G37*
G36*
X836540D02*
X806460D01*
Y234460D01*
X836540D01*
Y275540D01*
D02*
G37*
G36*
X741540D02*
X711460D01*
Y234460D01*
X741540D01*
Y275540D01*
D02*
G37*
G36*
X1860275Y196379D02*
Y186275D01*
X1870379D01*
X1870330Y186645D01*
X1868962Y189949D01*
X1866785Y192785D01*
X1863949Y194962D01*
X1860645Y196330D01*
X1860275Y196379D01*
D02*
G37*
G36*
X1853925D02*
X1853555Y196330D01*
X1850251Y194962D01*
X1847415Y192785D01*
X1845238Y189949D01*
X1843870Y186645D01*
X1843821Y186275D01*
X1853925D01*
Y196379D01*
D02*
G37*
G36*
X1870379Y179925D02*
X1843821D01*
X1843870Y179555D01*
X1845238Y176251D01*
X1847415Y173415D01*
Y167385D01*
X1845238Y164549D01*
X1843870Y161245D01*
X1843821Y160875D01*
X1870379D01*
X1870330Y161245D01*
X1868962Y164549D01*
X1866785Y167385D01*
Y173415D01*
X1868962Y176251D01*
X1870330Y179555D01*
X1870379Y179925D01*
D02*
G37*
G36*
Y154525D02*
X1843821D01*
X1843870Y154155D01*
X1845238Y150851D01*
X1847415Y148015D01*
Y141985D01*
X1845238Y139149D01*
X1843870Y135845D01*
X1843821Y135475D01*
X1870379D01*
X1870330Y135845D01*
X1868962Y139149D01*
X1866785Y141985D01*
Y148015D01*
X1868962Y150851D01*
X1870330Y154155D01*
X1870379Y154525D01*
D02*
G37*
G36*
Y129125D02*
X1843821D01*
X1843870Y128755D01*
X1845238Y125451D01*
X1847415Y122615D01*
Y116585D01*
X1845238Y113749D01*
X1843870Y110445D01*
X1843821Y110075D01*
X1870379D01*
X1870330Y110445D01*
X1868962Y113749D01*
X1866785Y116585D01*
Y122615D01*
X1868962Y125451D01*
X1870330Y128755D01*
X1870379Y129125D01*
D02*
G37*
G36*
Y103725D02*
X1860275D01*
Y93621D01*
X1860645Y93670D01*
X1863949Y95038D01*
X1866785Y97215D01*
X1868962Y100051D01*
X1870330Y103355D01*
X1870379Y103725D01*
D02*
G37*
G36*
X1853925D02*
X1843821D01*
X1843870Y103355D01*
X1845238Y100051D01*
X1847415Y97215D01*
X1850251Y95038D01*
X1853555Y93670D01*
X1853925Y93621D01*
Y103725D01*
D02*
G37*
G36*
X526825Y1503580D02*
X515420D01*
Y1495675D01*
X526825D01*
Y1503580D01*
D02*
G37*
G36*
X509580Y1497080D02*
X500175D01*
Y1488675D01*
X509580D01*
Y1497080D01*
D02*
G37*
G36*
X214580D02*
X205175D01*
Y1488675D01*
X214580D01*
Y1497080D01*
D02*
G37*
G36*
X198825D02*
X189420D01*
Y1488675D01*
X198825D01*
Y1497080D01*
D02*
G37*
G36*
X544580Y1489325D02*
X533175D01*
Y1481420D01*
X544580D01*
Y1489325D01*
D02*
G37*
G36*
X526825D02*
X515420D01*
Y1481420D01*
X526825D01*
Y1489325D01*
D02*
G37*
G36*
X249580Y1489325D02*
X238175D01*
Y1481420D01*
X249580D01*
Y1489325D01*
D02*
G37*
G36*
X231825D02*
X220420D01*
Y1481420D01*
X231825D01*
Y1489325D01*
D02*
G37*
G36*
X507825Y1411825D02*
X499920D01*
Y1402920D01*
X507825D01*
Y1411825D01*
D02*
G37*
G36*
X212825D02*
X204920D01*
Y1402920D01*
X212825D01*
Y1411825D01*
D02*
G37*
G36*
X117550Y1374395D02*
X110425D01*
Y1360175D01*
X125145D01*
Y1366800D01*
X124886Y1368766D01*
X124128Y1370598D01*
X122921Y1372171D01*
X121348Y1373377D01*
X119516Y1374136D01*
X117550Y1374395D01*
D02*
G37*
G36*
X104075D02*
X96950D01*
X94984Y1374136D01*
X93153Y1373377D01*
X91580Y1372171D01*
X90373Y1370598D01*
X89614Y1368766D01*
X89355Y1366800D01*
Y1360175D01*
X104075D01*
Y1374395D01*
D02*
G37*
G36*
X159575Y1373395D02*
X152450D01*
X150484Y1373136D01*
X148653Y1372377D01*
X147080Y1371171D01*
X145873Y1369597D01*
X145114Y1367766D01*
X144855Y1365800D01*
Y1359175D01*
X159575D01*
Y1373395D01*
D02*
G37*
G36*
X104075Y1353825D02*
X89355D01*
Y1347200D01*
X89614Y1345234D01*
X90373Y1343403D01*
X91580Y1341830D01*
X93153Y1340623D01*
X94984Y1339864D01*
X96950Y1339605D01*
X104075D01*
Y1353825D01*
D02*
G37*
G36*
X180645Y1352825D02*
X162750D01*
X144855D01*
Y1346678D01*
X139175D01*
Y1332175D01*
X159178D01*
Y1335250D01*
X163779Y1338605D01*
X173050D01*
X175016Y1338864D01*
X176847Y1339623D01*
X178421Y1340830D01*
X179627Y1342402D01*
X180386Y1344234D01*
X180645Y1346200D01*
Y1352825D01*
D02*
G37*
G36*
X125145Y1353825D02*
X110425D01*
Y1337773D01*
X112822Y1335250D01*
Y1332175D01*
X132825D01*
Y1346678D01*
X125603D01*
X125145Y1347200D01*
Y1353825D01*
D02*
G37*
G36*
X159178Y1325825D02*
X139175D01*
Y1311322D01*
X147750D01*
X150708Y1311712D01*
X153464Y1312853D01*
X155831Y1314669D01*
X157647Y1317036D01*
X158788Y1319792D01*
X159178Y1322750D01*
Y1325825D01*
D02*
G37*
G36*
X132825D02*
X112822D01*
Y1322750D01*
X113212Y1319792D01*
X114353Y1317036D01*
X116169Y1314669D01*
X118536Y1312853D01*
X121292Y1311712D01*
X124250Y1311322D01*
X132825D01*
Y1325825D01*
D02*
G37*
G36*
X123825Y1263080D02*
X115920D01*
Y1254175D01*
X123825D01*
Y1263080D01*
D02*
G37*
G36*
X464080Y1159825D02*
X455675D01*
Y1150420D01*
X464080D01*
Y1159825D01*
D02*
G37*
G36*
X562580Y1055580D02*
X551175D01*
Y1047675D01*
X562580D01*
Y1055580D01*
D02*
G37*
G36*
Y1041325D02*
X551175D01*
Y1033420D01*
X562580D01*
Y1041325D01*
D02*
G37*
G36*
X334825Y1090580D02*
X323420D01*
Y1082675D01*
X334825D01*
Y1090580D01*
D02*
G37*
G36*
Y1076325D02*
X323420D01*
Y1068420D01*
X334825D01*
Y1076325D01*
D02*
G37*
G36*
X428580Y1059580D02*
X417175D01*
Y1051675D01*
X428580D01*
Y1059580D01*
D02*
G37*
G36*
Y1045325D02*
X417175D01*
Y1037420D01*
X428580D01*
Y1045325D01*
D02*
G37*
G36*
X161825Y1076325D02*
X150420D01*
Y1068420D01*
X161825D01*
Y1076325D01*
D02*
G37*
G36*
X118580Y1059580D02*
X107175D01*
Y1051675D01*
X118580D01*
Y1059580D01*
D02*
G37*
G36*
Y1045325D02*
X107175D01*
Y1037420D01*
X118580D01*
Y1045325D01*
D02*
G37*
G36*
X154080Y1159825D02*
X145675D01*
Y1150420D01*
X154080D01*
Y1159825D01*
D02*
G37*
G36*
X745000Y1045649D02*
X742838Y1045219D01*
X741006Y1043994D01*
X740749Y1043609D01*
X679251D01*
X678994Y1043994D01*
X677162Y1045219D01*
X675000Y1045648D01*
X672838Y1045219D01*
X671006Y1043994D01*
X669781Y1042162D01*
X669352Y1040000D01*
X669781Y1037838D01*
X671006Y1036006D01*
X672838Y1034781D01*
X675000Y1034352D01*
X677162Y1034781D01*
X678994Y1036006D01*
X679251Y1036391D01*
X740749D01*
X741006Y1036006D01*
X742838Y1034781D01*
X745000Y1034352D01*
X747162Y1034781D01*
X748994Y1036006D01*
X750219Y1037838D01*
X750648Y1040000D01*
X750219Y1042162D01*
X748994Y1043994D01*
X747162Y1045219D01*
X745000Y1045649D01*
D02*
G37*
G36*
X928000Y1025139D02*
X751000D01*
X749034Y1024748D01*
X747366Y1023634D01*
X743979Y1020247D01*
X743838Y1020219D01*
X742006Y1018994D01*
X740781Y1017162D01*
X740753Y1017021D01*
X737273Y1013540D01*
X730460D01*
X728580Y1017761D01*
Y1018080D01*
X719175D01*
Y1006500D01*
X716000D01*
Y1003325D01*
X703420D01*
Y994920D01*
X705960D01*
Y980460D01*
X701324Y979580D01*
X698675D01*
Y967000D01*
X695500D01*
Y963825D01*
X683920D01*
Y955580D01*
X683920D01*
Y946175D01*
X695500D01*
Y939825D01*
X683920D01*
Y930420D01*
X687960D01*
Y916080D01*
X685420D01*
Y907675D01*
X698000D01*
Y904500D01*
X701175D01*
Y892920D01*
X717825D01*
Y904500D01*
X724175D01*
Y892920D01*
X740825D01*
Y904500D01*
X747175D01*
Y892920D01*
X763825D01*
Y904500D01*
X767000D01*
Y907675D01*
X779580D01*
Y916080D01*
X777040D01*
Y930420D01*
X777325D01*
Y943000D01*
X780500D01*
Y946175D01*
X792080D01*
Y955580D01*
X792080D01*
Y963825D01*
X780500D01*
Y967000D01*
X777325D01*
Y979580D01*
X772033D01*
X771719Y981162D01*
X771639Y981281D01*
Y983500D01*
X771248Y985467D01*
X771040Y985777D01*
Y994920D01*
X773580D01*
Y1003325D01*
X761000D01*
Y1009675D01*
X773580D01*
Y1014861D01*
X906420D01*
Y1009675D01*
X919000D01*
Y1003325D01*
X906420D01*
Y994920D01*
X908960D01*
Y984530D01*
X908960Y980460D01*
X906183Y979933D01*
X904224Y979580D01*
X900675D01*
Y967000D01*
X897500D01*
Y963825D01*
X885920D01*
Y956580D01*
X885920D01*
Y947175D01*
X897500D01*
Y940825D01*
X885920D01*
Y931420D01*
X887325D01*
X891960Y930540D01*
Y916080D01*
X889420D01*
Y907675D01*
X902000D01*
Y904500D01*
X905175D01*
Y892920D01*
X921825D01*
Y904500D01*
X928175D01*
Y892920D01*
X944825D01*
Y904500D01*
X951175D01*
Y892920D01*
X967825D01*
Y904500D01*
X971000D01*
Y907675D01*
X983580D01*
Y916080D01*
X981040D01*
Y930420D01*
X995080D01*
Y939825D01*
X983500D01*
Y946175D01*
X995080D01*
Y955580D01*
X995080D01*
Y963825D01*
X983500D01*
Y967000D01*
X980325D01*
Y979580D01*
X976936D01*
X975992Y980992D01*
X974160Y982217D01*
X973711Y982306D01*
X973040Y982977D01*
Y994920D01*
X975580D01*
Y1003325D01*
X963000D01*
Y1006500D01*
X959825D01*
Y1018080D01*
X950420D01*
Y1017761D01*
X948540Y1013540D01*
X941727D01*
X938247Y1017021D01*
X938219Y1017162D01*
X936994Y1018994D01*
X935162Y1020219D01*
X935021Y1020247D01*
X931634Y1023634D01*
X929966Y1024748D01*
X928000Y1025139D01*
D02*
G37*
G36*
X975580Y1018080D02*
X966175D01*
Y1009675D01*
X975580D01*
Y1018080D01*
D02*
G37*
G36*
X712825D02*
X703420D01*
Y1009675D01*
X712825D01*
Y1018080D01*
D02*
G37*
G36*
X810250Y993148D02*
X808088Y992719D01*
X806256Y991494D01*
X805031Y989662D01*
X804602Y987500D01*
X804692Y987046D01*
X800332Y982686D01*
X799162Y983469D01*
X797000Y983898D01*
X794838Y983469D01*
X793006Y982244D01*
X791781Y980412D01*
X791616Y979580D01*
X789156Y979580D01*
X783675D01*
Y970175D01*
X793363D01*
X797000Y972601D01*
X799162Y973031D01*
X800994Y974256D01*
X801290Y974698D01*
X802381Y974915D01*
X803552Y975698D01*
X809796Y981942D01*
X810250Y981852D01*
X812412Y982281D01*
X814244Y983506D01*
X815469Y985338D01*
X815899Y987500D01*
X815469Y989662D01*
X814244Y991494D01*
X812412Y992719D01*
X810250Y993148D01*
D02*
G37*
G36*
X995080Y979580D02*
X986675D01*
Y970175D01*
X995080D01*
Y979580D01*
D02*
G37*
G36*
X692325D02*
X683920D01*
Y970175D01*
X692325D01*
Y979580D01*
D02*
G37*
G36*
X894325D02*
X885920D01*
Y970175D01*
X894325D01*
Y979580D01*
D02*
G37*
G36*
X792080Y939825D02*
X783675D01*
Y930420D01*
X792080D01*
Y939825D01*
D02*
G37*
G36*
X983580Y901325D02*
X974175D01*
Y892920D01*
X983580D01*
Y901325D01*
D02*
G37*
G36*
X898825D02*
X889420D01*
Y892920D01*
X898825D01*
Y901325D01*
D02*
G37*
G36*
X779580D02*
X770175D01*
Y892920D01*
X779580D01*
Y901325D01*
D02*
G37*
G36*
X694825D02*
X685420D01*
Y892920D01*
X694825D01*
Y901325D01*
D02*
G37*
%LPD*%
D12*
X458000Y582500D02*
X467500D01*
X117000Y592000D02*
X165000D01*
X111000Y586000D02*
X117000Y592000D01*
X111000Y551000D02*
Y586000D01*
X401730Y592730D02*
X448270D01*
X395000Y586000D02*
X401730Y592730D01*
X395000Y580000D02*
Y586000D01*
X448270Y592730D02*
X458000Y583000D01*
X165000Y592000D02*
X173000Y584000D01*
X137000Y598000D02*
Y668000D01*
Y598000D02*
Y598000D01*
Y598000D02*
X419000Y598000D01*
X467000D01*
X487000Y618000D01*
X137000Y668000D02*
X146000Y677000D01*
X112500Y1459500D02*
X116500D01*
X1039750Y820750D02*
Y888750D01*
X1010000Y791000D02*
X1039750Y820750D01*
X847000Y791000D02*
X1010000D01*
X1012000Y786000D02*
X1043130Y817130D01*
Y883130D01*
X1039750Y888750D02*
X1072000Y921000D01*
X1043130Y883130D02*
X1078000Y918000D01*
X989060Y821060D02*
Y874060D01*
X979000Y811000D02*
X989060Y821060D01*
X831000Y811000D02*
X979000D01*
X992330Y869330D02*
X1054000Y931000D01*
X992330Y817706D02*
Y869330D01*
X980624Y806000D02*
X992330Y817706D01*
X989060Y874060D02*
X1048000Y933000D01*
X155000Y1461000D02*
X156000Y1462000D01*
X1017730Y875730D02*
X1066000Y924000D01*
X1017730Y824730D02*
Y875730D01*
X989000Y796000D02*
X1017730Y824730D01*
X1014460Y881618D02*
X1060000Y927158D01*
X1014460Y828429D02*
Y881618D01*
X986761Y800730D02*
X1014460Y828429D01*
X838730Y800730D02*
X986761D01*
X1635000Y159000D02*
Y180000D01*
X640000Y159000D02*
Y180000D01*
X860000Y159000D02*
Y180000D01*
X1830000Y610800D02*
X1830400Y610400D01*
X759000Y694000D02*
X851000Y786000D01*
X1012000D01*
X759000Y664500D02*
Y694000D01*
X444750Y1179000D02*
Y1182250D01*
X433000Y1194000D02*
X444750Y1182250D01*
X118000Y1433000D02*
X172000Y1379000D01*
X76000Y1433000D02*
X118000D01*
X62000Y1447000D02*
X76000Y1433000D01*
X431662Y1450000D02*
X449000D01*
X426662Y1445000D02*
X431662Y1450000D01*
X412000Y1464000D02*
X461000D01*
X411000Y1463000D02*
X412000Y1464000D01*
X410000Y1464000D02*
X411000Y1463000D01*
X433000Y1194000D02*
Y1228000D01*
X446500Y1214500D02*
X474250D01*
X439000Y1207000D02*
X446500Y1214500D01*
X458000Y582500D02*
Y583000D01*
X395000Y549000D02*
Y580000D01*
X124003Y1451997D02*
X172000D01*
X116500Y1459500D02*
X124003Y1451997D01*
X156000Y1462000D02*
X159003Y1458997D01*
X178000D01*
X76000Y1460000D02*
X90000Y1446000D01*
X166000D01*
X118730Y1196270D02*
X137000Y1178000D01*
Y1177000D02*
Y1178000D01*
X118730Y1196270D02*
Y1216730D01*
X125000Y1208000D02*
X133000Y1216000D01*
X164000D01*
X492001Y1237000D02*
X493000D01*
X487001Y1232000D02*
X492001Y1237000D01*
X460000Y1232000D02*
X487001D01*
X459002Y1232998D02*
X460000Y1232000D01*
X457500Y1234500D02*
X459002Y1232998D01*
X457000Y1234000D02*
X457500Y1234500D01*
X173000Y579000D02*
Y584000D01*
Y579000D02*
X394000D01*
X467500Y582500D02*
X500000Y615000D01*
X937500Y602500D02*
X1465000D01*
X339000Y1451000D02*
X364000D01*
X331000Y1459000D02*
X339000Y1451000D01*
X330000Y1459000D02*
X331000D01*
X364000Y1451000D02*
X370000Y1445000D01*
X426662D01*
X370000Y1460000D02*
X379000Y1451000D01*
X369000Y1460000D02*
X370000D01*
X379000Y1451000D02*
X424162D01*
X430162Y1457000D01*
X455000D01*
X310000Y1485000D02*
Y1486000D01*
Y1463000D02*
Y1485000D01*
X310000Y1485000D01*
X310000Y1485000D02*
X310000Y1485000D01*
X298000Y1485000D02*
X310000D01*
X349000Y1464000D02*
Y1485000D01*
X339000Y1484000D02*
X348000D01*
X380000Y1485000D02*
X390000D01*
X390000Y1485000D01*
X390000Y1463000D02*
Y1485000D01*
X349000Y1464000D02*
X350000Y1463000D01*
X73000Y1460000D02*
X76000D01*
X1078000Y918000D02*
Y1032000D01*
X802000Y1308000D02*
X1078000Y1032000D01*
X800000Y1302000D02*
X1072000Y1030000D01*
Y921000D02*
Y1030000D01*
X748000Y1308000D02*
X802000D01*
X738000Y1302000D02*
X800000D01*
X125000Y1485000D02*
X133000D01*
X134000Y1484000D01*
X759000Y664500D02*
X771900Y651600D01*
X746500Y690500D02*
X847000Y791000D01*
X746500Y677000D02*
Y690500D01*
X843000Y796000D02*
X989000D01*
X734000Y687000D02*
X843000Y796000D01*
X734000Y664100D02*
Y687000D01*
X1066000Y924000D02*
Y1026000D01*
X796000Y1296000D02*
X1066000Y1026000D01*
X726000Y1296000D02*
X796000D01*
X124000Y696000D02*
X125500D01*
X184000Y1391000D02*
X259000D01*
X143000Y1432000D02*
X184000Y1391000D01*
X251000Y1379000D02*
X267000Y1363000D01*
X172000Y1379000D02*
X251000D01*
X177000Y1385000D02*
X255000D01*
X122000Y1440000D02*
X177000Y1385000D01*
X102000Y1440000D02*
X122000D01*
X721100Y683100D02*
X838730Y800730D01*
X834869Y806000D02*
X980624D01*
X709000Y680131D02*
X834869Y806000D01*
X721100Y677000D02*
Y683100D01*
X734000Y664100D02*
X746500Y651600D01*
X697000Y677000D02*
X831000Y811000D01*
X695700Y677000D02*
X697000D01*
X793000Y1290000D02*
X1060000Y1023000D01*
Y927158D02*
Y1023000D01*
X790000Y1283000D02*
X1054000Y1019000D01*
Y931000D02*
Y1019000D01*
X714000Y1290000D02*
X793000D01*
X1048000Y933000D02*
Y1015000D01*
X787000Y1276000D02*
X1048000Y1015000D01*
X691000Y1276000D02*
X787000D01*
X703000Y1283000D02*
X790000D01*
X294500Y1044500D02*
X357500Y981500D01*
X294500Y1044500D02*
Y1413500D01*
X326000Y1445000D02*
X358000D01*
X294500Y1413500D02*
X326000Y1445000D01*
X330000Y1438000D02*
X398000D01*
X302000Y1410000D02*
X330000Y1438000D01*
X412000Y970000D02*
Y971000D01*
X709000Y663700D02*
Y680131D01*
Y663700D02*
X721100Y651600D01*
X85000Y1485000D02*
X96000D01*
X96000Y1485000D01*
X56000Y1467000D02*
Y1485000D01*
X46000Y1484000D02*
X47000Y1485000D01*
X46000Y1484000D02*
X46000D01*
X47000Y1485000D02*
X55000D01*
X496500Y1049500D02*
X498500Y1051500D01*
X360250Y1053000D02*
X362000D01*
X56000Y1467000D02*
X56000Y1467000D01*
X1650000Y120000D02*
X1675000D01*
X1098000Y412000D02*
X1604000D01*
X924300Y585700D02*
X1098000Y412000D01*
X924300Y585700D02*
Y645300D01*
X1604000Y412000D02*
X1727000Y289000D01*
X1597000Y401000D02*
X1709000Y289000D01*
X1092000Y401000D02*
X1597000D01*
X911000Y582000D02*
X1092000Y401000D01*
X924300Y645300D02*
X925000Y646000D01*
X911000Y664000D02*
X923000Y676000D01*
X911000Y582000D02*
Y664000D01*
X1178700Y117500D02*
X1205000D01*
X1255000Y305000D02*
X1256000D01*
X1205000Y355000D02*
X1255000Y305000D01*
X968000Y355000D02*
X1205000D01*
X1200000Y346000D02*
X1241000Y305000D01*
X949000Y346000D02*
X1200000D01*
X912000Y411000D02*
X968000Y355000D01*
X912000Y411000D02*
Y457000D01*
X898000Y471000D02*
X912000Y457000D01*
X898000Y471000D02*
Y649000D01*
X886000Y409000D02*
Y664100D01*
X897900Y676000D01*
X886000Y409000D02*
X949000Y346000D01*
X897900Y676000D02*
X898000D01*
X951900Y118100D02*
X952500Y117500D01*
X873000Y652000D02*
X873500Y651500D01*
X785000Y331000D02*
Y451331D01*
X771000Y317000D02*
X785000Y331000D01*
X811000Y345000D02*
Y459000D01*
X783000Y317000D02*
X811000Y345000D01*
X785000Y451331D02*
X861000Y527331D01*
X811000Y459000D02*
X873500Y521500D01*
Y651500D01*
X861000Y664500D02*
X871500Y675000D01*
X861000Y527331D02*
Y664500D01*
X871500Y675000D02*
X872000D01*
X1635000Y159000D02*
X1635000Y159000D01*
X1585000Y159000D02*
X1585000Y159000D01*
X1585000Y159000D02*
Y180000D01*
X1385000Y159000D02*
X1385000Y159000D01*
X1385000Y159000D02*
Y180000D01*
X1335000Y159000D02*
X1335000Y159000D01*
X1335000Y159000D02*
Y180000D01*
X1165000Y159000D02*
X1165000Y159000D01*
X1165000Y159000D02*
Y180000D01*
X1115000Y159000D02*
X1115000Y159000D01*
X1115000Y159000D02*
Y180000D01*
X910000Y159000D02*
X910000Y159000D01*
X910000Y159000D02*
Y180000D01*
X860000Y159000D02*
X860000Y159000D01*
X690000Y159000D02*
X690000Y159000D01*
X690000Y159000D02*
Y180000D01*
X640000Y159000D02*
X640000Y159000D01*
X1780000Y207500D02*
X1781328D01*
X1782500Y206328D01*
Y183700D02*
Y206328D01*
X1781900Y183100D02*
X1782500Y183700D01*
X1648100Y118100D02*
X1650000Y120000D01*
X1421900Y118100D02*
X1422500Y117500D01*
X1398100Y118100D02*
X1421900D01*
X1178100D02*
X1178700Y117500D01*
X923100Y118100D02*
X951900D01*
X726900D02*
X727500Y117500D01*
X703100Y118100D02*
X726900D01*
X597000Y985000D02*
X608000Y974000D01*
X518000Y985000D02*
X597000D01*
X599000Y859399D02*
X608000Y868399D01*
X599000Y858000D02*
Y859399D01*
X608000Y868399D02*
Y974000D01*
X500000Y967000D02*
X518000Y985000D01*
X500000Y615000D02*
Y967000D01*
X394000Y579000D02*
X395000Y580000D01*
X118730Y1216730D02*
X126000Y1224000D01*
X675000Y1040000D02*
X745000D01*
X745000Y1040000D01*
X746000D01*
X801000Y978250D02*
X810250Y987500D01*
X797000Y978250D02*
X801000D01*
X947000Y1039000D02*
X1013000D01*
X746000Y1040000D02*
X746000Y1040000D01*
X456500Y1234500D02*
X456998Y1234998D01*
X218000Y977000D02*
X267000Y1026000D01*
X191000Y1010000D02*
X220000D01*
X177000Y1024000D02*
X191000Y1010000D01*
X185000Y922270D02*
X281000Y1018270D01*
X177000Y925000D02*
X274000Y1022000D01*
X487000Y618000D02*
Y1037000D01*
X146000Y677000D02*
X222000D01*
X234000Y689000D01*
X274000Y1022000D02*
Y1366000D01*
X177000Y885000D02*
Y925000D01*
Y1024000D02*
Y1037500D01*
X133000Y978000D02*
X218000Y977000D01*
X127500Y972500D02*
X133000Y978000D01*
X127000Y972500D02*
X127500D01*
X125000Y970000D02*
Y970500D01*
X127000Y972500D01*
X125000Y969500D02*
Y970000D01*
X226000Y1293000D02*
Y1321000D01*
X164000Y1231000D02*
X226000Y1293000D01*
X145000Y1231000D02*
X164000D01*
X281000Y1018270D02*
Y1369000D01*
X259000Y1391000D02*
X281000Y1369000D01*
X288000Y1042000D02*
Y1418000D01*
Y1042000D02*
X351000Y979000D01*
X288000Y1418000D02*
X318000Y1448000D01*
X302000Y1046000D02*
Y1410000D01*
Y1046000D02*
X362750Y985250D01*
X129000Y1231000D02*
X132000Y1234000D01*
Y1237000D01*
X145000Y1250000D01*
Y1251000D01*
X126000Y1224000D02*
Y1224000D01*
X438000Y1233000D02*
Y1235000D01*
X441000Y1238000D01*
X443000D01*
X454000Y1249000D01*
Y1250000D01*
X435000Y693000D02*
X435500Y692500D01*
X435000Y693000D02*
Y694000D01*
X351000Y754000D02*
Y979000D01*
X267000Y1027000D02*
Y1058000D01*
X185000Y755500D02*
Y922270D01*
X125500Y696000D02*
X185000Y755500D01*
X234000Y1440000D02*
X234000Y1440000D01*
X96000Y1462500D02*
Y1483000D01*
Y1462500D02*
X96000Y1462500D01*
X136000Y1484000D02*
X136000Y1484000D01*
Y1462500D02*
Y1484000D01*
X362750Y985250D02*
X365750D01*
X398500Y985000D01*
X410000Y973500D01*
X410500D02*
X412500Y971500D01*
X410000Y973500D02*
X410500D01*
X412500Y971000D02*
Y971500D01*
X412000Y970000D02*
X412500Y970500D01*
X407478Y965478D02*
X412000Y970000D01*
X357500Y887500D02*
Y981500D01*
Y887500D02*
X412500Y832500D01*
Y832000D02*
Y832500D01*
X407000Y826000D02*
Y826000D01*
X412500Y831500D01*
X351000Y754000D02*
X409000Y696000D01*
X408712Y693712D02*
X410000Y695000D01*
X267000Y1058000D02*
X267000Y1363000D01*
X120000Y963000D02*
X120478Y963478D01*
Y964978D01*
X125000Y969500D01*
X126000Y834000D02*
X177000Y885000D01*
X123712Y693712D02*
X125000Y695000D01*
X126000Y834000D02*
Y834000D01*
X255000Y1385000D02*
X274000Y1366000D01*
X123712Y691712D02*
Y693712D01*
X120000Y688000D02*
X123712Y691712D01*
X120000Y688000D02*
X120000D01*
X123712Y829712D02*
Y831212D01*
X125000Y832500D01*
X120000Y826000D02*
X123712Y829712D01*
X407000Y964000D02*
X407478Y964478D01*
Y965478D01*
X412500Y970500D02*
Y971000D01*
X408712Y691712D02*
Y693712D01*
X405000Y688000D02*
X408712Y691712D01*
D15*
X1332000Y756000D02*
Y756000D01*
X928000Y1020000D02*
X941000Y1007000D01*
X1763500Y209000D02*
Y326500D01*
X1452000Y141000D02*
X1673000D01*
X1404000Y136500D02*
X1447500D01*
X1233500Y141000D02*
X1399500D01*
X1205000Y136500D02*
X1229000D01*
X929000D02*
X975000D01*
X739000Y1008000D02*
X751000Y1020000D01*
X737000Y1008000D02*
X739000D01*
X754500Y141000D02*
X924500D01*
X719500Y136500D02*
X750000D01*
X500000Y1355000D02*
X520250D01*
X471000Y1191000D02*
Y1192000D01*
X478000Y1046500D02*
Y1049000D01*
X340500Y1051000D02*
X340750Y1050750D01*
X190000Y1051500D02*
X192000Y1053500D01*
X52000Y1051500D02*
X54000Y1053500D01*
X25500Y1053000D02*
X29000Y1049500D01*
X689000Y141000D02*
X715000D01*
X639000D02*
X689000D01*
X621500D02*
X639000D01*
X236000Y1356000D02*
X248000D01*
X235000Y1357000D02*
X236000Y1356000D01*
X232000Y1354000D02*
X235000Y1357000D01*
X310000Y1350000D02*
Y1364000D01*
X310000Y1350000D02*
X310000Y1350000D01*
X500000Y1355000D02*
X501000Y1354000D01*
X499000Y1356000D02*
X500000Y1355000D01*
X486000Y1356000D02*
X499000D01*
X228500Y1353750D02*
X231375Y1356625D01*
X236875Y1342125D02*
X247000Y1332000D01*
Y1275000D02*
Y1332000D01*
X234000Y1345000D02*
X236875Y1342125D01*
X230000Y1349000D02*
X234000Y1345000D01*
X500500Y1072000D02*
X502000Y1070500D01*
X191000Y1070500D02*
X192000D01*
X23000Y1024000D02*
X113000Y934000D01*
X23000Y1024000D02*
Y1026000D01*
X522500Y1071000D02*
X523500D01*
X1077201Y855000D02*
X1080000D01*
X417000Y1146500D02*
X436000Y1165500D01*
X53000Y1347000D02*
Y1397000D01*
X126000Y1101000D02*
Y1167500D01*
X411500Y1080500D02*
X417000D01*
X235500Y1076500D02*
X239000D01*
X101500Y1080500D02*
X105000D01*
X38000Y1412000D02*
X53000Y1397000D01*
Y1347000D02*
X77250Y1322750D01*
Y1216250D02*
Y1322750D01*
X336000Y1352000D02*
X337000D01*
Y1266500D02*
Y1352000D01*
Y1266500D02*
X434000Y1169500D01*
X336000Y1352000D02*
X369000Y1385000D01*
X168000Y1196000D02*
X247000Y1275000D01*
X530000Y1246000D02*
Y1333000D01*
X519500Y1343500D02*
X530000Y1333000D01*
X519500Y1343500D02*
Y1345250D01*
X513750Y1351000D02*
X519500Y1345250D01*
X512000Y1351000D02*
X513750D01*
X369000Y1385000D02*
X543000D01*
X526500Y1462000D02*
X530000D01*
X511000Y1444000D02*
X514000D01*
X492000Y1469000D02*
X497500D01*
X495000Y1467000D02*
X505000Y1457000D01*
X326000Y1487000D02*
X330000D01*
X437000Y972000D02*
X438000Y971000D01*
X428000Y972000D02*
X437000D01*
X437500Y832000D02*
Y971000D01*
X435000Y828000D02*
X438000Y831000D01*
X435000Y694000D02*
Y828000D01*
X476000Y1192000D02*
X530000Y1246000D01*
X1094000Y739000D02*
Y838201D01*
X1023000Y668000D02*
X1094000Y739000D01*
X1077201Y855000D02*
X1094000Y838201D01*
X417000Y1080500D02*
Y1146500D01*
X340750Y1050750D02*
X350000Y1041500D01*
X168000Y1194000D02*
Y1196000D01*
X452000Y1186500D02*
X453000Y1185500D01*
Y1163500D02*
Y1185500D01*
X461000Y1179668D02*
X464270Y1182938D01*
Y1184270D01*
X471000Y1191000D01*
X970500Y975000D02*
X972498Y976998D01*
X964000Y984750D02*
X971750Y977000D01*
X971998Y976998D02*
X972498D01*
X971752D02*
X971998D01*
X971750Y977000D02*
X971752Y976998D01*
X436000Y1168500D02*
Y1181000D01*
Y1168500D02*
X437000Y1167500D01*
X1332000Y756000D02*
Y757000D01*
X126000Y1167500D02*
Y1179000D01*
X722000Y922000D02*
X725000Y925000D01*
X742000D02*
X744000Y923000D01*
X725000Y925000D02*
X732000D01*
X742000D01*
X925500Y921500D02*
X928998Y924998D01*
X925000Y922000D02*
X925500Y921500D01*
X928998Y924998D02*
X935998D01*
X944002D01*
X945000Y924000D01*
X945500Y924500D01*
X252000Y1510000D02*
X275000Y1487000D01*
X56000Y1510000D02*
X252000D01*
X38000Y1492000D02*
X56000Y1510000D01*
X967000Y944000D02*
Y967000D01*
X968000Y968000D01*
X967750Y921250D02*
Y924250D01*
X918500Y990500D02*
X940500D01*
X915000Y970000D02*
Y986000D01*
X762000Y970000D02*
X766500Y974500D01*
X761000Y988000D02*
X762000D01*
X764000Y967000D02*
X765000Y968000D01*
X764000Y944000D02*
Y967000D01*
X764750Y921250D02*
Y924250D01*
X715500Y990500D02*
X737500D01*
X712000Y970000D02*
Y986000D01*
X712000Y937250D02*
Y956000D01*
X1332000Y756000D02*
X1334000D01*
X1330600D02*
X1332000D01*
X1334000D02*
X1763500Y326500D01*
X1330600Y756000D02*
Y758600D01*
X1331000Y759000D01*
X409000Y1485000D02*
Y1486000D01*
X397000Y1498000D02*
X409000Y1486000D01*
X438000Y971000D02*
Y971000D01*
X413000Y1482000D02*
X417000Y1478000D01*
X412000Y1481000D02*
X413000Y1482000D01*
X330000Y1487000D02*
X341000Y1498000D01*
X357000D01*
X369000Y1486000D01*
Y1485000D02*
Y1486000D01*
X370000Y1488000D02*
X371000D01*
X381000Y1498000D01*
X397000D01*
X150000Y969500D02*
Y971000D01*
X540000Y1517000D02*
X568000Y1489000D01*
X305000Y1517000D02*
X540000D01*
X275000Y1487000D02*
X305000Y1517000D01*
X477000Y1051500D02*
X498500D01*
X475000Y1049500D02*
X477000Y1051500D01*
X340750Y1050750D02*
X340750D01*
X340000Y1051000D02*
X340500D01*
X498500Y1051500D02*
X500500D01*
X501000Y1052000D01*
X915000Y944000D02*
Y956000D01*
Y968000D01*
X945500Y924500D02*
X947000Y923000D01*
X630000Y222500D02*
X850000D01*
X627500D02*
X630000D01*
X850000D02*
X1105000D01*
X1325000D01*
X1575000D01*
X610000Y205000D02*
X627500Y222500D01*
X610000Y152500D02*
Y205000D01*
Y152500D02*
X621500Y141000D01*
X1447500Y136500D02*
X1452000Y141000D01*
X1229000Y136500D02*
X1233500Y141000D01*
X978500Y140000D02*
X1114000D01*
X975000Y136500D02*
X978500Y140000D01*
X750000Y136500D02*
X754500Y141000D01*
X715000Y141000D02*
X719500Y136500D01*
X924500Y141000D02*
X929000Y136500D01*
X1114000Y140000D02*
X1115000Y141000D01*
X1165000D01*
X1167250Y138750D01*
X1202750D01*
X1205000Y136500D01*
X1399500Y141000D02*
X1404000Y136500D01*
X1673000Y141000D02*
X1675000Y139000D01*
X1693500D01*
X1763500Y209000D01*
X113000Y796000D02*
Y934000D01*
X578000Y1033000D02*
Y1117000D01*
X503000Y1192000D02*
X578000Y1117000D01*
X476000Y1192000D02*
X503000D01*
X762000Y988000D02*
X766500Y983500D01*
Y974500D02*
Y979000D01*
Y983500D01*
X964000Y984750D02*
Y988000D01*
X965000Y970000D02*
X967000Y968000D01*
X708000Y933250D02*
X712000Y937250D01*
X708000Y933250D02*
X708000Y933250D01*
Y933250D02*
Y933250D01*
X759500Y990500D02*
X760000Y990000D01*
X739500Y990500D02*
X759500D01*
X739000Y991000D02*
X739500Y990500D01*
X737500D02*
X738000Y991000D01*
X715000Y990000D02*
X715500Y990500D01*
X712000Y968000D02*
X712000Y968000D01*
X703000Y924000D02*
Y925000D01*
X699000Y922000D02*
X721000D01*
X763000Y942000D02*
X764000Y941000D01*
X762000Y970000D02*
X764000Y968000D01*
X712000Y986000D02*
X716000Y990000D01*
X712000Y970000D02*
X712000Y970000D01*
X712000Y956000D02*
Y968000D01*
X764000Y932000D02*
Y941000D01*
X764000Y926000D02*
Y932000D01*
X763000Y926000D02*
X764750Y924250D01*
X760000Y926000D02*
X763000D01*
X745000Y922000D02*
X749000Y926000D01*
X756250D01*
X756750D02*
X760000D01*
X760000Y926000D01*
X703000Y925000D02*
X708000Y930000D01*
Y933250D01*
X911000D02*
Y935250D01*
Y930000D02*
Y933250D01*
X906000Y925000D02*
X911000Y930000D01*
X963000Y926000D02*
X963000Y926000D01*
X959750Y926000D02*
X963000D01*
X952000D02*
X959250D01*
X948000Y922000D02*
X952000Y926000D01*
X963000Y926000D02*
X966000D01*
X967750Y924250D01*
X967000Y926000D02*
Y932000D01*
X967000D02*
Y941000D01*
X911000Y933250D02*
Y940000D01*
X751000Y1020000D02*
X928000D01*
X915000Y970000D02*
X915000Y970000D01*
Y986000D02*
X919000Y990000D01*
X966000Y942000D02*
X967000Y941000D01*
X902000Y922000D02*
X924000D01*
X906000Y924000D02*
Y925000D01*
X911000Y940000D02*
X915000Y944000D01*
Y968000D02*
X915000Y968000D01*
X918000Y990000D02*
X918500Y990500D01*
X940500D02*
X941000Y991000D01*
X942000Y991000D02*
X942500Y990500D01*
X962500D01*
X963000Y990000D01*
X438000Y971000D02*
X438000D01*
X437500D02*
X438000D01*
X444000Y965000D02*
Y965000D01*
X438000Y971000D02*
X444000Y965000D01*
X155000Y963000D02*
Y963000D01*
X150000Y968000D02*
X155000Y963000D01*
X150000Y968000D02*
Y970000D01*
X168500Y1078500D02*
X183000D01*
X167000Y1080000D02*
X168500Y1078500D01*
X183000D02*
X191000Y1070500D01*
X500000Y1072000D02*
X500500D01*
X491000Y1081000D02*
X500000Y1072000D01*
X481000Y1081000D02*
X491000D01*
X565000Y1020000D02*
X578000Y1033000D01*
X505000Y1020000D02*
X565000D01*
X487500Y1037500D02*
X505000Y1020000D01*
X168000Y1194000D02*
X186000D01*
X193127Y1021873D02*
X256000D01*
X256127D02*
X262230Y1027976D01*
X487000Y1037500D02*
X487500D01*
X486500D02*
X487000D01*
X210000Y1456000D02*
Y1461500D01*
X206250Y1466250D02*
X207500Y1465000D01*
X203500Y1469000D02*
X206250Y1466250D01*
X209000Y1469000D01*
X202500Y1469000D02*
X203500D01*
X207500Y1464000D02*
X210000Y1461500D01*
X207500Y1464000D02*
Y1465000D01*
X483000Y1478000D02*
X492000Y1469000D01*
X417000Y1478000D02*
X483000D01*
X234000Y1415000D02*
X249000D01*
X234000Y1417000D02*
X235000Y1416000D01*
X234000Y1417000D02*
Y1440000D01*
X170000Y1469000D02*
X202500D01*
X158500Y1480500D02*
X170000Y1469000D01*
X157500Y1480500D02*
X158500D01*
X154000Y1484000D02*
X157500Y1480500D01*
X154000Y1484000D02*
Y1485000D01*
X224500Y1469000D02*
X231500Y1462000D01*
X209000Y1469000D02*
X224500D01*
X523000D02*
X530000Y1462000D01*
X502000Y1469000D02*
X523000D01*
X500000Y1467000D02*
X502000Y1469000D01*
X412000Y1481000D02*
Y1483000D01*
X262230Y1027976D02*
Y1117770D01*
X186000Y1194000D02*
X262230Y1117770D01*
X38000Y1412000D02*
Y1492000D01*
X236000Y1073500D02*
X237250Y1074750D01*
X110000Y1082000D02*
X122000D01*
X102000Y1498000D02*
X114000Y1486000D01*
X86000Y1498000D02*
X102000D01*
X76000Y1488000D02*
X86000Y1498000D01*
X143000D02*
X150500Y1490500D01*
X125000Y1498000D02*
X143000D01*
X115000Y1488000D02*
X125000Y1498000D01*
X150500Y1488500D02*
Y1490500D01*
X76000Y1486000D02*
Y1488000D01*
X114000Y1485000D02*
Y1486000D01*
X150500Y1488500D02*
X154000Y1485000D01*
X258000Y1424000D02*
Y1425000D01*
X249000Y1415000D02*
X258000Y1424000D01*
X529000Y1416000D02*
Y1440000D01*
Y1415000D02*
Y1415000D01*
X542500Y1419500D02*
X552000Y1429000D01*
X532500Y1419500D02*
X542500D01*
X529000Y1416000D02*
X532500Y1419500D01*
X529000Y1415000D02*
Y1416000D01*
Y1415000D02*
X530000Y1414000D01*
X113000Y796000D02*
X113000Y796000D01*
Y934000D02*
X148000Y969000D01*
X113980Y796980D02*
X149000Y832000D01*
X150000Y832000D02*
Y832500D01*
X113000Y678929D02*
X115929Y676000D01*
X113000Y678929D02*
Y796000D01*
X115929Y676000D02*
X131000D01*
X149000Y694000D01*
X149500D01*
X150000Y694500D01*
Y695000D01*
X150000Y693000D02*
X155000Y688000D01*
X150000Y832000D02*
X156000Y826000D01*
X148000Y969000D02*
X149500D01*
X150000Y969500D01*
X31000Y1045000D02*
X40000Y1036000D01*
X90000Y1069000D02*
X101500Y1080500D01*
X84000Y1069000D02*
X90000D01*
X397000Y1003000D02*
X428000Y972000D01*
X359000Y1003000D02*
X397000D01*
X438000Y831000D02*
X443000Y826000D01*
X436000Y692000D02*
Y693000D01*
Y692000D02*
X440000Y688000D01*
X310000Y1052000D02*
X359000Y1003000D01*
X310000Y1350000D02*
X310000Y1052000D01*
X545000Y1077000D02*
Y1077000D01*
X478000Y1049000D02*
X478500Y1049500D01*
X478000Y1046500D02*
X487000Y1037500D01*
X470000Y1021000D02*
X486500Y1037500D01*
X365000Y1021000D02*
X470000D01*
X351000Y1035000D02*
X365000Y1021000D01*
X57000Y1019000D02*
X157000D01*
X41000Y1035000D02*
X57000Y1019000D01*
X157000D02*
X175500Y1037500D01*
X177000D01*
X178000Y1037000D02*
X193127Y1021873D01*
X151000Y1181000D02*
X158000Y1188000D01*
X147000Y1181000D02*
X151000D01*
X350000Y1036000D02*
Y1041500D01*
X436000Y1166500D02*
X437000Y1167500D01*
X77250Y1216250D02*
X126000Y1167500D01*
X340750Y1050750D02*
X341750Y1051750D01*
X31000Y1045000D02*
Y1047000D01*
X81000Y1101000D02*
X101500Y1080500D01*
X73000Y1101000D02*
X81000D01*
X383000D02*
X391000D01*
X411500Y1080500D01*
X165000Y1049500D02*
X168500D01*
X177000Y1037500D02*
Y1041000D01*
X168500Y1049500D02*
X177000Y1041000D01*
X210000Y1102000D02*
X210107D01*
X232000Y1080107D01*
Y1080000D02*
Y1080107D01*
Y1080000D02*
X235500Y1076500D01*
X192000Y1096000D02*
X217000Y1071000D01*
X136000Y1096000D02*
X192000D01*
X122000Y1082000D02*
X136000Y1096000D01*
X545000Y1076750D02*
Y1077000D01*
X523000Y1099000D02*
X545000Y1077000D01*
X542000Y1073750D02*
X545000Y1076750D01*
X526250Y1073750D02*
X542000D01*
X523500Y1071000D02*
X526250Y1073750D01*
X457000Y1091000D02*
X502500D01*
X522500Y1071000D01*
X523000Y1099000D02*
Y1100000D01*
X447396Y1080500D02*
X457166Y1090270D01*
X475000Y1049500D02*
X478500D01*
X569000Y1411000D02*
Y1488000D01*
X543000Y1385000D02*
X569000Y1411000D01*
X106500Y1082000D02*
X110000D01*
X112000Y1084000D01*
X105000Y1080500D02*
X106500Y1082000D01*
X112000Y1087000D02*
X126000Y1101000D01*
X112000Y1084000D02*
Y1087000D01*
X514500Y1450000D02*
X526500Y1462000D01*
X514000Y1444000D02*
X514500Y1444500D01*
Y1450000D01*
X217000Y1442000D02*
X219500Y1444500D01*
Y1450000D01*
X231500Y1462000D01*
X235000D01*
X32500Y1051500D02*
X52000D01*
X31000Y1050000D02*
X32500Y1051500D01*
X167500Y1051500D02*
X190000D01*
X218000Y1070000D02*
X221500Y1073500D01*
X236000D01*
X359000Y1051750D02*
X360250Y1053000D01*
X341750Y1051750D02*
X359000D01*
X402000Y1071000D02*
X411500Y1080500D01*
X395000Y1071000D02*
X402000D01*
X417000Y1080500D02*
X447396D01*
X434000Y1167000D02*
Y1169500D01*
D17*
X738000Y1006000D02*
D03*
Y990000D02*
D03*
X941000Y1006000D02*
D03*
Y990000D02*
D03*
D18*
X436500Y971000D02*
D03*
X411500D02*
D03*
X149500Y970000D02*
D03*
X124500D02*
D03*
X436500Y832000D02*
D03*
X411500D02*
D03*
X149500D02*
D03*
X124500D02*
D03*
X434500Y695000D02*
D03*
X409500D02*
D03*
X149500D02*
D03*
X124500D02*
D03*
D19*
X1635000Y159000D02*
D03*
Y141000D02*
D03*
X1585000Y159000D02*
D03*
Y141000D02*
D03*
X1675000Y121000D02*
D03*
Y139000D02*
D03*
X910000Y159000D02*
D03*
Y141000D02*
D03*
X860000Y159000D02*
D03*
Y141000D02*
D03*
X952000Y118000D02*
D03*
Y136000D02*
D03*
X689000Y159000D02*
D03*
Y141000D02*
D03*
X639000Y159000D02*
D03*
Y141000D02*
D03*
X729000Y118000D02*
D03*
Y136000D02*
D03*
X1165000Y159000D02*
D03*
Y141000D02*
D03*
X1115000Y159000D02*
D03*
Y141000D02*
D03*
X1205000Y118000D02*
D03*
Y136000D02*
D03*
X1384000Y159000D02*
D03*
Y141000D02*
D03*
X1334000Y159000D02*
D03*
Y141000D02*
D03*
X1424000Y118000D02*
D03*
Y136000D02*
D03*
D20*
X1781000Y210000D02*
D03*
X1763000D02*
D03*
X453000Y1250000D02*
D03*
X435000D02*
D03*
X145000Y1251000D02*
D03*
X127000D02*
D03*
X453000Y1231000D02*
D03*
X435000D02*
D03*
X145000D02*
D03*
X127000D02*
D03*
X390000Y1485000D02*
D03*
X408000D02*
D03*
X56000D02*
D03*
X74000D02*
D03*
X408000Y1463000D02*
D03*
X390000D02*
D03*
X73000D02*
D03*
X55000D02*
D03*
X350000Y1485000D02*
D03*
X368000D02*
D03*
X96000D02*
D03*
X114000D02*
D03*
X368000Y1463000D02*
D03*
X350000D02*
D03*
X113000D02*
D03*
X95000D02*
D03*
X511000Y1415000D02*
D03*
X529000D02*
D03*
X216000D02*
D03*
X234000D02*
D03*
X511000Y1440000D02*
D03*
X529000D02*
D03*
X216000D02*
D03*
X234000D02*
D03*
X309000Y1485000D02*
D03*
X327000D02*
D03*
X136000D02*
D03*
X154000D02*
D03*
X327000Y1463000D02*
D03*
X309000D02*
D03*
X154000D02*
D03*
X136000D02*
D03*
D21*
X530000Y1461500D02*
D03*
Y1492500D02*
D03*
X235000Y1461500D02*
D03*
Y1492500D02*
D03*
X338000Y1079500D02*
D03*
Y1048500D02*
D03*
X28000Y1080500D02*
D03*
Y1049500D02*
D03*
X474000Y1079500D02*
D03*
Y1048500D02*
D03*
X165000Y1079500D02*
D03*
Y1048500D02*
D03*
X414000Y1079500D02*
D03*
Y1048500D02*
D03*
X104000Y1079500D02*
D03*
Y1048500D02*
D03*
X548000Y1075500D02*
D03*
Y1044500D02*
D03*
X239000Y1075500D02*
D03*
Y1044500D02*
D03*
D22*
X497000Y1485500D02*
D03*
Y1468500D02*
D03*
X202000Y1485500D02*
D03*
Y1468500D02*
D03*
X501000Y1052500D02*
D03*
Y1069500D02*
D03*
X192000Y1052500D02*
D03*
Y1069500D02*
D03*
X363000Y1053500D02*
D03*
Y1070500D02*
D03*
X54000Y1052500D02*
D03*
Y1069500D02*
D03*
X523000Y1053500D02*
D03*
Y1070500D02*
D03*
X217000Y1052500D02*
D03*
Y1069500D02*
D03*
X387000Y1053500D02*
D03*
Y1070500D02*
D03*
X78000Y1052500D02*
D03*
Y1069500D02*
D03*
X767000Y904500D02*
D03*
Y921500D02*
D03*
X744000Y904500D02*
D03*
Y921500D02*
D03*
X721000Y904500D02*
D03*
Y921500D02*
D03*
X698000Y904500D02*
D03*
Y921500D02*
D03*
X716000Y1006500D02*
D03*
Y989500D02*
D03*
X761000Y1006500D02*
D03*
Y989500D02*
D03*
X971000Y904500D02*
D03*
Y921500D02*
D03*
X948000Y904500D02*
D03*
Y921500D02*
D03*
X925000Y904500D02*
D03*
Y921500D02*
D03*
X902000Y904500D02*
D03*
Y921500D02*
D03*
X919000Y1006500D02*
D03*
Y989500D02*
D03*
X963000Y1006500D02*
D03*
Y989500D02*
D03*
D23*
X505250Y1357000D02*
D03*
X444750D02*
D03*
X223250Y1356000D02*
D03*
X162750D02*
D03*
X391250Y1357000D02*
D03*
X330750D02*
D03*
X107250D02*
D03*
X46750D02*
D03*
D24*
X470500Y1192000D02*
D03*
X453500D02*
D03*
X159500Y1193000D02*
D03*
X142500D02*
D03*
X452500Y1163000D02*
D03*
X435500D02*
D03*
X142500D02*
D03*
X125500D02*
D03*
X763500Y967000D02*
D03*
X780500D02*
D03*
X712500D02*
D03*
X695500D02*
D03*
X966500D02*
D03*
X983500D02*
D03*
X914500D02*
D03*
X897500D02*
D03*
X780500Y943000D02*
D03*
X763500D02*
D03*
X695500D02*
D03*
X712500D02*
D03*
X983500D02*
D03*
X966500D02*
D03*
X897500Y944000D02*
D03*
X914500D02*
D03*
D48*
X1278960Y757040D02*
X1280000Y756000D01*
X1104000Y804270D02*
Y1057000D01*
X830000Y1331000D02*
X1104000Y1057000D01*
X562000Y1331000D02*
X830000D01*
X539500Y1353500D02*
X562000Y1331000D01*
X622901Y835099D02*
X624000Y834000D01*
X513000Y1354000D02*
X513500Y1353500D01*
X539500D01*
X1104000Y804270D02*
X1117270Y791000D01*
X1257000D02*
X1278960Y769040D01*
X1117270Y791000D02*
X1257000D01*
X1278960Y757040D02*
Y769040D01*
X597501Y835499D02*
X598000Y835000D01*
D49*
X1079300Y857700D02*
D03*
X644900Y423000D02*
D03*
Y651600D02*
D03*
X1780900Y183100D02*
D03*
X1830000Y295000D02*
D03*
D50*
X1079300Y832300D02*
D03*
X1053900Y857700D02*
D03*
Y832300D02*
D03*
X1028500Y857700D02*
D03*
Y832300D02*
D03*
X1003100Y857700D02*
D03*
Y832300D02*
D03*
X977700Y857700D02*
D03*
Y832300D02*
D03*
X952300Y857700D02*
D03*
Y832300D02*
D03*
X926900Y857700D02*
D03*
Y832300D02*
D03*
X901500Y857700D02*
D03*
Y832300D02*
D03*
X876100Y857700D02*
D03*
Y832300D02*
D03*
X850700Y857700D02*
D03*
Y832300D02*
D03*
X825300Y857700D02*
D03*
Y832300D02*
D03*
X799900Y857700D02*
D03*
Y832300D02*
D03*
X774500Y857700D02*
D03*
Y832300D02*
D03*
X749100Y857700D02*
D03*
Y832300D02*
D03*
X723700Y857700D02*
D03*
Y832300D02*
D03*
X698300Y857700D02*
D03*
Y832300D02*
D03*
X672900Y857700D02*
D03*
Y832300D02*
D03*
X647500Y857700D02*
D03*
Y832300D02*
D03*
X622100Y857700D02*
D03*
Y832300D02*
D03*
X596700Y857700D02*
D03*
Y832300D02*
D03*
X1320900Y41900D02*
D03*
X1346300D02*
D03*
X1371700D02*
D03*
X1397100D02*
D03*
X1320900Y118100D02*
D03*
X1346300D02*
D03*
X1371700D02*
D03*
X975100Y448400D02*
D03*
Y423000D02*
D03*
X949700Y448400D02*
D03*
Y423000D02*
D03*
X924300Y448400D02*
D03*
Y423000D02*
D03*
X898900Y448400D02*
D03*
Y423000D02*
D03*
X873500Y448400D02*
D03*
Y423000D02*
D03*
X848100Y448400D02*
D03*
Y423000D02*
D03*
X822700Y448400D02*
D03*
Y423000D02*
D03*
X797300Y448400D02*
D03*
Y423000D02*
D03*
X771900Y448400D02*
D03*
Y423000D02*
D03*
X746500Y448400D02*
D03*
Y423000D02*
D03*
X721100Y448400D02*
D03*
Y423000D02*
D03*
X695700Y448400D02*
D03*
Y423000D02*
D03*
X670300Y448400D02*
D03*
Y423000D02*
D03*
X644900Y448400D02*
D03*
X975100Y677000D02*
D03*
Y651600D02*
D03*
X949700Y677000D02*
D03*
Y651600D02*
D03*
X924300Y677000D02*
D03*
Y651600D02*
D03*
X898900Y677000D02*
D03*
Y651600D02*
D03*
X873500Y677000D02*
D03*
Y651600D02*
D03*
X848100Y677000D02*
D03*
Y651600D02*
D03*
X822700Y677000D02*
D03*
Y651600D02*
D03*
X797300Y677000D02*
D03*
Y651600D02*
D03*
X771900Y677000D02*
D03*
Y651600D02*
D03*
X746500Y677000D02*
D03*
Y651600D02*
D03*
X721100Y677000D02*
D03*
Y651600D02*
D03*
X695700Y677000D02*
D03*
Y651600D02*
D03*
X670300Y677000D02*
D03*
Y651600D02*
D03*
X644900Y677000D02*
D03*
X1857100Y106900D02*
D03*
Y132300D02*
D03*
Y157700D02*
D03*
Y183100D02*
D03*
X1780900Y106900D02*
D03*
Y132300D02*
D03*
Y157700D02*
D03*
X1571900Y41900D02*
D03*
X1597300D02*
D03*
X1622700D02*
D03*
X1648100D02*
D03*
X1571900Y118100D02*
D03*
X1597300D02*
D03*
X1622700D02*
D03*
X1804600Y295000D02*
D03*
X846900Y41900D02*
D03*
X872300D02*
D03*
X897700D02*
D03*
X923100D02*
D03*
X846900Y118100D02*
D03*
X872300D02*
D03*
X897700D02*
D03*
X625900Y41900D02*
D03*
X651300D02*
D03*
X676700D02*
D03*
X702100D02*
D03*
X625900Y118100D02*
D03*
X651300D02*
D03*
X676700D02*
D03*
X1100900Y41900D02*
D03*
X1126300D02*
D03*
X1151700D02*
D03*
X1177100D02*
D03*
X1100900Y118100D02*
D03*
X1126300D02*
D03*
X1151700D02*
D03*
D51*
X136000Y575000D02*
D03*
X419000D02*
D03*
X136000Y1329000D02*
D03*
X419000D02*
D03*
D52*
X1630000Y552500D02*
D03*
Y575000D02*
D03*
X1830000Y686800D02*
D03*
Y661400D02*
D03*
Y636000D02*
D03*
Y610600D02*
D03*
D53*
X1049000Y550000D02*
D03*
X1304500Y455500D02*
D03*
Y644500D02*
D03*
D54*
X1330500Y756000D02*
D03*
X1305100D02*
D03*
X1279700D02*
D03*
X1228900D02*
D03*
D55*
X1203500D02*
D03*
D56*
X1397100Y118100D02*
D03*
X1648100D02*
D03*
X923100D02*
D03*
X702100D02*
D03*
X1177100D02*
D03*
D57*
X1421500Y255000D02*
D03*
X1296500D02*
D03*
X1201500D02*
D03*
X1076500D02*
D03*
X946500D02*
D03*
X821500D02*
D03*
X726500D02*
D03*
X601500D02*
D03*
X1671500D02*
D03*
X1546500D02*
D03*
D58*
X1384000Y325000D02*
D03*
X1334000D02*
D03*
X1384000Y180000D02*
D03*
X1359000D02*
D03*
X1334000D02*
D03*
X1164000Y325000D02*
D03*
X1114000D02*
D03*
X1164000Y180000D02*
D03*
X1139000D02*
D03*
X1114000D02*
D03*
X909000Y325000D02*
D03*
X859000D02*
D03*
X909000Y180000D02*
D03*
X884000D02*
D03*
X859000D02*
D03*
X689000Y325000D02*
D03*
X639000D02*
D03*
X689000Y180000D02*
D03*
X664000D02*
D03*
X639000D02*
D03*
X1634000Y325000D02*
D03*
X1584000D02*
D03*
X1634000Y180000D02*
D03*
X1609000D02*
D03*
X1584000D02*
D03*
D59*
X1882000Y958000D02*
D03*
Y928000D02*
D03*
D60*
X1830000Y585200D02*
D03*
D61*
X384700Y110700D02*
D03*
X453300D02*
D03*
Y179300D02*
D03*
X384700D02*
D03*
X100700Y110700D02*
D03*
X169300D02*
D03*
Y179300D02*
D03*
X100700D02*
D03*
D62*
X419000Y145000D02*
D03*
X135000D02*
D03*
D63*
X137000Y598000D02*
D03*
X419000D02*
D03*
X248000Y1356000D02*
D03*
X310000Y1364000D02*
D03*
X367000Y1365000D02*
D03*
X418000Y1366000D02*
D03*
X486000Y1356000D02*
D03*
X472000Y1366000D02*
D03*
X248000Y1368000D02*
D03*
X23000Y1026000D02*
D03*
X1875000Y889000D02*
D03*
X460750Y1179000D02*
D03*
X444750D02*
D03*
X998000Y968500D02*
D03*
X971998Y976998D02*
D03*
X796000Y968000D02*
D03*
X449000Y1450000D02*
D03*
X461000Y1464000D02*
D03*
X436000Y1181000D02*
D03*
X439000Y1207000D02*
D03*
X111000Y551000D02*
D03*
X395000Y549000D02*
D03*
X178000Y1458997D02*
D03*
X172000Y1451997D02*
D03*
X166000Y1446000D02*
D03*
X126000Y1179000D02*
D03*
X137000Y1177000D02*
D03*
X125000Y1208000D02*
D03*
X493000Y1237000D02*
D03*
X732000Y925000D02*
D03*
X935998Y924998D02*
D03*
X746000Y1015000D02*
D03*
X933000D02*
D03*
X164000Y1216000D02*
D03*
X712035Y980797D02*
D03*
X173000Y579000D02*
D03*
X458000Y583000D02*
D03*
X1465000Y602500D02*
D03*
X937500D02*
D03*
X1810000Y720000D02*
D03*
X401000Y1110000D02*
D03*
X471000Y1102000D02*
D03*
X445000Y1094000D02*
D03*
X530000Y1477000D02*
D03*
X455000Y1457000D02*
D03*
X298000Y1485000D02*
D03*
X339000Y1484000D02*
D03*
X380000Y1485000D02*
D03*
X748000Y1308000D02*
D03*
X738000Y1302000D02*
D03*
X125000Y1485000D02*
D03*
X143000Y1432000D02*
D03*
X102000Y1440000D02*
D03*
X600000Y1445000D02*
D03*
Y1490000D02*
D03*
X726000Y1296000D02*
D03*
X714000Y1290000D02*
D03*
X703000Y1283000D02*
D03*
X691000Y1276000D02*
D03*
X358000Y1445000D02*
D03*
X398000Y1438000D02*
D03*
X85000Y1485000D02*
D03*
X46000Y1484000D02*
D03*
X915000Y956000D02*
D03*
X610000Y220000D02*
D03*
Y330000D02*
D03*
X625000Y395000D02*
D03*
Y470000D02*
D03*
Y545000D02*
D03*
Y620000D02*
D03*
Y695000D02*
D03*
Y70000D02*
D03*
X700000D02*
D03*
X775000D02*
D03*
X850000D02*
D03*
X950000D02*
D03*
X1025000D02*
D03*
X1100000D02*
D03*
X1175000D02*
D03*
X1250000D02*
D03*
X1325000D02*
D03*
X1425000D02*
D03*
X1500000D02*
D03*
X1575000D02*
D03*
X1650000D02*
D03*
X1700000D02*
D03*
X1775000D02*
D03*
X1850000Y220000D02*
D03*
Y270000D02*
D03*
Y345000D02*
D03*
Y420000D02*
D03*
Y565000D02*
D03*
Y647500D02*
D03*
X1875000Y806000D02*
D03*
Y850000D02*
D03*
X1811000Y991000D02*
D03*
X1190000Y720000D02*
D03*
X1720000Y990000D02*
D03*
X1650000Y970000D02*
D03*
X1575000D02*
D03*
X1500000D02*
D03*
Y895000D02*
D03*
Y830000D02*
D03*
X1300000Y720000D02*
D03*
X1240000D02*
D03*
X1100000D02*
D03*
X1500000Y770000D02*
D03*
X1425000D02*
D03*
X1360000Y772000D02*
D03*
X1000000Y770000D02*
D03*
X925000D02*
D03*
X850000D02*
D03*
X775000D02*
D03*
X700000D02*
D03*
X625000D02*
D03*
X1023000Y668000D02*
D03*
X1598000Y307000D02*
D03*
X1620000D02*
D03*
X1642000D02*
D03*
X1348000Y309000D02*
D03*
X1370000D02*
D03*
X1392000D02*
D03*
X1128000D02*
D03*
X1150000D02*
D03*
X1172000D02*
D03*
X653000D02*
D03*
X675000D02*
D03*
X697000D02*
D03*
X917000D02*
D03*
X895000D02*
D03*
X873000D02*
D03*
X1709000Y289000D02*
D03*
X1727000D02*
D03*
X1256000Y305000D02*
D03*
X1241000D02*
D03*
X771000Y317000D02*
D03*
X783000D02*
D03*
X630000Y222500D02*
D03*
X850000D02*
D03*
X1105000D02*
D03*
X1325000D02*
D03*
X1575000D02*
D03*
X739000Y1048000D02*
D03*
X938000Y1042000D02*
D03*
X680750Y968500D02*
D03*
X705500Y1007000D02*
D03*
X450000Y1490000D02*
D03*
X442000Y1436000D02*
D03*
X380000Y1405000D02*
D03*
X435000D02*
D03*
X490000D02*
D03*
Y1435000D02*
D03*
X285000Y1445000D02*
D03*
X104000Y1425000D02*
D03*
X140000Y1389000D02*
D03*
X80000Y1390000D02*
D03*
X55000Y1415000D02*
D03*
X40000Y1395000D02*
D03*
X160000Y1360000D02*
D03*
X547000Y1361000D02*
D03*
X600000Y1400000D02*
D03*
X250000Y1535000D02*
D03*
X350000D02*
D03*
X450000D02*
D03*
X520000Y1130000D02*
D03*
X250000Y1060000D02*
D03*
X320000D02*
D03*
X445000Y1065000D02*
D03*
X550000Y1100000D02*
D03*
X490000Y1130000D02*
D03*
X360000D02*
D03*
X400000D02*
D03*
X320000D02*
D03*
X250000Y1095000D02*
D03*
X135000Y1070000D02*
D03*
X85000Y1130000D02*
D03*
X185000D02*
D03*
X107000Y1358000D02*
D03*
X474250Y1214500D02*
D03*
X975000Y1007000D02*
D03*
X772500D02*
D03*
X908000D02*
D03*
X766500Y979000D02*
D03*
X810250Y987500D02*
D03*
X797000Y978250D02*
D03*
X400000Y1535000D02*
D03*
X250000Y1030000D02*
D03*
X100000Y1535000D02*
D03*
X735000Y890000D02*
D03*
X745000D02*
D03*
X755000D02*
D03*
X765000D02*
D03*
X712000Y956000D02*
D03*
X708000Y933250D02*
D03*
X756500Y926000D02*
D03*
X764000Y955750D02*
D03*
X967000D02*
D03*
X959500Y926000D02*
D03*
X911000Y933250D02*
D03*
X914750Y980500D02*
D03*
X883250Y968500D02*
D03*
X967500Y890000D02*
D03*
X957500D02*
D03*
X947500D02*
D03*
X937500D02*
D03*
X155000Y963000D02*
D03*
X444000Y965000D02*
D03*
X50000Y1445000D02*
D03*
X300000Y1535000D02*
D03*
X235000Y1130000D02*
D03*
X320000Y1095000D02*
D03*
X550000Y1130000D02*
D03*
X35000D02*
D03*
X135000Y1040000D02*
D03*
X445000Y1035000D02*
D03*
X200000Y1535000D02*
D03*
X500000D02*
D03*
X30000Y1510000D02*
D03*
X600000Y1360000D02*
D03*
Y1535000D02*
D03*
X675000Y1040000D02*
D03*
X1013000Y1039000D02*
D03*
X220000Y1010000D02*
D03*
X234000Y689000D02*
D03*
X487000Y1037500D02*
D03*
X226000Y1321000D02*
D03*
X947000Y1039000D02*
D03*
X745000Y1040000D02*
D03*
X210000Y1456000D02*
D03*
X505000Y1457000D02*
D03*
X258000Y1425000D02*
D03*
X552000Y1429000D02*
D03*
X155000Y688000D02*
D03*
X156000Y826000D02*
D03*
X40000Y1036000D02*
D03*
X443000Y826000D02*
D03*
X440000Y688000D02*
D03*
X147000Y1181000D02*
D03*
X73000Y1101000D02*
D03*
X350000Y1036000D02*
D03*
X383000Y1101000D02*
D03*
X177000Y1037500D02*
D03*
X210000Y1102000D02*
D03*
X523500Y1100500D02*
D03*
X275000Y1487000D02*
D03*
X569000Y1488000D02*
D03*
X318000Y1448000D02*
D03*
X62000D02*
D03*
X407000Y964000D02*
D03*
X120000Y688000D02*
D03*
Y826000D02*
D03*
Y963000D02*
D03*
X407000Y826000D02*
D03*
X405000Y688000D02*
D03*
M02*
