M48
;Layer_Color=9474304
;FILE_FORMAT=4:4
METRIC,LZ
;TYPE=PLATED
T1F00S00C0.3000
T2F00S00C0.7000
T3F00S00C0.9000
T4F00S00C1.0000
T5F00S00C1.0200
T6F00S00C1.2000
T8F00S00C1.6000
;TYPE=NON_PLATED
T9F00S00C0.8500
T10F00S00C2.5000
T11F00S00C3.0000
%
T01
X00625Y0007
X007
X0063Y002225
X0061Y0022
Y0033
X00653Y00309
X00675
X00697
X00771Y00317
X00783
X00873Y00309
X00895
X00917
X0085Y002225
Y0007
X00775
X0095
X01025
X011
X01105Y002225
X01128Y00309
X0115
X01172
X01241Y00305
X01256
X01348Y00309
X0137
X01392
X01325Y002225
Y0007
X0125
X01175
X01425
X015
X01575
X0165
X017
X01775
X0185Y0022
Y0027
X01727Y00289
X01709
X01642Y00307
X0162
X01598
X01575Y002225
X0185Y00345
Y0042
Y00565
Y006475
X0181Y0072
X01465Y006025
X013Y0072
X0124
X0119
X011
X01023Y00668
X009375Y006025
X00625Y0062
Y00545
Y0047
Y00395
Y00695
X0044Y00688
X00405
X00419Y00598
X00458Y00583
X00395Y00549
X00173Y00579
X00137Y00598
X00111Y00551
X0012Y00688
X00155Y00688
X00234Y00689
X00156Y00826
X0012Y00826
Y00963
X00155
X00177Y010375
X00135Y0104
Y0107
X00073Y01101
X0004Y01036
X00023Y01026
X0022Y0101
X0025Y0103
Y0106
Y01095
X0021Y01102
X0032Y01095
Y0106
X0035Y01036
X00445Y01035
Y01065
Y01094
X00471Y01102
X005235Y011005
X0055Y011
X00487Y010375
X00444Y00965
X00407Y00964
Y00826
X00443
X00625Y0077
X007
X00735Y0089
X00745
X00755
X00765
X007565Y00926
X00732Y00925
X00708Y0093325
X00712Y00956
X00712035Y00980797
X007055Y01007
X00746Y01015
X00745Y0104
X00739Y01048
X00675Y0104
X0068075Y009685
X00764Y0095575
X007665Y00979
X00401Y0111
X00383Y01101
X007725Y01007
X00797Y0097825
X00796Y00968
X0081025Y009875
X0088325Y009685
X0091475Y009805
X00915Y00956
X00911Y0093325
X00935998Y00924998
X009595Y00926
X00967Y0095575
X00971998Y00976998
X00975Y01007
X00933Y01015
X00938Y01042
X00947Y01039
X01013Y01039
X00998Y009685
X009675Y0089
X009575
X009475
X009375
X00925Y0077
X01
X0085
X00775
X00908Y01007
X015Y0097
Y00895
Y0083
Y0077
X01425
X0136Y00772
X01575Y0097
X0165
X0172Y0099
X01811Y00991
X01875Y00889
Y0085
Y00806
X00748Y01308
X00738Y01302
X00726Y01296
X00714Y0129
X00703Y01283
X00691Y01276
X006Y0136
Y014
Y01445
Y0149
X00569Y01488
X0053Y01477
X00505Y01457
X0049Y01435
Y01405
X00486Y01356
X00472Y01366
X00418
X00435Y01405
X00442Y01436
X00449Y0145
X00455Y01457
X00461Y01464
X0045Y0149
X0038Y01485
X00398Y01438
X0038Y01405
X00552Y01429
X00547Y01361
X00493Y01237
X0047425Y012145
X00439Y01207
X00436Y01181
X0044475Y01179
X0046075
X0049Y0113
X0052
X0055
X004
X0036
X0032
X00235
X00185
X00147Y01181
X00137Y01177
X00126Y01179
X00125Y01208
X00164Y01216
X0016Y0136
X0014Y01389
X00143Y01432
X00166Y01446
X00172Y01451997
X00178Y01458997
X0021Y01456
X00258Y01425
X00285Y01445
X00318Y01448
X00358Y01445
X00339Y01484
X00298Y01485
X00275Y01487
X00248Y01368
Y01356
X00226Y01321
X0031Y01364
X00367Y01365
X00107Y01358
X0008Y0139
X0004Y01395
X00055Y01415
X0005Y01445
X00062Y01448
X00102Y0144
X00104Y01425
X00085Y01485
X00125
X00046Y01484
X0003Y0151
X00035Y0113
X00085
X001Y01535
X002
X0025
X003
X0035
X004
X0045
X005
X006
T02
X018046Y00295
X0183
T03
X006259Y000419
X006513
X006767
X007021
Y001181
X006767
X006513
X006259
X008469
X008723
X008977
X009231
Y000419
X008977
X008723
X008469
X011009
X011263
X011517
Y001181
X011263
X011009
X011771
Y000419
X013209
X013463
X013717
X013971
Y001181
X013717
X013463
X013209
X015719
X015973
X016227
X016481
Y000419
X016227
X015973
X015719
X017809Y001069
Y001323
Y001577
Y001831
X018571
Y001577
Y001323
Y001069
X0183Y005852
Y006106
Y00636
Y006614
Y006868
X0163Y00575
Y005525
X013305Y00756
X013051
X012797
X012289
X012035
T04
X00639Y0018
X00664
X00689
Y00325
X00639
X00859
X00909
Y0018
X00884
X00859
X01114
X01139
X01164
Y00325
X01114
X01334
X01384
Y0018
X01359
X01334
X01584
X01609
X01634
Y00325
X01584
T05
X007719Y00423
X007973
X008227
X008481
X008735
X008989
X009243
X009497
X009751
Y004484
X009497
X009243
X008989
X008735
X008481
X008227
X007973
X007719
Y006516
X007973
X008227
X008481
X008735
X008989
X009243
X009497
X009751
Y00677
X009497
X009243
X008989
X008735
X008481
X008227
X007973
X007719
X007465
Y006516
X007211
Y00677
X006957
Y006516
X006703
Y00677
X006449
Y006516
Y004484
X006703
X006957
X007211
X007465
Y00423
X007211
X006957
X006703
X006449
X006475Y008323
X006729
X006983
X007237
X007491
Y008577
X007237
X006983
X006729
X006475
X006221
Y008323
X005967
Y008577
X007745
X007999
X008253
X008507
X008761
X009015
X009269
X009523
X009777
X010031
X010285
X010539
X010793
Y008323
X010539
X010285
X010031
X009777
X009523
X009269
X009015
X008761
X008507
X008253
X007999
X007745
T06
X00135Y00145
X00419
T08
X001007Y001107
X001693
Y001793
X001007
X003847
Y001107
X004533
Y001793
T09
X01882Y00928
Y00958
T10
X013045Y004555
Y006445
X01049Y0055
T11
X0005Y0005
X0185
X0174Y00411
X01675Y00514
X01875
X013925Y00847
X01675Y00764
X01875
X00171Y0156
X0005Y0155
X005425Y01567
X013925
X0174Y0156
X0185Y0155
M30
